<svg width="39" height="41" viewBox="0 0 39 41" fill="none" xmlns="http://www.w3.org/2000/svg">
<path d="M1.35986 21.7788V7.19315L7.16881 1.37268H25.7575V20.9401" stroke="url(#paint0_linear_50_844)" stroke-width="0.983514" stroke-linecap="round" stroke-linejoin="round"/>
<path d="M12.5462 31.5071H1.35986V22.9802" stroke="url(#paint1_linear_50_844)" stroke-width="0.983514" stroke-linecap="round" stroke-linejoin="round"/>
<path d="M24.149 31.5069H19.0913" stroke="url(#paint2_linear_50_844)" stroke-width="0.983514" stroke-linecap="round" stroke-linejoin="round"/>
<path d="M25.7573 22.7262V28.42" stroke="url(#paint3_linear_50_844)" stroke-width="0.983514" stroke-linecap="round" stroke-linejoin="round"/>
<path d="M9.49854 8.42769C9.49794 7.6243 9.73572 6.83877 10.1817 6.17049C10.6276 5.50222 11.2618 4.9812 12.004 4.67334C12.7461 4.36549 13.5629 4.28465 14.351 4.44102C15.1391 4.59739 15.863 4.98393 16.4314 5.5518C16.9997 6.11966 17.3869 6.84328 17.5438 7.63118C17.7008 8.41908 17.6206 9.23587 17.3132 9.97815C17.0059 10.7204 16.4853 11.3549 15.8173 11.8013C15.1493 12.2477 14.3638 12.486 13.5603 12.486C13.0271 12.4864 12.499 12.3817 12.0062 12.1779C11.5134 11.9741 11.0658 11.6753 10.6885 11.2984C10.3113 10.9215 10.0119 10.4739 9.80778 9.98138C9.60362 9.4888 9.49854 8.96088 9.49854 8.42769Z" stroke="url(#paint4_linear_50_844)" stroke-width="0.983514" stroke-linecap="round" stroke-linejoin="round"/>
<path d="M11.8159 8.07742L12.9597 9.65845L15.3014 6.88257" stroke="url(#paint5_linear_50_844)" stroke-width="0.983514" stroke-linecap="round" stroke-linejoin="round"/>
<path d="M4.854 15.4305H15.3132" stroke="url(#paint6_linear_50_844)" stroke-width="0.983514" stroke-linecap="round" stroke-linejoin="round"/>
<path d="M4.854 18.372H15.3132" stroke="url(#paint7_linear_50_844)" stroke-width="0.983514" stroke-linecap="round" stroke-linejoin="round"/>
<path d="M4.854 21.2332H15.3132" stroke="url(#paint8_linear_50_844)" stroke-width="0.983514" stroke-linecap="round" stroke-linejoin="round"/>
<path d="M4.854 24.105H10.6541" stroke="url(#paint9_linear_50_844)" stroke-width="0.983514" stroke-linecap="round" stroke-linejoin="round"/>
<path d="M1.35986 7.19315H7.16586V1.37268" stroke="url(#paint10_linear_50_844)" stroke-width="0.983514" stroke-linecap="round" stroke-linejoin="round"/>
<path d="M24.2091 37.113H22.2718V34.4427H9.50113V37.113H7.55469V39.8527H9.50113H22.2718H24.2091V37.113Z" stroke="url(#paint11_linear_50_844)" stroke-width="0.983514" stroke-linecap="round" stroke-linejoin="round"/>
<path d="M18.0293 37.1126H22.2782" stroke="url(#paint12_linear_50_844)" stroke-width="0.983514" stroke-linecap="round" stroke-linejoin="round"/>
<path d="M9.50098 37.1126H16.849" stroke="url(#paint13_linear_50_844)" stroke-width="0.983514" stroke-linecap="round" stroke-linejoin="round"/>
<path d="M24.5115 30.8943L20.3291 28.4352L21.7293 26.0576L25.7577 28.4202" stroke="url(#paint14_linear_50_844)" stroke-width="0.983514" stroke-linecap="round" stroke-linejoin="round"/>
<path d="M34.2399 32.5626L36.9829 34.1769C37.2225 34.3178 37.432 34.5044 37.5994 34.7262C37.7668 34.9481 37.8888 35.2006 37.9585 35.4696C38.0283 35.7386 38.0445 36.0186 38.0061 36.2938C37.9676 36.569 37.8753 36.834 37.7344 37.0735C37.5935 37.313 37.4068 37.5225 37.185 37.6899C36.9631 37.8573 36.7104 37.9793 36.4414 38.0491C36.1724 38.1189 35.8922 38.135 35.617 38.0965C35.3418 38.058 35.0769 37.9657 34.8374 37.8248L26.5479 32.9459L28.6934 29.3009L33.244 31.9772" stroke="url(#paint15_linear_50_844)" stroke-width="0.983514" stroke-linecap="round" stroke-linejoin="round"/>
<path d="M23.3978 23.2333L18.66 31.2866L13.8711 28.4715L18.6118 20.4182L23.3978 23.2333Z" stroke="url(#paint16_linear_50_844)" stroke-width="0.983514" stroke-linecap="round" stroke-linejoin="round"/>
<path d="M19.4023 33.6247C19.2939 33.8131 19.1493 33.9782 18.9769 34.1106C18.8044 34.2429 18.6076 34.3399 18.3976 34.396C18.1876 34.4521 17.9686 34.4661 17.7531 34.4373C17.5377 34.4086 17.3299 34.3375 17.142 34.2282L12.0392 31.2109C11.8524 31.101 11.6891 30.9553 11.5585 30.7822C11.428 30.6091 11.3327 30.412 11.2784 30.2022C11.224 29.9923 11.2115 29.7737 11.2415 29.5591C11.2716 29.3444 11.3438 29.1378 11.4537 28.951C11.5637 28.7641 11.7094 28.6007 11.8825 28.4702C12.0556 28.3397 12.2528 28.2445 12.4627 28.1902C12.6726 28.1358 12.8911 28.1233 13.1058 28.1534C13.3206 28.1835 13.5272 28.2556 13.714 28.3656L18.8168 31.3678C19.0036 31.4775 19.167 31.6228 19.2975 31.7956C19.428 31.9684 19.5231 32.1653 19.5775 32.3749C19.6319 32.5845 19.6444 32.8028 19.6143 33.0173C19.5842 33.2317 19.5123 33.4381 19.4023 33.6247Z" stroke="url(#paint17_linear_50_844)" stroke-width="0.983514" stroke-linecap="round" stroke-linejoin="round"/>
<path d="M25.8178 22.7262C25.5952 23.103 25.2323 23.3762 24.8087 23.4859C24.385 23.5956 23.935 23.5329 23.5575 23.3116L18.4518 20.3093C18.075 20.0868 17.8017 19.7239 17.692 19.3003C17.5823 18.8767 17.6449 18.4269 17.8662 18.0494C17.9759 17.8622 18.1214 17.6986 18.2945 17.5678C18.4675 17.437 18.6648 17.3417 18.8748 17.2873C19.0848 17.2329 19.3036 17.2205 19.5184 17.2509C19.7332 17.2812 19.9398 17.3536 20.1265 17.464L25.2325 20.4662C25.6093 20.6888 25.8823 21.0517 25.992 21.4753C26.1018 21.8989 26.0391 22.3487 25.8178 22.7262Z" stroke="url(#paint18_linear_50_844)" stroke-width="0.983514" stroke-linecap="round" stroke-linejoin="round"/>
<path d="M28.872 28.9996L26.3703 33.248C26.2774 33.4063 26.1542 33.5449 26.0078 33.6556C25.8614 33.7663 25.6946 33.8472 25.517 33.8934C25.3393 33.9397 25.1542 33.9504 24.9723 33.9251C24.7905 33.8998 24.6155 33.8389 24.4572 33.7458C24.2986 33.6527 24.1601 33.5293 24.0494 33.3825C23.9387 33.2357 23.8579 33.0686 23.812 32.8906C23.766 32.7126 23.7556 32.5272 23.7814 32.3452C23.8072 32.1632 23.8686 31.988 23.9623 31.8298L26.4609 27.5814C26.649 27.2614 26.9565 27.029 27.3159 26.9357C27.6752 26.8423 28.057 26.8955 28.3771 27.0836C28.6973 27.2716 28.9295 27.5791 29.0229 27.9384C29.1162 28.2978 29.0601 28.6795 28.872 28.9996Z" stroke="url(#paint19_linear_50_844)" stroke-width="0.983514" stroke-linecap="round" stroke-linejoin="round"/>
<defs>
<linearGradient id="paint0_linear_50_844" x1="1.35986" y1="11.5758" x2="25.7575" y2="11.5758" gradientUnits="userSpaceOnUse">
<stop stop-color="#2C8D8A"/>
<stop offset="1" stop-color="#1E585B"/>
</linearGradient>
<linearGradient id="paint1_linear_50_844" x1="1.35986" y1="27.2436" x2="12.5462" y2="27.2436" gradientUnits="userSpaceOnUse">
<stop stop-color="#2C8D8A"/>
<stop offset="1" stop-color="#1E585B"/>
</linearGradient>
<linearGradient id="paint2_linear_50_844" x1="19.0913" y1="32.0069" x2="24.149" y2="32.0069" gradientUnits="userSpaceOnUse">
<stop stop-color="#2C8D8A"/>
<stop offset="1" stop-color="#1E585B"/>
</linearGradient>
<linearGradient id="paint3_linear_50_844" x1="25.7573" y1="25.5731" x2="26.7573" y2="25.5731" gradientUnits="userSpaceOnUse">
<stop stop-color="#2C8D8A"/>
<stop offset="1" stop-color="#1E585B"/>
</linearGradient>
<linearGradient id="paint4_linear_50_844" x1="9.49854" y1="8.42467" x2="17.6221" y2="8.42467" gradientUnits="userSpaceOnUse">
<stop stop-color="#2C8D8A"/>
<stop offset="1" stop-color="#1E585B"/>
</linearGradient>
<linearGradient id="paint5_linear_50_844" x1="11.8159" y1="8.27051" x2="15.3014" y2="8.27051" gradientUnits="userSpaceOnUse">
<stop stop-color="#2C8D8A"/>
<stop offset="1" stop-color="#1E585B"/>
</linearGradient>
<linearGradient id="paint6_linear_50_844" x1="4.854" y1="15.9305" x2="15.3132" y2="15.9305" gradientUnits="userSpaceOnUse">
<stop stop-color="#2C8D8A"/>
<stop offset="1" stop-color="#1E585B"/>
</linearGradient>
<linearGradient id="paint7_linear_50_844" x1="4.854" y1="18.872" x2="15.3132" y2="18.872" gradientUnits="userSpaceOnUse">
<stop stop-color="#2C8D8A"/>
<stop offset="1" stop-color="#1E585B"/>
</linearGradient>
<linearGradient id="paint8_linear_50_844" x1="4.854" y1="21.7332" x2="15.3132" y2="21.7332" gradientUnits="userSpaceOnUse">
<stop stop-color="#2C8D8A"/>
<stop offset="1" stop-color="#1E585B"/>
</linearGradient>
<linearGradient id="paint9_linear_50_844" x1="4.854" y1="24.605" x2="10.6541" y2="24.605" gradientUnits="userSpaceOnUse">
<stop stop-color="#2C8D8A"/>
<stop offset="1" stop-color="#1E585B"/>
</linearGradient>
<linearGradient id="paint10_linear_50_844" x1="1.35986" y1="4.28291" x2="7.16586" y2="4.28291" gradientUnits="userSpaceOnUse">
<stop stop-color="#2C8D8A"/>
<stop offset="1" stop-color="#1E585B"/>
</linearGradient>
<linearGradient id="paint11_linear_50_844" x1="7.55469" y1="37.1477" x2="24.2091" y2="37.1477" gradientUnits="userSpaceOnUse">
<stop stop-color="#2C8D8A"/>
<stop offset="1" stop-color="#1E585B"/>
</linearGradient>
<linearGradient id="paint12_linear_50_844" x1="18.0293" y1="37.6126" x2="22.2782" y2="37.6126" gradientUnits="userSpaceOnUse">
<stop stop-color="#2C8D8A"/>
<stop offset="1" stop-color="#1E585B"/>
</linearGradient>
<linearGradient id="paint13_linear_50_844" x1="9.50098" y1="37.6126" x2="16.849" y2="37.6126" gradientUnits="userSpaceOnUse">
<stop stop-color="#2C8D8A"/>
<stop offset="1" stop-color="#1E585B"/>
</linearGradient>
<linearGradient id="paint14_linear_50_844" x1="20.3291" y1="28.4759" x2="25.7577" y2="28.4759" gradientUnits="userSpaceOnUse">
<stop stop-color="#2C8D8A"/>
<stop offset="1" stop-color="#1E585B"/>
</linearGradient>
<linearGradient id="paint15_linear_50_844" x1="26.5479" y1="33.7089" x2="38.0264" y2="33.7089" gradientUnits="userSpaceOnUse">
<stop stop-color="#2C8D8A"/>
<stop offset="1" stop-color="#1E585B"/>
</linearGradient>
<linearGradient id="paint16_linear_50_844" x1="13.8711" y1="25.8524" x2="23.3978" y2="25.8524" gradientUnits="userSpaceOnUse">
<stop stop-color="#2C8D8A"/>
<stop offset="1" stop-color="#1E585B"/>
</linearGradient>
<linearGradient id="paint17_linear_50_844" x1="11.2256" y1="31.2947" x2="19.6303" y2="31.2947" gradientUnits="userSpaceOnUse">
<stop stop-color="#2C8D8A"/>
<stop offset="1" stop-color="#1E585B"/>
</linearGradient>
<linearGradient id="paint18_linear_50_844" x1="17.6392" y1="20.3867" x2="26.0449" y2="20.3867" gradientUnits="userSpaceOnUse">
<stop stop-color="#2C8D8A"/>
<stop offset="1" stop-color="#1E585B"/>
</linearGradient>
<linearGradient id="paint19_linear_50_844" x1="23.7676" y1="30.4146" x2="29.0679" y2="30.4146" gradientUnits="userSpaceOnUse">
<stop stop-color="#2C8D8A"/>
<stop offset="1" stop-color="#1E585B"/>
</linearGradient>
</defs>
</svg>
