<svg width="37" height="40" viewBox="0 0 37 40" fill="none" xmlns="http://www.w3.org/2000/svg">
<path d="M10.1836 6.55469V2.43998C10.1832 2.23665 10.2229 2.03524 10.3005 1.8473C10.3782 1.65937 10.4922 1.48862 10.636 1.34484C10.7798 1.20106 10.9506 1.0871 11.1385 1.00947C11.3265 0.931837 11.5279 0.892061 11.7313 0.892459H30.1075C30.5181 0.892383 30.9118 1.05514 31.2026 1.34498L35.2634 5.40532C35.5533 5.69604 35.7161 6.08986 35.716 6.50038V12.7569" stroke="url(#paint0_linear_50_758)" stroke-width="0.983514" stroke-linecap="round" stroke-linejoin="round"/>
<path d="M35.7312 15.4538V33.5082C35.7312 33.9187 35.5681 34.3123 35.2779 34.6025C34.9876 34.8927 34.594 35.0558 34.1835 35.0558H18.978" stroke="url(#paint1_linear_50_758)" stroke-width="0.983514" stroke-linecap="round" stroke-linejoin="round"/>
<path d="M35.2637 5.40487L31.206 1.34453C31.0735 1.21887 30.9204 1.11682 30.7534 1.04285V5.09417C30.7534 5.29926 30.8348 5.49602 30.9795 5.64133C31.1243 5.78663 31.3208 5.86865 31.5259 5.86945H35.5775C35.5023 5.69666 35.3959 5.53916 35.2637 5.40487Z" stroke="url(#paint2_linear_50_758)" stroke-width="0.983514" stroke-linecap="round" stroke-linejoin="round"/>
<path d="M30.6027 14.5786H27.2841C26.9761 14.5786 26.6805 14.4563 26.4627 14.2385C26.2448 14.0207 26.1226 13.7253 26.1226 13.4172V10.0989C26.1226 9.79092 26.2448 9.49553 26.4627 9.27772C26.6805 9.05992 26.9761 8.93756 27.2841 8.93756H30.6027C30.9107 8.93756 31.2061 9.05992 31.4239 9.27772C31.6418 9.49553 31.7642 9.79092 31.7642 10.0989V13.4172C31.7642 13.7253 31.6418 14.0207 31.4239 14.2385C31.2061 14.4563 30.9107 14.5786 30.6027 14.5786Z" stroke="url(#paint3_linear_50_758)" stroke-width="0.983514" stroke-linecap="round" stroke-linejoin="round"/>
<path d="M28.0591 11.7551L28.8466 12.4701L29.8452 11.0372" stroke="url(#paint4_linear_50_758)" stroke-width="0.983514" stroke-linecap="round" stroke-linejoin="round"/>
<path d="M30.6027 22.9559H27.2841C26.9761 22.9559 26.6805 22.8335 26.4627 22.6157C26.2448 22.3979 26.1226 22.1025 26.1226 21.7944V18.4762C26.1226 18.1682 26.2448 17.8728 26.4627 17.655C26.6805 17.4372 26.9761 17.3148 27.2841 17.3148H30.6027C30.9107 17.3148 31.2061 17.4372 31.4239 17.655C31.6418 17.8728 31.7642 18.1682 31.7642 18.4762V21.7944C31.7642 22.1025 31.6418 22.3979 31.4239 22.6157C31.2061 22.8335 30.9107 22.9559 30.6027 22.9559Z" stroke="url(#paint5_linear_50_758)" stroke-width="0.983514" stroke-linecap="round" stroke-linejoin="round"/>
<path d="M28.0591 20.1323L28.8466 20.8473L29.8452 19.4144" stroke="url(#paint6_linear_50_758)" stroke-width="0.983514" stroke-linecap="round" stroke-linejoin="round"/>
<path d="M30.6027 31.333H27.2841C26.9761 31.333 26.6805 31.2106 26.4627 30.9928C26.2448 30.775 26.1226 30.4796 26.1226 30.1716V26.8533C26.1226 26.5453 26.2448 26.2499 26.4627 26.0321C26.6805 25.8143 26.9761 25.6919 27.2841 25.6919H30.6027C30.9107 25.6919 31.2061 25.8143 31.4239 26.0321C31.6418 26.2499 31.7642 26.5453 31.7642 26.8533V30.1716C31.7642 30.4796 31.6418 30.775 31.4239 30.9928C31.2061 31.2106 30.9107 31.333 30.6027 31.333Z" stroke="url(#paint7_linear_50_758)" stroke-width="0.983514" stroke-linecap="round" stroke-linejoin="round"/>
<path d="M28.2163 29.321L29.6887 27.6981" stroke="url(#paint8_linear_50_758)" stroke-width="0.983514" stroke-linecap="round" stroke-linejoin="round"/>
<path d="M29.6975 29.321L28.2251 27.6981" stroke="url(#paint9_linear_50_758)" stroke-width="0.983514" stroke-linecap="round" stroke-linejoin="round"/>
<path d="M22.375 11.7549H15.2339" stroke="url(#paint10_linear_50_758)" stroke-width="0.983514" stroke-linecap="round" stroke-linejoin="round"/>
<path d="M22.3755 20.1318H18.9634" stroke="url(#paint11_linear_50_758)" stroke-width="0.983514" stroke-linecap="round" stroke-linejoin="round"/>
<path d="M22.3755 28.5245H18.9634" stroke="url(#paint12_linear_50_758)" stroke-width="0.983514" stroke-linecap="round" stroke-linejoin="round"/>
<path d="M15.409 16.1021H17.4154C17.8259 16.1021 18.2195 16.2652 18.5097 16.5554C18.8 16.8456 18.9631 17.2392 18.9631 17.6496V37.8217C18.9631 38.2324 18.8001 38.6264 18.5099 38.9171C18.2198 39.2078 17.8262 39.3715 17.4154 39.3723H2.93392C2.52317 39.3715 2.12956 39.2078 1.8394 38.9171C1.54924 38.6264 1.38623 38.2324 1.38623 37.8217V17.6647C1.38623 17.2543 1.54933 16.8607 1.83958 16.5705C2.12983 16.2802 2.52345 16.1172 2.93392 16.1172H4.76519" stroke="url(#paint13_linear_50_758)" stroke-width="0.983514" stroke-linecap="round" stroke-linejoin="round"/>
<path d="M4.30078 21.3929V19.7458C4.30158 19.5407 4.38361 19.3443 4.52893 19.1996C4.67425 19.0548 4.87108 18.9736 5.07619 18.9736H15.2915C15.4961 18.9744 15.6921 19.056 15.8368 19.2006C15.9814 19.3453 16.0632 19.5412 16.064 19.7458V21.3929C16.064 21.598 15.9826 21.7948 15.8379 21.9401C15.6931 22.0854 15.4966 22.1674 15.2915 22.1682H5.07619C4.87056 22.1682 4.67342 22.0865 4.52801 21.9411C4.3826 21.7957 4.30078 21.5985 4.30078 21.3929Z" stroke="url(#paint14_linear_50_758)" stroke-width="0.983514" stroke-linecap="round" stroke-linejoin="round"/>
<path d="M15.3127 29.3326H14.2477C14.1492 29.3326 14.0518 29.352 13.9608 29.3898C13.8698 29.4276 13.7871 29.483 13.7175 29.5527C13.648 29.6225 13.5931 29.7054 13.5557 29.7965C13.5183 29.8876 13.4991 29.9852 13.4995 30.0837V35.764C13.4995 35.9627 13.5782 36.1533 13.7185 36.2941C13.8587 36.4348 14.049 36.5143 14.2477 36.5151H15.3127C15.512 36.5151 15.7031 36.436 15.844 36.2951C15.9849 36.1543 16.064 35.9632 16.064 35.764V30.0988C16.0665 29.9988 16.0486 29.8993 16.0119 29.8062C15.9752 29.7132 15.9203 29.6284 15.8502 29.557C15.7802 29.4855 15.6966 29.4289 15.6042 29.3903C15.5119 29.3518 15.4128 29.3322 15.3127 29.3326Z" stroke="url(#paint15_linear_50_758)" stroke-width="0.983514" stroke-linecap="round" stroke-linejoin="round"/>
<path d="M6.09283 27.2996H5.07619C4.87056 27.2996 4.67342 27.2179 4.52801 27.0725C4.3826 26.9271 4.30078 26.7299 4.30078 26.5243V25.5077C4.30078 25.3021 4.3826 25.1049 4.52801 24.9595C4.67342 24.8141 4.87056 24.7324 5.07619 24.7324H6.09283C6.29847 24.7324 6.49579 24.8141 6.6412 24.9595C6.7866 25.1049 6.86824 25.3021 6.86824 25.5077V26.5243C6.86824 26.7299 6.7866 26.9271 6.6412 27.0725C6.49579 27.2179 6.29847 27.2996 6.09283 27.2996Z" stroke="url(#paint16_linear_50_758)" stroke-width="0.983514" stroke-linecap="round" stroke-linejoin="round"/>
<path d="M15.2881 27.2996H14.2713C14.0657 27.2996 13.8685 27.2179 13.7231 27.0725C13.5777 26.9271 13.4961 26.7299 13.4961 26.5243V25.5077C13.4961 25.3021 13.5777 25.1049 13.7231 24.9595C13.8685 24.8141 14.0657 24.7324 14.2713 24.7324H15.2881C15.4938 24.7324 15.6909 24.8141 15.8363 24.9595C15.9817 25.1049 16.0636 25.3021 16.0636 25.5077V26.5243C16.0636 26.7299 15.9817 26.9271 15.8363 27.0725C15.6909 27.2179 15.4938 27.2996 15.2881 27.2996Z" stroke="url(#paint17_linear_50_758)" stroke-width="0.983514" stroke-linecap="round" stroke-linejoin="round"/>
<path d="M10.6905 27.2996H9.67367C9.46803 27.2996 9.27089 27.2179 9.12548 27.0725C8.98007 26.9271 8.89844 26.7299 8.89844 26.5243V25.5077C8.89844 25.3021 8.98007 25.1049 9.12548 24.9595C9.27089 24.8141 9.46803 24.7324 9.67367 24.7324H10.6905C10.8961 24.7324 11.0933 24.8141 11.2387 24.9595C11.3841 25.1049 11.4657 25.3021 11.4657 25.5077V26.5243C11.4657 26.7299 11.3841 26.9271 11.2387 27.0725C11.0933 27.2179 10.8961 27.2996 10.6905 27.2996Z" stroke="url(#paint18_linear_50_758)" stroke-width="0.983514" stroke-linecap="round" stroke-linejoin="round"/>
<path d="M6.09283 31.8997H5.07619C4.87056 31.8997 4.67342 31.818 4.52801 31.6726C4.3826 31.5273 4.30078 31.33 4.30078 31.1244V30.1079C4.30078 29.9022 4.3826 29.705 4.52801 29.5596C4.67342 29.4143 4.87056 29.3326 5.07619 29.3326H6.09283C6.29847 29.3326 6.49579 29.4143 6.6412 29.5596C6.7866 29.705 6.86824 29.9022 6.86824 30.1079V31.1244C6.86824 31.33 6.7866 31.5273 6.6412 31.6726C6.49579 31.818 6.29847 31.8997 6.09283 31.8997Z" stroke="url(#paint19_linear_50_758)" stroke-width="0.983514" stroke-linecap="round" stroke-linejoin="round"/>
<path d="M10.6905 31.8997H9.67367C9.46803 31.8997 9.27089 31.818 9.12548 31.6726C8.98007 31.5273 8.89844 31.33 8.89844 31.1244V30.1079C8.89844 29.9022 8.98007 29.705 9.12548 29.5596C9.27089 29.4143 9.46803 29.3326 9.67367 29.3326H10.6905C10.8961 29.3326 11.0933 29.4143 11.2387 29.5596C11.3841 29.705 11.4657 29.9022 11.4657 30.1079V31.1244C11.4657 31.33 11.3841 31.5273 11.2387 31.6726C11.0933 31.818 10.8961 31.8997 10.6905 31.8997Z" stroke="url(#paint20_linear_50_758)" stroke-width="0.983514" stroke-linecap="round" stroke-linejoin="round"/>
<path d="M6.09283 36.5004H5.07619C4.97437 36.5004 4.87361 36.4803 4.77954 36.4414C4.68547 36.4024 4.60001 36.3453 4.52801 36.2733C4.45601 36.2013 4.39886 36.1158 4.35989 36.0218C4.32092 35.9277 4.30078 35.8269 4.30078 35.7251V34.7085C4.30078 34.5029 4.3826 34.3057 4.52801 34.1603C4.67342 34.0149 4.87056 33.9332 5.07619 33.9332H6.09283C6.29847 33.9332 6.49579 34.0149 6.6412 34.1603C6.7866 34.3057 6.86824 34.5029 6.86824 34.7085V35.7251C6.86824 35.8269 6.84828 35.9277 6.80932 36.0218C6.77035 36.1158 6.71319 36.2013 6.6412 36.2733C6.5692 36.3453 6.48373 36.4024 6.38966 36.4414C6.29559 36.4803 6.19465 36.5004 6.09283 36.5004Z" stroke="url(#paint21_linear_50_758)" stroke-width="0.983514" stroke-linecap="round" stroke-linejoin="round"/>
<path d="M10.6905 36.5004H9.67367C9.57184 36.5004 9.47109 36.4803 9.37702 36.4414C9.28295 36.4024 9.19748 36.3453 9.12548 36.2733C9.05348 36.2013 8.99633 36.1158 8.95736 36.0218C8.9184 35.9277 8.89844 35.8269 8.89844 35.7251V34.7085C8.89844 34.5029 8.98007 34.3057 9.12548 34.1603C9.27089 34.0149 9.46803 33.9332 9.67367 33.9332H10.6905C10.8961 33.9332 11.0933 34.0149 11.2387 34.1603C11.3841 34.3057 11.4657 34.5029 11.4657 34.7085V35.7251C11.4657 35.8269 11.4458 35.9277 11.4068 36.0218C11.3678 36.1158 11.3107 36.2013 11.2387 36.2733C11.1667 36.3453 11.0812 36.4024 10.9871 36.4414C10.8931 36.4803 10.7923 36.5004 10.6905 36.5004Z" stroke="url(#paint22_linear_50_758)" stroke-width="0.983514" stroke-linecap="round" stroke-linejoin="round"/>
<path d="M14.1331 8.52984C14.8905 9.51457 15.2593 10.7434 15.1692 11.9824C15.0792 13.2214 14.5367 14.384 13.6449 15.249C12.7532 16.1139 11.5745 16.6208 10.3332 16.6731C9.09189 16.7254 7.87469 16.3194 6.91335 15.5325C5.952 14.7455 5.31352 13.6326 5.11964 12.4056C4.92576 11.1786 5.19 9.92307 5.86191 8.87815C6.53382 7.83323 7.56644 7.07181 8.7634 6.73891C9.96036 6.40601 11.238 6.52487 12.353 7.07281" stroke="url(#paint23_linear_50_758)" stroke-width="0.983514" stroke-linecap="round" stroke-linejoin="round"/>
<path d="M8.83228 13.5381H10.8234C10.9026 13.5381 10.9811 13.5225 11.0543 13.4922C11.1275 13.4619 11.1942 13.4174 11.2502 13.3614C11.3062 13.3054 11.3506 13.2389 11.381 13.1657C11.4113 13.0925 11.4268 13.014 11.4268 12.9348V12.1867C11.4268 12.1074 11.4113 12.029 11.381 11.9558C11.3506 11.8826 11.3062 11.8161 11.2502 11.7601C11.1942 11.704 11.1275 11.6596 11.0543 11.6293C10.9811 11.599 10.9026 11.5834 10.8234 11.5834H9.42355C9.26353 11.5834 9.11006 11.5198 8.9969 11.4066C8.88375 11.2935 8.82031 11.1401 8.82031 10.98V10.2319C8.82031 10.0719 8.88375 9.91845 8.9969 9.80531C9.11006 9.69216 9.26353 9.6286 9.42355 9.6286H11.4148" stroke="url(#paint24_linear_50_758)" stroke-width="0.983514" stroke-linecap="round" stroke-linejoin="round"/>
<path d="M10.1235 8.49084V9.67635" stroke="url(#paint25_linear_50_758)" stroke-width="0.983514" stroke-linecap="round" stroke-linejoin="round"/>
<path d="M10.1235 13.5382V14.7238" stroke="url(#paint26_linear_50_758)" stroke-width="0.983514" stroke-linecap="round" stroke-linejoin="round"/>
<defs>
<linearGradient id="paint0_linear_50_758" x1="10.1836" y1="6.82465" x2="35.716" y2="6.82465" gradientUnits="userSpaceOnUse">
<stop stop-color="#2C8D8A"/>
<stop offset="1" stop-color="#1E585B"/>
</linearGradient>
<linearGradient id="paint1_linear_50_758" x1="18.978" y1="25.2548" x2="35.7312" y2="25.2548" gradientUnits="userSpaceOnUse">
<stop stop-color="#2C8D8A"/>
<stop offset="1" stop-color="#1E585B"/>
</linearGradient>
<linearGradient id="paint2_linear_50_758" x1="30.7534" y1="3.45615" x2="35.5775" y2="3.45615" gradientUnits="userSpaceOnUse">
<stop stop-color="#2C8D8A"/>
<stop offset="1" stop-color="#1E585B"/>
</linearGradient>
<linearGradient id="paint3_linear_50_758" x1="26.1226" y1="11.7581" x2="31.7642" y2="11.7581" gradientUnits="userSpaceOnUse">
<stop stop-color="#2C8D8A"/>
<stop offset="1" stop-color="#1E585B"/>
</linearGradient>
<linearGradient id="paint4_linear_50_758" x1="28.0591" y1="11.7536" x2="29.8452" y2="11.7536" gradientUnits="userSpaceOnUse">
<stop stop-color="#2C8D8A"/>
<stop offset="1" stop-color="#1E585B"/>
</linearGradient>
<linearGradient id="paint5_linear_50_758" x1="26.1226" y1="20.1353" x2="31.7642" y2="20.1353" gradientUnits="userSpaceOnUse">
<stop stop-color="#2C8D8A"/>
<stop offset="1" stop-color="#1E585B"/>
</linearGradient>
<linearGradient id="paint6_linear_50_758" x1="28.0591" y1="20.1308" x2="29.8452" y2="20.1308" gradientUnits="userSpaceOnUse">
<stop stop-color="#2C8D8A"/>
<stop offset="1" stop-color="#1E585B"/>
</linearGradient>
<linearGradient id="paint7_linear_50_758" x1="26.1226" y1="28.5124" x2="31.7642" y2="28.5124" gradientUnits="userSpaceOnUse">
<stop stop-color="#2C8D8A"/>
<stop offset="1" stop-color="#1E585B"/>
</linearGradient>
<linearGradient id="paint8_linear_50_758" x1="28.2163" y1="28.5095" x2="29.6887" y2="28.5095" gradientUnits="userSpaceOnUse">
<stop stop-color="#2C8D8A"/>
<stop offset="1" stop-color="#1E585B"/>
</linearGradient>
<linearGradient id="paint9_linear_50_758" x1="28.2251" y1="28.5095" x2="29.6975" y2="28.5095" gradientUnits="userSpaceOnUse">
<stop stop-color="#2C8D8A"/>
<stop offset="1" stop-color="#1E585B"/>
</linearGradient>
<linearGradient id="paint10_linear_50_758" x1="15.2339" y1="12.2549" x2="22.375" y2="12.2549" gradientUnits="userSpaceOnUse">
<stop stop-color="#2C8D8A"/>
<stop offset="1" stop-color="#1E585B"/>
</linearGradient>
<linearGradient id="paint11_linear_50_758" x1="18.9634" y1="20.6318" x2="22.3755" y2="20.6318" gradientUnits="userSpaceOnUse">
<stop stop-color="#2C8D8A"/>
<stop offset="1" stop-color="#1E585B"/>
</linearGradient>
<linearGradient id="paint12_linear_50_758" x1="18.9634" y1="29.0245" x2="22.3755" y2="29.0245" gradientUnits="userSpaceOnUse">
<stop stop-color="#2C8D8A"/>
<stop offset="1" stop-color="#1E585B"/>
</linearGradient>
<linearGradient id="paint13_linear_50_758" x1="1.38623" y1="27.7372" x2="18.9631" y2="27.7372" gradientUnits="userSpaceOnUse">
<stop stop-color="#2C8D8A"/>
<stop offset="1" stop-color="#1E585B"/>
</linearGradient>
<linearGradient id="paint14_linear_50_758" x1="4.30078" y1="20.5709" x2="16.064" y2="20.5709" gradientUnits="userSpaceOnUse">
<stop stop-color="#2C8D8A"/>
<stop offset="1" stop-color="#1E585B"/>
</linearGradient>
<linearGradient id="paint15_linear_50_758" x1="13.4995" y1="32.9239" x2="16.0642" y2="32.9239" gradientUnits="userSpaceOnUse">
<stop stop-color="#2C8D8A"/>
<stop offset="1" stop-color="#1E585B"/>
</linearGradient>
<linearGradient id="paint16_linear_50_758" x1="4.30078" y1="26.016" x2="6.86824" y2="26.016" gradientUnits="userSpaceOnUse">
<stop stop-color="#2C8D8A"/>
<stop offset="1" stop-color="#1E585B"/>
</linearGradient>
<linearGradient id="paint17_linear_50_758" x1="13.4961" y1="26.016" x2="16.0636" y2="26.016" gradientUnits="userSpaceOnUse">
<stop stop-color="#2C8D8A"/>
<stop offset="1" stop-color="#1E585B"/>
</linearGradient>
<linearGradient id="paint18_linear_50_758" x1="8.89844" y1="26.016" x2="11.4657" y2="26.016" gradientUnits="userSpaceOnUse">
<stop stop-color="#2C8D8A"/>
<stop offset="1" stop-color="#1E585B"/>
</linearGradient>
<linearGradient id="paint19_linear_50_758" x1="4.30078" y1="30.6161" x2="6.86824" y2="30.6161" gradientUnits="userSpaceOnUse">
<stop stop-color="#2C8D8A"/>
<stop offset="1" stop-color="#1E585B"/>
</linearGradient>
<linearGradient id="paint20_linear_50_758" x1="8.89844" y1="30.6161" x2="11.4657" y2="30.6161" gradientUnits="userSpaceOnUse">
<stop stop-color="#2C8D8A"/>
<stop offset="1" stop-color="#1E585B"/>
</linearGradient>
<linearGradient id="paint21_linear_50_758" x1="4.30078" y1="35.2168" x2="6.86824" y2="35.2168" gradientUnits="userSpaceOnUse">
<stop stop-color="#2C8D8A"/>
<stop offset="1" stop-color="#1E585B"/>
</linearGradient>
<linearGradient id="paint22_linear_50_758" x1="8.89844" y1="35.2168" x2="11.4657" y2="35.2168" gradientUnits="userSpaceOnUse">
<stop stop-color="#2C8D8A"/>
<stop offset="1" stop-color="#1E585B"/>
</linearGradient>
<linearGradient id="paint23_linear_50_758" x1="5.05762" y1="11.6157" x2="15.1826" y2="11.6157" gradientUnits="userSpaceOnUse">
<stop stop-color="#2C8D8A"/>
<stop offset="1" stop-color="#1E585B"/>
</linearGradient>
<linearGradient id="paint24_linear_50_758" x1="8.82031" y1="11.5834" x2="11.4268" y2="11.5834" gradientUnits="userSpaceOnUse">
<stop stop-color="#2C8D8A"/>
<stop offset="1" stop-color="#1E585B"/>
</linearGradient>
<linearGradient id="paint25_linear_50_758" x1="10.1235" y1="9.08359" x2="11.1235" y2="9.08359" gradientUnits="userSpaceOnUse">
<stop stop-color="#2C8D8A"/>
<stop offset="1" stop-color="#1E585B"/>
</linearGradient>
<linearGradient id="paint26_linear_50_758" x1="10.1235" y1="14.131" x2="11.1235" y2="14.131" gradientUnits="userSpaceOnUse">
<stop stop-color="#2C8D8A"/>
<stop offset="1" stop-color="#1E585B"/>
</linearGradient>
</defs>
</svg>
