<svg width="36" height="41" viewBox="0 0 36 41" fill="none" xmlns="http://www.w3.org/2000/svg">
<path d="M23.2789 21.2191H23.6983C24.081 21.2191 24.4481 21.0672 24.7191 20.7969C24.99 20.5266 25.1426 20.1599 25.1434 19.7772V18.9506C25.1426 18.5676 24.9901 18.2005 24.7192 17.9297C24.4484 17.6589 24.0813 17.5064 23.6983 17.5056C23.3955 17.5062 23.1005 17.6017 22.8549 17.7787C22.6092 17.9556 22.4251 18.2051 22.3286 18.492L21.7463 20.2447C21.6502 20.5319 21.4663 20.7816 21.2205 20.9586C20.9748 21.1356 20.6795 21.231 20.3766 21.2311C19.9942 21.2311 19.6274 21.0792 19.357 20.8088C19.0865 20.5384 18.9346 20.1716 18.9346 19.7892V18.9506C18.9346 18.5679 19.0864 18.2008 19.3568 17.9299C19.6272 17.659 19.9939 17.5064 20.3766 17.5056H20.796" stroke="url(#paint0_linear_50_686)" stroke-width="0.983514" stroke-linecap="round" stroke-linejoin="round"/>
<path d="M25.7622 19.3577H18.3135" stroke="url(#paint1_linear_50_686)" stroke-width="0.983514" stroke-linecap="round" stroke-linejoin="round"/>
<path d="M5.11124 5.62379C6.73928 4.8475 8.59844 4.70672 10.3248 5.22904C12.0512 5.75136 13.5205 6.89922 14.445 8.44778C15.3695 9.99633 15.6827 11.8341 15.3232 13.6014C14.9638 15.3687 13.9576 16.9382 12.5016 18.0027C11.0456 19.0672 9.24472 19.55 7.45144 19.3566C5.65817 19.1632 4.00159 18.3076 2.80612 16.9571C1.61065 15.6067 0.962335 13.8587 0.988041 12.0554C1.01375 10.2521 1.71166 8.52329 2.94514 7.20747" stroke="url(#paint2_linear_50_686)" stroke-width="0.983514" stroke-linecap="round" stroke-linejoin="round"/>
<path d="M5.80531 10.942C6.47012 10.942 7.00905 10.4031 7.00905 9.7384C7.00905 9.07367 6.47012 8.53479 5.80531 8.53479C5.1405 8.53479 4.60156 9.07367 4.60156 9.7384C4.60156 10.4031 5.1405 10.942 5.80531 10.942Z" stroke="url(#paint3_linear_50_686)" stroke-width="0.983514" stroke-linecap="round" stroke-linejoin="round"/>
<path d="M10.6139 15.7502C11.2787 15.7502 11.8176 15.2113 11.8176 14.5466C11.8176 13.8818 11.2787 13.343 10.6139 13.343C9.94909 13.343 9.41016 13.8818 9.41016 14.5466C9.41016 15.2113 9.94909 15.7502 10.6139 15.7502Z" stroke="url(#paint4_linear_50_686)" stroke-width="0.983514" stroke-linecap="round" stroke-linejoin="round"/>
<path d="M11.2144 9.13501L5.20166 15.1471" stroke="url(#paint5_linear_50_686)" stroke-width="0.983514" stroke-linecap="round" stroke-linejoin="round"/>
<path d="M14.18 1.31879H11.7664C11.4584 1.31879 11.163 1.44114 10.9452 1.65894C10.7273 1.87674 10.605 2.17218 10.605 2.4802V5.33687" stroke="url(#paint6_linear_50_686)" stroke-width="0.983514" stroke-linecap="round" stroke-linejoin="round"/>
<path d="M10.6143 28.3745V18.9446" stroke="url(#paint7_linear_50_686)" stroke-width="0.983514" stroke-linecap="round" stroke-linejoin="round"/>
<path d="M8.29102 4.92666V2.4802C8.29102 2.17218 8.41338 1.87674 8.63121 1.65894C8.84903 1.44114 9.14441 1.31879 9.45246 1.31879H11.866" stroke="url(#paint8_linear_50_686)" stroke-width="0.983514" stroke-linecap="round" stroke-linejoin="round"/>
<path d="M8.29102 25.8586V19.3549" stroke="url(#paint9_linear_50_686)" stroke-width="0.983514" stroke-linecap="round" stroke-linejoin="round"/>
<path d="M22.0387 9.73798C22.7035 9.73798 23.2425 9.1991 23.2425 8.53436C23.2425 7.86963 22.7035 7.33075 22.0387 7.33075C21.3739 7.33075 20.835 7.86963 20.835 8.53436C20.835 9.1991 21.3739 9.73798 22.0387 9.73798Z" stroke="url(#paint10_linear_50_686)" stroke-width="0.983514" stroke-linecap="round" stroke-linejoin="round"/>
<path d="M3.39795 27.8769V21.4667C3.39836 21.2059 3.4422 20.9469 3.52767 20.7005L12.2767 30.1786" stroke="url(#paint11_linear_50_686)" stroke-width="0.983514" stroke-linecap="round" stroke-linejoin="round"/>
<path d="M3.83242 39.3281C3.55356 39.0389 3.39778 38.6529 3.39795 38.2512V30.586" stroke="url(#paint12_linear_50_686)" stroke-width="0.983514" stroke-linecap="round" stroke-linejoin="round"/>
<path d="M25.7861 30.1786L34.5352 20.7005C34.6207 20.9469 34.6645 21.2059 34.665 21.4667V38.2569C34.6651 38.6586 34.5093 39.0448 34.2305 39.3339L34.2123 39.352" stroke="url(#paint13_linear_50_686)" stroke-width="0.983514" stroke-linecap="round" stroke-linejoin="round"/>
<path d="M15.6525 26.535C16.0843 26.0672 16.6081 25.6939 17.1912 25.4384C17.7742 25.183 18.4039 25.051 19.0405 25.0508C19.6772 25.0503 20.307 25.182 20.8902 25.4374C21.4734 25.6929 21.9972 26.0666 22.4285 26.535L34.2396 39.3283C34.0952 39.4775 33.9222 39.5961 33.7309 39.677C33.5397 39.7578 33.3341 39.7993 33.1264 39.7989H4.95451C4.74695 39.7986 4.54154 39.7568 4.35036 39.676C4.15918 39.5951 3.98612 39.4769 3.84131 39.3283L15.6525 26.535Z" stroke="url(#paint14_linear_50_686)" stroke-width="0.983514" stroke-linecap="round" stroke-linejoin="round"/>
<path d="M5.13836 18.6734L4.0131 19.88C3.79848 20.1141 3.63325 20.3891 3.52734 20.6885" stroke="url(#paint15_linear_50_686)" stroke-width="0.983514" stroke-linecap="round" stroke-linejoin="round"/>
<path d="M34.5352 20.7006C34.4304 20.4006 34.2651 20.1254 34.0494 19.8921L31.0566 16.6523" stroke="url(#paint16_linear_50_686)" stroke-width="0.983514" stroke-linecap="round" stroke-linejoin="round"/>
<path d="M28.6524 11.7321V7.33099C27.6922 7.33099 26.7713 6.94961 26.0924 6.27075C25.4134 5.59189 25.032 4.67112 25.032 3.71106H19.0315C19.0315 4.67112 18.65 5.59189 17.9711 6.27075C17.2922 6.94961 16.3713 7.33099 15.4111 7.33099V26.7729" stroke="url(#paint17_linear_50_686)" stroke-width="0.983514" stroke-linecap="round" stroke-linejoin="round"/>
<path d="M28.6523 27.0744V14.444" stroke="url(#paint18_linear_50_686)" stroke-width="0.983514" stroke-linecap="round" stroke-linejoin="round"/>
<path d="M22.0391 25.9706C23.6423 25.9692 25.1907 25.3858 26.396 24.3288C27.6014 23.2718 28.3818 21.813 28.5923 20.2238C28.8028 18.6346 28.4291 17.023 27.5404 15.6886C26.6518 14.3543 25.3089 13.388 23.7612 12.9694C22.2136 12.5508 20.5666 12.7083 19.1264 13.4128C17.6862 14.1172 16.5508 15.3206 15.9313 16.7992C15.3118 18.2778 15.2504 19.931 15.7584 21.4515C16.2665 22.972 17.3094 24.2563 18.6934 25.0656" stroke="url(#paint19_linear_50_686)" stroke-width="0.983514" stroke-linecap="round" stroke-linejoin="round"/>
<path d="M13.0186 29.3759V17.5178" stroke="url(#paint20_linear_50_686)" stroke-width="0.983514" stroke-linecap="round" stroke-linejoin="round"/>
<path d="M13.0186 6.76369V2.4802C13.0186 2.17218 13.1409 1.87674 13.3587 1.65894C13.5766 1.44114 13.872 1.31879 14.1801 1.31879H29.8981C30.2057 1.31959 30.5004 1.44233 30.7176 1.66005C30.9347 1.87776 31.0566 2.1727 31.0566 2.4802V24.468" stroke="url(#paint21_linear_50_686)" stroke-width="0.983514" stroke-linecap="round" stroke-linejoin="round"/>
<defs>
<linearGradient id="paint0_linear_50_686" x1="18.9346" y1="19.3684" x2="25.1434" y2="19.3684" gradientUnits="userSpaceOnUse">
<stop stop-color="#2C8D8A"/>
<stop offset="1" stop-color="#1E585B"/>
</linearGradient>
<linearGradient id="paint1_linear_50_686" x1="18.3135" y1="19.8577" x2="25.7622" y2="19.8577" gradientUnits="userSpaceOnUse">
<stop stop-color="#2C8D8A"/>
<stop offset="1" stop-color="#1E585B"/>
</linearGradient>
<linearGradient id="paint2_linear_50_686" x1="0.987305" y1="12.1586" x2="15.4685" y2="12.1586" gradientUnits="userSpaceOnUse">
<stop stop-color="#2C8D8A"/>
<stop offset="1" stop-color="#1E585B"/>
</linearGradient>
<linearGradient id="paint3_linear_50_686" x1="4.60156" y1="9.7384" x2="7.00905" y2="9.7384" gradientUnits="userSpaceOnUse">
<stop stop-color="#2C8D8A"/>
<stop offset="1" stop-color="#1E585B"/>
</linearGradient>
<linearGradient id="paint4_linear_50_686" x1="9.41016" y1="14.5466" x2="11.8176" y2="14.5466" gradientUnits="userSpaceOnUse">
<stop stop-color="#2C8D8A"/>
<stop offset="1" stop-color="#1E585B"/>
</linearGradient>
<linearGradient id="paint5_linear_50_686" x1="5.20166" y1="12.141" x2="11.2144" y2="12.141" gradientUnits="userSpaceOnUse">
<stop stop-color="#2C8D8A"/>
<stop offset="1" stop-color="#1E585B"/>
</linearGradient>
<linearGradient id="paint6_linear_50_686" x1="10.605" y1="3.32783" x2="14.18" y2="3.32783" gradientUnits="userSpaceOnUse">
<stop stop-color="#2C8D8A"/>
<stop offset="1" stop-color="#1E585B"/>
</linearGradient>
<linearGradient id="paint7_linear_50_686" x1="10.6143" y1="23.6596" x2="11.6143" y2="23.6596" gradientUnits="userSpaceOnUse">
<stop stop-color="#2C8D8A"/>
<stop offset="1" stop-color="#1E585B"/>
</linearGradient>
<linearGradient id="paint8_linear_50_686" x1="8.29102" y1="3.12272" x2="11.866" y2="3.12272" gradientUnits="userSpaceOnUse">
<stop stop-color="#2C8D8A"/>
<stop offset="1" stop-color="#1E585B"/>
</linearGradient>
<linearGradient id="paint9_linear_50_686" x1="8.29102" y1="22.6067" x2="9.29102" y2="22.6067" gradientUnits="userSpaceOnUse">
<stop stop-color="#2C8D8A"/>
<stop offset="1" stop-color="#1E585B"/>
</linearGradient>
<linearGradient id="paint10_linear_50_686" x1="20.835" y1="8.53436" x2="23.2425" y2="8.53436" gradientUnits="userSpaceOnUse">
<stop stop-color="#2C8D8A"/>
<stop offset="1" stop-color="#1E585B"/>
</linearGradient>
<linearGradient id="paint11_linear_50_686" x1="3.39795" y1="25.4395" x2="12.2767" y2="25.4395" gradientUnits="userSpaceOnUse">
<stop stop-color="#2C8D8A"/>
<stop offset="1" stop-color="#1E585B"/>
</linearGradient>
<linearGradient id="paint12_linear_50_686" x1="3.39795" y1="34.957" x2="3.83242" y2="34.957" gradientUnits="userSpaceOnUse">
<stop stop-color="#2C8D8A"/>
<stop offset="1" stop-color="#1E585B"/>
</linearGradient>
<linearGradient id="paint13_linear_50_686" x1="25.7861" y1="30.0262" x2="34.665" y2="30.0262" gradientUnits="userSpaceOnUse">
<stop stop-color="#2C8D8A"/>
<stop offset="1" stop-color="#1E585B"/>
</linearGradient>
<linearGradient id="paint14_linear_50_686" x1="3.84131" y1="32.4248" x2="34.2396" y2="32.4248" gradientUnits="userSpaceOnUse">
<stop stop-color="#2C8D8A"/>
<stop offset="1" stop-color="#1E585B"/>
</linearGradient>
<linearGradient id="paint15_linear_50_686" x1="3.52734" y1="19.6809" x2="5.13836" y2="19.6809" gradientUnits="userSpaceOnUse">
<stop stop-color="#2C8D8A"/>
<stop offset="1" stop-color="#1E585B"/>
</linearGradient>
<linearGradient id="paint16_linear_50_686" x1="31.0566" y1="18.6764" x2="34.5352" y2="18.6764" gradientUnits="userSpaceOnUse">
<stop stop-color="#2C8D8A"/>
<stop offset="1" stop-color="#1E585B"/>
</linearGradient>
<linearGradient id="paint17_linear_50_686" x1="15.4111" y1="15.242" x2="28.6524" y2="15.242" gradientUnits="userSpaceOnUse">
<stop stop-color="#2C8D8A"/>
<stop offset="1" stop-color="#1E585B"/>
</linearGradient>
<linearGradient id="paint18_linear_50_686" x1="28.6523" y1="20.7592" x2="29.6523" y2="20.7592" gradientUnits="userSpaceOnUse">
<stop stop-color="#2C8D8A"/>
<stop offset="1" stop-color="#1E585B"/>
</linearGradient>
<linearGradient id="paint19_linear_50_686" x1="15.4175" y1="19.3552" x2="28.6496" y2="19.3552" gradientUnits="userSpaceOnUse">
<stop stop-color="#2C8D8A"/>
<stop offset="1" stop-color="#1E585B"/>
</linearGradient>
<linearGradient id="paint20_linear_50_686" x1="13.0186" y1="23.4468" x2="14.0186" y2="23.4468" gradientUnits="userSpaceOnUse">
<stop stop-color="#2C8D8A"/>
<stop offset="1" stop-color="#1E585B"/>
</linearGradient>
<linearGradient id="paint21_linear_50_686" x1="13.0186" y1="12.8934" x2="31.0566" y2="12.8934" gradientUnits="userSpaceOnUse">
<stop stop-color="#2C8D8A"/>
<stop offset="1" stop-color="#1E585B"/>
</linearGradient>
</defs>
</svg>
