<svg width="34" height="40" viewBox="0 0 34 40" fill="none" xmlns="http://www.w3.org/2000/svg">
<path d="M33.0281 6.30856H28.4529C28.2479 6.30856 28.0511 6.22732 27.9058 6.08263C27.7605 5.93793 27.6785 5.74159 27.6777 5.53656V0.961792" stroke="url(#paint0_linear_50_817)" stroke-width="0.983514" stroke-linecap="round" stroke-linejoin="round"/>
<path d="M4.68066 16.4867V17.714C4.68146 17.9191 4.76347 18.1155 4.90874 18.2602C5.05402 18.4048 5.25078 18.486 5.45583 18.486H16.7327C16.9375 18.486 17.1337 18.4047 17.2785 18.26C17.4233 18.1152 17.5047 17.9188 17.5047 17.714V12.6658C17.5047 11.986 17.2346 11.334 16.7539 10.8533C16.2731 10.3726 15.6211 10.1025 14.9412 10.1025H12.8721" stroke="url(#paint1_linear_50_817)" stroke-width="0.983514" stroke-linecap="round" stroke-linejoin="round"/>
<path d="M9.31622 10.1025H7.24732C6.56713 10.1025 5.91481 10.3725 5.43356 10.8531C4.95231 11.3337 4.68146 11.9857 4.68066 12.6658V13.7786" stroke="url(#paint2_linear_50_817)" stroke-width="0.983514" stroke-linecap="round" stroke-linejoin="round"/>
<path d="M9.39746 10.1506L10.4591 12.9431H11.7257L12.7603 10.1687" stroke="url(#paint3_linear_50_817)" stroke-width="0.983514" stroke-linecap="round" stroke-linejoin="round"/>
<path d="M12.8239 18.4857L11.7261 12.9399H10.4594L9.33447 18.4857H12.8239Z" stroke="url(#paint4_linear_50_817)" stroke-width="0.983514" stroke-linecap="round" stroke-linejoin="round"/>
<path d="M20.2915 9.97235H29.7738" stroke="url(#paint5_linear_50_817)" stroke-width="0.983514" stroke-linecap="round" stroke-linejoin="round"/>
<path d="M20.2915 12.8105H29.7738" stroke="url(#paint6_linear_50_817)" stroke-width="0.983514" stroke-linecap="round" stroke-linejoin="round"/>
<path d="M20.2915 15.6479H29.7738" stroke="url(#paint7_linear_50_817)" stroke-width="0.983514" stroke-linecap="round" stroke-linejoin="round"/>
<path d="M20.2915 18.4861H24.1671" stroke="url(#paint8_linear_50_817)" stroke-width="0.983514" stroke-linecap="round" stroke-linejoin="round"/>
<path d="M5.46191 30.3677H28.9927" stroke="url(#paint9_linear_50_817)" stroke-width="0.983514" stroke-linecap="round" stroke-linejoin="round"/>
<path d="M2.13508 0.8927H27.3578C27.5626 0.892731 27.759 0.974125 27.9038 1.11891L32.8711 6.0827C32.9431 6.15473 33.0003 6.24029 33.0391 6.33449C33.078 6.42869 33.0977 6.52964 33.0973 6.63152V38.5977C33.0973 38.8032 33.0157 39.0004 32.8703 39.1457C32.725 39.2911 32.5279 39.3727 32.3223 39.3727H2.13508C1.92951 39.3727 1.73243 39.2911 1.58707 39.1457C1.44171 39.0004 1.35992 38.8032 1.35992 38.5977V1.6768C1.35872 1.57427 1.37801 1.4725 1.41643 1.37743C1.45485 1.28235 1.51166 1.19584 1.58376 1.12292C1.65585 1.04999 1.74168 0.99208 1.83632 0.952566C1.93096 0.913053 2.03253 0.892693 2.13508 0.8927Z" stroke="url(#paint10_linear_50_817)" stroke-width="0.983514" stroke-linecap="round" stroke-linejoin="round"/>
<path d="M11.0956 10.5934C13.0162 10.5934 14.5731 9.03668 14.5731 7.11635C14.5731 5.19602 13.0162 3.63928 11.0956 3.63928C9.17507 3.63928 7.61816 5.19602 7.61816 7.11635C7.61816 9.03668 9.17507 10.5934 11.0956 10.5934Z" stroke="url(#paint11_linear_50_817)" stroke-width="0.983514" stroke-linecap="round" stroke-linejoin="round"/>
<path d="M20.2915 3.8565V5.92223C20.2915 5.97318 20.3016 6.02365 20.3211 6.07068C20.3407 6.11771 20.3695 6.16037 20.4056 6.19625C20.4418 6.23214 20.4847 6.2605 20.5319 6.27973C20.5791 6.29895 20.6295 6.30865 20.6805 6.30825H24.6587C24.7096 6.30865 24.76 6.29895 24.8072 6.27973C24.8544 6.2605 24.8973 6.23214 24.9335 6.19625C24.9697 6.16037 24.9984 6.11771 25.018 6.07068C25.0376 6.02365 25.0476 5.97318 25.0476 5.92223V3.8565C25.0468 3.75385 25.0055 3.65571 24.9326 3.5834C24.8597 3.5111 24.7613 3.47052 24.6587 3.47052H20.6926C20.6408 3.46892 20.5892 3.47765 20.5408 3.49629C20.4923 3.51493 20.4482 3.54306 20.4108 3.57903C20.3734 3.61499 20.3435 3.65811 20.323 3.70576C20.3025 3.75341 20.2919 3.80464 20.2915 3.8565Z" stroke="url(#paint12_linear_50_817)" stroke-width="0.983514" stroke-linecap="round" stroke-linejoin="round"/>
<path d="M7.72395 33.3588H5.08495C4.98176 33.3588 4.88271 33.3997 4.80975 33.4727C4.73678 33.5457 4.6958 33.6446 4.6958 33.7478V35.2948C4.6958 35.3458 4.70585 35.3962 4.72544 35.4433C4.74503 35.4903 4.77376 35.533 4.80993 35.5688C4.8461 35.6047 4.88903 35.6331 4.93621 35.6523C4.9834 35.6715 5.034 35.6812 5.08495 35.6808H20.3851V33.3588H10.4322" stroke="url(#paint13_linear_50_817)" stroke-width="0.983514" stroke-linecap="round" stroke-linejoin="round"/>
<path d="M26.64 33.3588H23.5063V35.6808H26.64V33.3588Z" stroke="url(#paint14_linear_50_817)" stroke-width="0.983514" stroke-linecap="round" stroke-linejoin="round"/>
<path d="M26.6401 33.3588H29.3877C29.4387 33.3588 29.4891 33.3689 29.5361 33.3884C29.5831 33.408 29.626 33.4367 29.6618 33.4729C29.6977 33.509 29.726 33.552 29.7452 33.5991C29.7645 33.6463 29.7742 33.6968 29.7738 33.7478V35.2948C29.7738 35.3972 29.7331 35.4954 29.6607 35.5678C29.5883 35.6402 29.4901 35.6808 29.3877 35.6808H26.6401V33.3588Z" stroke="url(#paint15_linear_50_817)" stroke-width="0.983514" stroke-linecap="round" stroke-linejoin="round"/>
<path d="M23.5033 33.3588H20.3696V35.6808H23.5033V33.3588Z" stroke="url(#paint16_linear_50_817)" stroke-width="0.983514" stroke-linecap="round" stroke-linejoin="round"/>
<path d="M7.3528 30.3675H5.06981C5.01886 30.3679 4.96826 30.3582 4.92108 30.339C4.87389 30.3198 4.83096 30.2914 4.79479 30.2555C4.75863 30.2196 4.72989 30.1769 4.7103 30.1299C4.69071 30.0829 4.68066 30.0325 4.68066 29.9815V21.9839C4.68066 21.8807 4.72165 21.7818 4.79461 21.7088C4.86757 21.6359 4.96663 21.5949 5.06981 21.5949H6.96383C7.06702 21.5949 7.16589 21.6359 7.23885 21.7088C7.31181 21.7818 7.3528 21.8807 7.3528 21.9839V30.3675Z" stroke="url(#paint17_linear_50_817)" stroke-width="0.983514" stroke-linecap="round" stroke-linejoin="round"/>
<path d="M12.9563 30.3678H10.2871V24.3696C10.2871 24.2672 10.3277 24.1691 10.4001 24.0967C10.4725 24.0243 10.5707 23.9836 10.6731 23.9836H12.5703C12.6727 23.9836 12.7709 24.0243 12.8433 24.0967C12.9157 24.1691 12.9563 24.2672 12.9563 24.3696V30.3678Z" stroke="url(#paint18_linear_50_817)" stroke-width="0.983514" stroke-linecap="round" stroke-linejoin="round"/>
<path d="M18.5632 30.3675H15.8941V26.7306C15.8937 26.6797 15.9034 26.6292 15.9226 26.582C15.9418 26.5348 15.9701 26.4919 16.006 26.4557C16.0419 26.4196 16.0847 26.3908 16.1317 26.3712C16.1787 26.3517 16.2291 26.3416 16.2801 26.3416H18.1772C18.2282 26.3416 18.2786 26.3517 18.3256 26.3712C18.3726 26.3908 18.4152 26.4196 18.4511 26.4557C18.487 26.4919 18.5155 26.5348 18.5347 26.582C18.5539 26.6292 18.5636 26.6797 18.5632 26.7306V30.3675Z" stroke="url(#paint19_linear_50_817)" stroke-width="0.983514" stroke-linecap="round" stroke-linejoin="round"/>
<path d="M24.1702 30.3679H21.501V22.0477C21.501 21.9453 21.5416 21.8471 21.614 21.7748C21.6864 21.7024 21.7846 21.6617 21.887 21.6617H23.781C23.832 21.6613 23.8826 21.671 23.9298 21.6902C23.9769 21.7094 24.0199 21.7378 24.056 21.7737C24.0922 21.8096 24.1208 21.8522 24.1403 21.8993C24.1599 21.9463 24.1702 21.9967 24.1702 22.0477V30.3679Z" stroke="url(#paint20_linear_50_817)" stroke-width="0.983514" stroke-linecap="round" stroke-linejoin="round"/>
<path d="M27.1045 25.6996V30.3678H29.3877C29.49 30.3678 29.5883 30.3272 29.6607 30.2548C29.7331 30.1824 29.7737 30.0842 29.7737 29.9818V18.8661C29.7741 18.8151 29.7644 18.7646 29.7451 18.7174C29.7259 18.6703 29.6976 18.6273 29.6618 18.5912C29.6259 18.555 29.5831 18.5263 29.536 18.5067C29.489 18.4871 29.4386 18.477 29.3877 18.4771H27.4936C27.3905 18.4771 27.2914 18.518 27.2184 18.591C27.1455 18.6639 27.1045 18.7629 27.1045 18.8661V22.9794" stroke="url(#paint21_linear_50_817)" stroke-width="0.983514" stroke-linecap="round" stroke-linejoin="round"/>
<defs>
<linearGradient id="paint0_linear_50_817" x1="27.6777" y1="3.63518" x2="33.0281" y2="3.63518" gradientUnits="userSpaceOnUse">
<stop stop-color="#2C8D8A"/>
<stop offset="1" stop-color="#1E585B"/>
</linearGradient>
<linearGradient id="paint1_linear_50_817" x1="4.68066" y1="14.2943" x2="17.5047" y2="14.2943" gradientUnits="userSpaceOnUse">
<stop stop-color="#2C8D8A"/>
<stop offset="1" stop-color="#1E585B"/>
</linearGradient>
<linearGradient id="paint2_linear_50_817" x1="4.68066" y1="11.9405" x2="9.31622" y2="11.9405" gradientUnits="userSpaceOnUse">
<stop stop-color="#2C8D8A"/>
<stop offset="1" stop-color="#1E585B"/>
</linearGradient>
<linearGradient id="paint3_linear_50_817" x1="9.39746" y1="11.5469" x2="12.7603" y2="11.5469" gradientUnits="userSpaceOnUse">
<stop stop-color="#2C8D8A"/>
<stop offset="1" stop-color="#1E585B"/>
</linearGradient>
<linearGradient id="paint4_linear_50_817" x1="9.33447" y1="15.7128" x2="12.8239" y2="15.7128" gradientUnits="userSpaceOnUse">
<stop stop-color="#2C8D8A"/>
<stop offset="1" stop-color="#1E585B"/>
</linearGradient>
<linearGradient id="paint5_linear_50_817" x1="20.2915" y1="10.4724" x2="29.7738" y2="10.4724" gradientUnits="userSpaceOnUse">
<stop stop-color="#2C8D8A"/>
<stop offset="1" stop-color="#1E585B"/>
</linearGradient>
<linearGradient id="paint6_linear_50_817" x1="20.2915" y1="13.3105" x2="29.7738" y2="13.3105" gradientUnits="userSpaceOnUse">
<stop stop-color="#2C8D8A"/>
<stop offset="1" stop-color="#1E585B"/>
</linearGradient>
<linearGradient id="paint7_linear_50_817" x1="20.2915" y1="16.1479" x2="29.7738" y2="16.1479" gradientUnits="userSpaceOnUse">
<stop stop-color="#2C8D8A"/>
<stop offset="1" stop-color="#1E585B"/>
</linearGradient>
<linearGradient id="paint8_linear_50_817" x1="20.2915" y1="18.9861" x2="24.1671" y2="18.9861" gradientUnits="userSpaceOnUse">
<stop stop-color="#2C8D8A"/>
<stop offset="1" stop-color="#1E585B"/>
</linearGradient>
<linearGradient id="paint9_linear_50_817" x1="5.46191" y1="30.8677" x2="28.9927" y2="30.8677" gradientUnits="userSpaceOnUse">
<stop stop-color="#2C8D8A"/>
<stop offset="1" stop-color="#1E585B"/>
</linearGradient>
<linearGradient id="paint10_linear_50_817" x1="1.35986" y1="20.1327" x2="33.0973" y2="20.1327" gradientUnits="userSpaceOnUse">
<stop stop-color="#2C8D8A"/>
<stop offset="1" stop-color="#1E585B"/>
</linearGradient>
<linearGradient id="paint11_linear_50_817" x1="7.61816" y1="7.11635" x2="14.5731" y2="7.11635" gradientUnits="userSpaceOnUse">
<stop stop-color="#2C8D8A"/>
<stop offset="1" stop-color="#1E585B"/>
</linearGradient>
<linearGradient id="paint12_linear_50_817" x1="20.2915" y1="4.8893" x2="25.0476" y2="4.8893" gradientUnits="userSpaceOnUse">
<stop stop-color="#2C8D8A"/>
<stop offset="1" stop-color="#1E585B"/>
</linearGradient>
<linearGradient id="paint13_linear_50_817" x1="4.6958" y1="34.5198" x2="20.3851" y2="34.5198" gradientUnits="userSpaceOnUse">
<stop stop-color="#2C8D8A"/>
<stop offset="1" stop-color="#1E585B"/>
</linearGradient>
<linearGradient id="paint14_linear_50_817" x1="23.5063" y1="34.5198" x2="26.64" y2="34.5198" gradientUnits="userSpaceOnUse">
<stop stop-color="#2C8D8A"/>
<stop offset="1" stop-color="#1E585B"/>
</linearGradient>
<linearGradient id="paint15_linear_50_817" x1="26.6401" y1="34.5198" x2="29.7738" y2="34.5198" gradientUnits="userSpaceOnUse">
<stop stop-color="#2C8D8A"/>
<stop offset="1" stop-color="#1E585B"/>
</linearGradient>
<linearGradient id="paint16_linear_50_817" x1="20.3696" y1="34.5198" x2="23.5033" y2="34.5198" gradientUnits="userSpaceOnUse">
<stop stop-color="#2C8D8A"/>
<stop offset="1" stop-color="#1E585B"/>
</linearGradient>
<linearGradient id="paint17_linear_50_817" x1="4.68066" y1="25.9812" x2="7.3528" y2="25.9812" gradientUnits="userSpaceOnUse">
<stop stop-color="#2C8D8A"/>
<stop offset="1" stop-color="#1E585B"/>
</linearGradient>
<linearGradient id="paint18_linear_50_817" x1="10.2871" y1="27.1757" x2="12.9563" y2="27.1757" gradientUnits="userSpaceOnUse">
<stop stop-color="#2C8D8A"/>
<stop offset="1" stop-color="#1E585B"/>
</linearGradient>
<linearGradient id="paint19_linear_50_817" x1="15.894" y1="28.3546" x2="18.5633" y2="28.3546" gradientUnits="userSpaceOnUse">
<stop stop-color="#2C8D8A"/>
<stop offset="1" stop-color="#1E585B"/>
</linearGradient>
<linearGradient id="paint20_linear_50_817" x1="21.501" y1="26.0148" x2="24.1702" y2="26.0148" gradientUnits="userSpaceOnUse">
<stop stop-color="#2C8D8A"/>
<stop offset="1" stop-color="#1E585B"/>
</linearGradient>
<linearGradient id="paint21_linear_50_817" x1="27.1045" y1="24.4224" x2="29.7737" y2="24.4224" gradientUnits="userSpaceOnUse">
<stop stop-color="#2C8D8A"/>
<stop offset="1" stop-color="#1E585B"/>
</linearGradient>
</defs>
</svg>
