<svg width="40" height="41" viewBox="0 0 40 41" fill="none" xmlns="http://www.w3.org/2000/svg">
<path d="M28.2754 30.7492L26.1797 28.6537" stroke="url(#paint0_linear_50_732)" stroke-width="0.983514" stroke-linecap="round" stroke-linejoin="round"/>
<path d="M27.8135 26.999L29.9334 29.1187" stroke="url(#paint1_linear_50_732)" stroke-width="0.983514" stroke-linecap="round" stroke-linejoin="round"/>
<path d="M17.5584 15.83H18.3314C19.1534 15.83 19.9417 16.1563 20.5232 16.7372C21.1047 17.3181 21.432 18.1061 21.4328 18.928V23.2699C21.432 23.5577 21.317 23.8333 21.1132 24.0365C20.9094 24.2397 20.6333 24.3539 20.3455 24.3539H11.6668C11.379 24.3539 11.103 24.2397 10.8992 24.0365C10.6954 23.8333 10.5804 23.5577 10.5796 23.2699V18.928C10.5804 18.1061 10.9076 17.3181 11.4892 16.7372C12.0707 16.1563 12.859 15.83 13.681 15.83H14.454" stroke="url(#paint2_linear_50_732)" stroke-width="0.983514" stroke-linecap="round" stroke-linejoin="round"/>
<path d="M17.0745 16.1861L17.5517 19.9665C17.5713 20.1121 17.554 20.2604 17.5012 20.3976C17.4484 20.5348 17.362 20.6565 17.2498 20.7515L16.3166 21.5094C16.2317 21.5796 16.1249 21.618 16.0147 21.618C15.9045 21.618 15.7976 21.5796 15.7126 21.5094L14.7797 20.7515C14.6675 20.6565 14.5808 20.5348 14.5281 20.3976C14.4753 20.2604 14.4579 20.1121 14.4776 19.9665L14.9577 16.1559" stroke="url(#paint3_linear_50_732)" stroke-width="0.983514" stroke-linecap="round" stroke-linejoin="round"/>
<path d="M13.4062 13.7011V11.9196C13.4062 11.2301 13.6802 10.5688 14.1678 10.0813C14.6554 9.59374 15.3166 9.31989 16.0062 9.31989C16.6957 9.31989 17.3571 9.59374 17.8447 10.0813C18.3323 10.5688 18.6062 11.2301 18.6062 11.9196V13.692C18.6062 14.0341 18.5387 14.3728 18.4077 14.6888C18.2767 15.0048 18.0849 15.2917 17.8428 15.5335C17.6008 15.7752 17.3134 15.9669 16.9972 16.0975C16.681 16.2281 16.3423 16.2952 16.0003 16.2948C15.3125 16.294 14.6532 16.0205 14.1669 15.5342C13.6806 15.048 13.407 14.3887 13.4062 13.7011Z" stroke="url(#paint4_linear_50_732)" stroke-width="0.983514" stroke-linecap="round" stroke-linejoin="round"/>
<path d="M13.5117 12.1758H18.4732" stroke="url(#paint5_linear_50_732)" stroke-width="0.983514" stroke-linecap="round" stroke-linejoin="round"/>
<path d="M4.6365 27.3731C2.02148 24.5352 0.559286 20.8239 0.535929 16.9651C0.512572 13.1063 1.92959 9.37754 4.51007 6.50815C7.09054 3.63875 10.6489 1.83507 14.4889 1.44988C18.3289 1.06469 22.1745 2.12569 25.2736 4.42537" stroke="url(#paint6_linear_50_732)" stroke-width="0.983514" stroke-linecap="round" stroke-linejoin="round"/>
<path d="M18.8297 32.0806C17.8983 32.252 16.953 32.3379 16.006 32.3373H15.8823" stroke="url(#paint7_linear_50_732)" stroke-width="0.983514" stroke-linecap="round" stroke-linejoin="round"/>
<path d="M31.5066 17.0739C31.4583 20.1916 30.4711 23.2224 28.6741 25.7707C26.877 28.319 24.3534 30.2664 21.4326 31.3588" stroke="url(#paint8_linear_50_732)" stroke-width="0.983514" stroke-linecap="round" stroke-linejoin="round"/>
<path d="M8.04308 27.3283C5.35587 25.2046 3.60154 22.1178 3.15236 18.7225C2.70318 15.3273 3.59453 11.8906 5.63707 9.1413C7.67962 6.39201 10.7128 4.54641 14.0935 3.99586C17.4742 3.44531 20.9364 4.23313 23.7459 6.19225" stroke="url(#paint9_linear_50_732)" stroke-width="0.983514" stroke-linecap="round" stroke-linejoin="round"/>
<path d="M29.1814 17.0645C29.1173 20.5175 27.7016 23.8077 25.2382 26.2285C22.7748 28.6493 19.46 30.0077 16.006 30.0119H15.8823" stroke="url(#paint10_linear_50_732)" stroke-width="0.983514" stroke-linecap="round" stroke-linejoin="round"/>
<path d="M37.5943 34.439L38.6541 35.4987C38.7719 35.6165 38.8653 35.7563 38.9291 35.9102C38.9928 36.064 39.0256 36.229 39.0256 36.3955C39.0256 36.5621 38.9928 36.7271 38.9291 36.8809C38.8653 37.0348 38.7719 37.1746 38.6541 37.2924L36.4619 39.4814C36.3443 39.5991 36.2047 39.6925 36.051 39.7562C35.8974 39.8199 35.7328 39.8526 35.5665 39.8526C35.4002 39.8526 35.2354 39.8199 35.0817 39.7562C34.9281 39.6925 34.7886 39.5991 34.6711 39.4814L33.6353 38.4488" stroke="url(#paint11_linear_50_732)" stroke-width="0.983514" stroke-linecap="round" stroke-linejoin="round"/>
<path d="M29.0815 33.8956L28.064 32.8781C27.9462 32.7603 27.8527 32.6205 27.789 32.4666C27.7252 32.3128 27.6924 32.1479 27.6924 31.9813C27.6924 31.8148 27.7252 31.6498 27.789 31.496C27.8527 31.3421 27.9462 31.2023 28.064 31.0845L30.2563 28.8954C30.3739 28.7777 30.5134 28.6843 30.667 28.6206C30.8206 28.5569 30.9852 28.5242 31.1516 28.5242C31.3179 28.5242 31.4827 28.5569 31.6363 28.6206C31.7899 28.6843 31.9294 28.7777 32.0469 28.8954L33.0406 29.8858" stroke="url(#paint12_linear_50_732)" stroke-width="0.983514" stroke-linecap="round" stroke-linejoin="round"/>
<path d="M32.9107 38.4065L29.0907 34.5868C29.0138 34.5093 28.9707 34.4046 28.9707 34.2955C28.9707 34.1863 29.0138 34.0816 29.0907 34.0041L33.1736 29.9218C33.2118 29.883 33.2573 29.8521 33.3076 29.831C33.3579 29.8099 33.4119 29.799 33.4664 29.799C33.521 29.799 33.5748 29.8099 33.6251 29.831C33.6754 29.8521 33.7211 29.883 33.7593 29.9218L37.5794 33.7414C37.6563 33.8189 37.6994 33.9237 37.6994 34.0328C37.6994 34.142 37.6563 34.2467 37.5794 34.3242L33.4967 38.4065C33.4584 38.4454 33.4128 38.4762 33.3625 38.4973C33.3122 38.5184 33.2581 38.5293 33.2036 38.5293C33.1491 38.5293 33.0952 38.5184 33.0449 38.4973C32.9946 38.4762 32.949 38.4454 32.9107 38.4065Z" stroke="url(#paint13_linear_50_732)" stroke-width="0.983514" stroke-linecap="round" stroke-linejoin="round"/>
<path d="M32.5787 4.51001H34.6109C35.0292 4.51001 35.4306 4.67598 35.7267 4.97148C36.0228 5.26698 36.1895 5.66787 36.1903 6.08617V15.3287C36.1903 15.5361 36.1495 15.7414 36.0701 15.933C35.9907 16.1246 35.8743 16.2987 35.7276 16.4453C35.581 16.592 35.4069 16.7083 35.2152 16.7876C35.0236 16.867 34.8183 16.9079 34.6109 16.9079H25.3675C25.1601 16.9079 24.9547 16.867 24.7631 16.7876C24.5715 16.7083 24.3974 16.592 24.2507 16.4453C24.1041 16.2987 23.9876 16.1246 23.9083 15.933C23.8289 15.7414 23.7881 15.5361 23.7881 15.3287V6.08617C23.7889 5.66787 23.9557 5.26698 24.2518 4.97148C24.5479 4.67598 24.9491 4.51001 25.3675 4.51001H29.7642" stroke="url(#paint14_linear_50_732)" stroke-width="0.983514" stroke-linecap="round" stroke-linejoin="round"/>
<path d="M14.17 39.8526H4.92654C4.50767 39.8526 4.10597 39.6862 3.80979 39.39C3.51361 39.0939 3.34717 38.6922 3.34717 38.2734V29.0339C3.34717 28.6151 3.51361 28.2134 3.80979 27.9173C4.10597 27.6211 4.50767 27.4547 4.92654 27.4547H14.17C14.3774 27.4547 14.5827 27.4956 14.7743 27.575C14.9659 27.6543 15.1401 27.7706 15.2867 27.9173C15.4334 28.0639 15.5498 28.238 15.6292 28.4296C15.7085 28.6212 15.7493 28.8265 15.7493 29.0339V38.2734C15.7493 38.4808 15.7085 38.6861 15.6292 38.8777C15.5498 39.0693 15.4334 39.2434 15.2867 39.39C15.1401 39.5367 14.9659 39.653 14.7743 39.7323C14.5827 39.8117 14.3774 39.8526 14.17 39.8526Z" stroke="url(#paint15_linear_50_732)" stroke-width="0.983514" stroke-linecap="round" stroke-linejoin="round"/>
<path d="M27.2729 10.6094L29.4956 12.3455L32.7085 8.80072" stroke="url(#paint16_linear_50_732)" stroke-width="0.983514" stroke-linecap="round" stroke-linejoin="round"/>
<path d="M6.52441 31.3291H10.8668" stroke="url(#paint17_linear_50_732)" stroke-width="0.983514" stroke-linecap="round" stroke-linejoin="round"/>
<path d="M6.52441 33.6541H13.3068" stroke="url(#paint18_linear_50_732)" stroke-width="0.983514" stroke-linecap="round" stroke-linejoin="round"/>
<path d="M6.52441 35.9795H11.8513" stroke="url(#paint19_linear_50_732)" stroke-width="0.983514" stroke-linecap="round" stroke-linejoin="round"/>
<defs>
<linearGradient id="paint0_linear_50_732" x1="26.1797" y1="29.7014" x2="28.2754" y2="29.7014" gradientUnits="userSpaceOnUse">
<stop stop-color="#2C8D8A"/>
<stop offset="1" stop-color="#1E585B"/>
</linearGradient>
<linearGradient id="paint1_linear_50_732" x1="27.8135" y1="28.0588" x2="29.9334" y2="28.0588" gradientUnits="userSpaceOnUse">
<stop stop-color="#2C8D8A"/>
<stop offset="1" stop-color="#1E585B"/>
</linearGradient>
<linearGradient id="paint2_linear_50_732" x1="10.5796" y1="20.092" x2="21.4328" y2="20.092" gradientUnits="userSpaceOnUse">
<stop stop-color="#2C8D8A"/>
<stop offset="1" stop-color="#1E585B"/>
</linearGradient>
<linearGradient id="paint3_linear_50_732" x1="14.4697" y1="18.887" x2="17.5595" y2="18.887" gradientUnits="userSpaceOnUse">
<stop stop-color="#2C8D8A"/>
<stop offset="1" stop-color="#1E585B"/>
</linearGradient>
<linearGradient id="paint4_linear_50_732" x1="13.4062" y1="12.8073" x2="18.6062" y2="12.8073" gradientUnits="userSpaceOnUse">
<stop stop-color="#2C8D8A"/>
<stop offset="1" stop-color="#1E585B"/>
</linearGradient>
<linearGradient id="paint5_linear_50_732" x1="13.5117" y1="12.6758" x2="18.4732" y2="12.6758" gradientUnits="userSpaceOnUse">
<stop stop-color="#2C8D8A"/>
<stop offset="1" stop-color="#1E585B"/>
</linearGradient>
<linearGradient id="paint6_linear_50_732" x1="0.535645" y1="14.3728" x2="25.2736" y2="14.3728" gradientUnits="userSpaceOnUse">
<stop stop-color="#2C8D8A"/>
<stop offset="1" stop-color="#1E585B"/>
</linearGradient>
<linearGradient id="paint7_linear_50_732" x1="15.8823" y1="32.2089" x2="18.8297" y2="32.2089" gradientUnits="userSpaceOnUse">
<stop stop-color="#2C8D8A"/>
<stop offset="1" stop-color="#1E585B"/>
</linearGradient>
<linearGradient id="paint8_linear_50_732" x1="21.4326" y1="24.2163" x2="31.5066" y2="24.2163" gradientUnits="userSpaceOnUse">
<stop stop-color="#2C8D8A"/>
<stop offset="1" stop-color="#1E585B"/>
</linearGradient>
<linearGradient id="paint9_linear_50_732" x1="3.03857" y1="15.5764" x2="23.7459" y2="15.5764" gradientUnits="userSpaceOnUse">
<stop stop-color="#2C8D8A"/>
<stop offset="1" stop-color="#1E585B"/>
</linearGradient>
<linearGradient id="paint10_linear_50_732" x1="15.8823" y1="23.5382" x2="29.1814" y2="23.5382" gradientUnits="userSpaceOnUse">
<stop stop-color="#2C8D8A"/>
<stop offset="1" stop-color="#1E585B"/>
</linearGradient>
<linearGradient id="paint11_linear_50_732" x1="33.6353" y1="37.1458" x2="39.0256" y2="37.1458" gradientUnits="userSpaceOnUse">
<stop stop-color="#2C8D8A"/>
<stop offset="1" stop-color="#1E585B"/>
</linearGradient>
<linearGradient id="paint12_linear_50_732" x1="27.6924" y1="31.2099" x2="33.0406" y2="31.2099" gradientUnits="userSpaceOnUse">
<stop stop-color="#2C8D8A"/>
<stop offset="1" stop-color="#1E585B"/>
</linearGradient>
<linearGradient id="paint13_linear_50_732" x1="28.9707" y1="34.1642" x2="37.6994" y2="34.1642" gradientUnits="userSpaceOnUse">
<stop stop-color="#2C8D8A"/>
<stop offset="1" stop-color="#1E585B"/>
</linearGradient>
<linearGradient id="paint14_linear_50_732" x1="23.7881" y1="10.709" x2="36.1903" y2="10.709" gradientUnits="userSpaceOnUse">
<stop stop-color="#2C8D8A"/>
<stop offset="1" stop-color="#1E585B"/>
</linearGradient>
<linearGradient id="paint15_linear_50_732" x1="3.34717" y1="33.6537" x2="15.7493" y2="33.6537" gradientUnits="userSpaceOnUse">
<stop stop-color="#2C8D8A"/>
<stop offset="1" stop-color="#1E585B"/>
</linearGradient>
<linearGradient id="paint16_linear_50_732" x1="27.2729" y1="10.5731" x2="32.7085" y2="10.5731" gradientUnits="userSpaceOnUse">
<stop stop-color="#2C8D8A"/>
<stop offset="1" stop-color="#1E585B"/>
</linearGradient>
<linearGradient id="paint17_linear_50_732" x1="6.52441" y1="31.8291" x2="10.8668" y2="31.8291" gradientUnits="userSpaceOnUse">
<stop stop-color="#2C8D8A"/>
<stop offset="1" stop-color="#1E585B"/>
</linearGradient>
<linearGradient id="paint18_linear_50_732" x1="6.52441" y1="34.1541" x2="13.3068" y2="34.1541" gradientUnits="userSpaceOnUse">
<stop stop-color="#2C8D8A"/>
<stop offset="1" stop-color="#1E585B"/>
</linearGradient>
<linearGradient id="paint19_linear_50_732" x1="6.52441" y1="36.4795" x2="11.8513" y2="36.4795" gradientUnits="userSpaceOnUse">
<stop stop-color="#2C8D8A"/>
<stop offset="1" stop-color="#1E585B"/>
</linearGradient>
</defs>
</svg>
