<svg width="41" height="41" viewBox="0 0 41 41" fill="none" xmlns="http://www.w3.org/2000/svg">
<path d="M14.1252 21.5371L9.92529 18.6406" stroke="url(#paint0_linear_50_790)" stroke-width="0.983514" stroke-linecap="round" stroke-linejoin="round"/>
<path d="M24.9312 26.3671V28.1002" stroke="url(#paint1_linear_50_790)" stroke-width="0.983514" stroke-linecap="round" stroke-linejoin="round"/>
<path d="M36.707 26.3671V34.7145" stroke="url(#paint2_linear_50_790)" stroke-width="0.983514" stroke-linecap="round" stroke-linejoin="round"/>
<path d="M6.91309 7.32367H21.5674" stroke="url(#paint3_linear_50_790)" stroke-width="0.983514" stroke-linecap="round" stroke-linejoin="round"/>
<path d="M6.91309 11.363H21.5674" stroke="url(#paint4_linear_50_790)" stroke-width="0.983514" stroke-linecap="round" stroke-linejoin="round"/>
<path d="M6.91309 15.4235H14.21" stroke="url(#paint5_linear_50_790)" stroke-width="0.983514" stroke-linecap="round" stroke-linejoin="round"/>
<path d="M35.0493 3.88835H2.22868C2.00551 3.88755 1.79169 3.79852 1.63388 3.64072C1.47607 3.48293 1.38703 3.26913 1.38623 3.04598V2.16127C1.38703 1.93812 1.47607 1.72432 1.63388 1.56653C1.79169 1.40874 2.00551 1.31971 2.22868 1.31891H35.0493C35.2724 1.31971 35.4863 1.40874 35.6441 1.56653C35.8019 1.72432 35.8909 1.93812 35.8917 2.16127V3.04598C35.8909 3.26913 35.8019 3.48293 35.6441 3.64072C35.4863 3.79852 35.2724 3.88755 35.0493 3.88835Z" stroke="url(#paint6_linear_50_790)" stroke-width="0.983514" stroke-linecap="round" stroke-linejoin="round"/>
<path d="M3.44043 3.88867V25.5313" stroke="url(#paint7_linear_50_790)" stroke-width="0.983514" stroke-linecap="round" stroke-linejoin="round"/>
<path d="M33.8374 6.70342V3.88867" stroke="url(#paint8_linear_50_790)" stroke-width="0.983514" stroke-linecap="round" stroke-linejoin="round"/>
<path d="M5.4498 25.5312H2.22868C2.00551 25.532 1.79169 25.6211 1.63388 25.7789C1.47607 25.9367 1.38703 26.1505 1.38623 26.3736V27.2583C1.38703 27.4815 1.47607 27.6953 1.63388 27.8531C1.79169 28.0109 2.00551 28.0999 2.22868 28.1007H21.6647" stroke="url(#paint9_linear_50_790)" stroke-width="0.983514" stroke-linecap="round" stroke-linejoin="round"/>
<path d="M17.0191 25.5312H7.76172" stroke="url(#paint10_linear_50_790)" stroke-width="0.983514" stroke-linecap="round" stroke-linejoin="round"/>
<path d="M25.4887 34.0873C25.0624 34.4408 24.7898 34.9459 24.7282 35.4962L24.3039 39.2715C24.2962 39.3378 24.3027 39.4049 24.3228 39.4685C24.3429 39.5321 24.3761 39.5907 24.4204 39.6405C24.4648 39.6903 24.5192 39.7302 24.5801 39.7574C24.6409 39.7847 24.707 39.7988 24.7737 39.7988H36.8734C36.9404 39.7992 37.0066 39.7854 37.0678 39.7584C37.129 39.7313 37.1838 39.6915 37.2285 39.6417C37.2732 39.5918 37.3068 39.533 37.3271 39.4692C37.3474 39.4054 37.3539 39.338 37.3462 39.2715L36.9219 35.4962C36.8916 35.2269 36.8104 34.9657 36.6826 34.7266" stroke="url(#paint11_linear_50_790)" stroke-width="0.983514" stroke-linecap="round" stroke-linejoin="round"/>
<path d="M36.0489 19.3565L33.6247 18.8535C33.4109 18.809 33.2189 18.6923 33.081 18.5229C32.943 18.3535 32.8675 18.1418 32.8672 17.9233V17.0719" stroke="url(#paint12_linear_50_790)" stroke-width="0.983514" stroke-linecap="round" stroke-linejoin="round"/>
<path d="M28.7737 17.0384V17.9231C28.7733 18.142 28.6974 18.3539 28.5588 18.5234C28.4203 18.6928 28.2275 18.8094 28.013 18.8533L25.5889 19.3562" stroke="url(#paint13_linear_50_790)" stroke-width="0.983514" stroke-linecap="round" stroke-linejoin="round"/>
<path d="M15.0586 23.9585C15.1618 24.2314 15.3511 24.4633 15.5979 24.619L20.5221 27.7792C20.8662 27.989 21.2615 28.1002 21.6645 28.1004H24.9311V32.6968C24.9311 33.232 25.1438 33.7452 25.5222 34.1236C25.9007 34.5021 26.4139 34.7147 26.9491 34.7147H36.6885C37.1348 34.7149 37.5765 34.6255 37.9876 34.4518C38.3987 34.2781 38.7705 34.0235 39.0814 33.7034C39.3923 33.3832 39.6357 33.0039 39.7972 32.588C39.9587 32.172 40.0351 31.7278 40.0217 31.2818L39.7731 22.4526C39.7271 21.7756 39.4609 21.1323 39.015 20.6208C38.5691 20.1092 37.9679 19.7576 37.3035 19.6196L36.0308 19.356C35.796 20.5691 35.1462 21.6628 34.1929 22.4491C33.2397 23.2354 32.0424 23.6655 30.8067 23.6655C29.5709 23.6655 28.3736 23.2354 27.4204 22.4491C26.4671 21.6628 25.8174 20.5691 25.5825 19.356L24.3067 19.6196C23.6428 19.7582 23.0425 20.11 22.5972 20.6215C22.1519 21.133 21.8861 21.776 21.8402 22.4526L21.7492 23.7919C21.7412 23.9099 21.7023 24.0236 21.636 24.1216C21.5698 24.2196 21.4788 24.2983 21.3723 24.3497C21.2658 24.4011 21.1475 24.4234 21.0296 24.4143C20.9116 24.4052 20.7983 24.365 20.7009 24.2978L17.3342 21.986C17.1735 21.8771 16.9918 21.8028 16.8008 21.7679" stroke="url(#paint14_linear_50_790)" stroke-width="0.983514" stroke-linecap="round" stroke-linejoin="round"/>
<path d="M16.7799 22.8431L16.2949 23.5733C16.1432 23.8001 15.9078 23.9575 15.6402 24.0109C15.3726 24.0643 15.0948 24.0093 14.8676 23.8581L14.5011 23.6158C14.1772 23.4 13.9522 23.0644 13.8757 22.6829C13.7993 22.3013 13.8776 21.905 14.0934 21.5811C14.3092 21.2573 14.6449 21.0325 15.0265 20.9561C15.4081 20.8797 15.8044 20.9579 16.1283 21.1737L16.495 21.416C16.7218 21.5677 16.879 21.8031 16.9324 22.0707C16.9858 22.3382 16.931 22.616 16.7799 22.8431Z" stroke="url(#paint15_linear_50_790)" stroke-width="0.983514" stroke-linecap="round" stroke-linejoin="round"/>
<path d="M25.0645 12.3174V19.468" stroke="url(#paint16_linear_50_790)" stroke-width="0.983514" stroke-linecap="round" stroke-linejoin="round"/>
<path d="M36.5854 14.8717V12.3174" stroke="url(#paint17_linear_50_790)" stroke-width="0.983514" stroke-linecap="round" stroke-linejoin="round"/>
<path d="M36.5854 19.4681V17.2017" stroke="url(#paint18_linear_50_790)" stroke-width="0.983514" stroke-linecap="round" stroke-linejoin="round"/>
<path d="M27.1616 12.8237V14.1146C27.1668 14.5929 27.2725 15.0647 27.472 15.4995C27.6714 15.9343 27.9601 16.3224 28.3192 16.6384C28.9071 17.1444 29.7373 18.0928 30.8312 18.1049C31.9252 18.117 32.7556 17.1444 33.3434 16.6384C33.7026 16.3224 33.9911 15.9343 34.1905 15.4995C34.3899 15.0647 34.4957 14.5929 34.5009 14.1146V11.3118" stroke="url(#paint19_linear_50_790)" stroke-width="0.983514" stroke-linecap="round" stroke-linejoin="round"/>
<path d="M36.5855 12.3175C36.0002 12.2565 35.4424 12.0389 34.9705 11.6875C34.4985 11.3361 34.13 10.864 33.9038 10.3208C33.9038 10.3208 29.0553 14.19 25.0645 12.3175V11.3419C25.0645 9.93969 25.6216 8.59482 26.6132 7.60327C27.6049 6.61173 28.95 6.05475 30.3524 6.05475H31.2977C32.7001 6.05475 34.0452 6.61173 35.0369 7.60327C36.0285 8.59482 36.5855 9.93969 36.5855 11.3419V12.3175Z" stroke="url(#paint20_linear_50_790)" stroke-width="0.983514" stroke-linecap="round" stroke-linejoin="round"/>
<defs>
<linearGradient id="paint0_linear_50_790" x1="9.92529" y1="20.0889" x2="14.1252" y2="20.0889" gradientUnits="userSpaceOnUse">
<stop stop-color="#2C8D8A"/>
<stop offset="1" stop-color="#1E585B"/>
</linearGradient>
<linearGradient id="paint1_linear_50_790" x1="24.9312" y1="27.2337" x2="25.9312" y2="27.2337" gradientUnits="userSpaceOnUse">
<stop stop-color="#2C8D8A"/>
<stop offset="1" stop-color="#1E585B"/>
</linearGradient>
<linearGradient id="paint2_linear_50_790" x1="36.707" y1="30.5408" x2="37.707" y2="30.5408" gradientUnits="userSpaceOnUse">
<stop stop-color="#2C8D8A"/>
<stop offset="1" stop-color="#1E585B"/>
</linearGradient>
<linearGradient id="paint3_linear_50_790" x1="6.91309" y1="7.82367" x2="21.5674" y2="7.82367" gradientUnits="userSpaceOnUse">
<stop stop-color="#2C8D8A"/>
<stop offset="1" stop-color="#1E585B"/>
</linearGradient>
<linearGradient id="paint4_linear_50_790" x1="6.91309" y1="11.863" x2="21.5674" y2="11.863" gradientUnits="userSpaceOnUse">
<stop stop-color="#2C8D8A"/>
<stop offset="1" stop-color="#1E585B"/>
</linearGradient>
<linearGradient id="paint5_linear_50_790" x1="6.91309" y1="15.9235" x2="14.21" y2="15.9235" gradientUnits="userSpaceOnUse">
<stop stop-color="#2C8D8A"/>
<stop offset="1" stop-color="#1E585B"/>
</linearGradient>
<linearGradient id="paint6_linear_50_790" x1="1.38623" y1="2.60363" x2="35.8917" y2="2.60363" gradientUnits="userSpaceOnUse">
<stop stop-color="#2C8D8A"/>
<stop offset="1" stop-color="#1E585B"/>
</linearGradient>
<linearGradient id="paint7_linear_50_790" x1="3.44043" y1="14.71" x2="4.44043" y2="14.71" gradientUnits="userSpaceOnUse">
<stop stop-color="#2C8D8A"/>
<stop offset="1" stop-color="#1E585B"/>
</linearGradient>
<linearGradient id="paint8_linear_50_790" x1="33.8374" y1="5.29605" x2="34.8374" y2="5.29605" gradientUnits="userSpaceOnUse">
<stop stop-color="#2C8D8A"/>
<stop offset="1" stop-color="#1E585B"/>
</linearGradient>
<linearGradient id="paint9_linear_50_790" x1="1.38623" y1="26.816" x2="21.6647" y2="26.816" gradientUnits="userSpaceOnUse">
<stop stop-color="#2C8D8A"/>
<stop offset="1" stop-color="#1E585B"/>
</linearGradient>
<linearGradient id="paint10_linear_50_790" x1="7.76172" y1="26.0312" x2="17.0191" y2="26.0312" gradientUnits="userSpaceOnUse">
<stop stop-color="#2C8D8A"/>
<stop offset="1" stop-color="#1E585B"/>
</linearGradient>
<linearGradient id="paint11_linear_50_790" x1="24.3008" y1="36.9431" x2="37.3493" y2="36.9431" gradientUnits="userSpaceOnUse">
<stop stop-color="#2C8D8A"/>
<stop offset="1" stop-color="#1E585B"/>
</linearGradient>
<linearGradient id="paint12_linear_50_790" x1="32.8672" y1="18.2142" x2="36.0489" y2="18.2142" gradientUnits="userSpaceOnUse">
<stop stop-color="#2C8D8A"/>
<stop offset="1" stop-color="#1E585B"/>
</linearGradient>
<linearGradient id="paint13_linear_50_790" x1="25.5889" y1="18.1973" x2="28.7737" y2="18.1973" gradientUnits="userSpaceOnUse">
<stop stop-color="#2C8D8A"/>
<stop offset="1" stop-color="#1E585B"/>
</linearGradient>
<linearGradient id="paint14_linear_50_790" x1="15.0586" y1="27.0353" x2="40.0232" y2="27.0353" gradientUnits="userSpaceOnUse">
<stop stop-color="#2C8D8A"/>
<stop offset="1" stop-color="#1E585B"/>
</linearGradient>
<linearGradient id="paint15_linear_50_790" x1="13.8472" y1="22.4791" x2="16.9524" y2="22.4791" gradientUnits="userSpaceOnUse">
<stop stop-color="#2C8D8A"/>
<stop offset="1" stop-color="#1E585B"/>
</linearGradient>
<linearGradient id="paint16_linear_50_790" x1="25.0645" y1="15.8927" x2="26.0645" y2="15.8927" gradientUnits="userSpaceOnUse">
<stop stop-color="#2C8D8A"/>
<stop offset="1" stop-color="#1E585B"/>
</linearGradient>
<linearGradient id="paint17_linear_50_790" x1="36.5854" y1="13.5945" x2="37.5854" y2="13.5945" gradientUnits="userSpaceOnUse">
<stop stop-color="#2C8D8A"/>
<stop offset="1" stop-color="#1E585B"/>
</linearGradient>
<linearGradient id="paint18_linear_50_790" x1="36.5854" y1="18.3349" x2="37.5854" y2="18.3349" gradientUnits="userSpaceOnUse">
<stop stop-color="#2C8D8A"/>
<stop offset="1" stop-color="#1E585B"/>
</linearGradient>
<linearGradient id="paint19_linear_50_790" x1="27.1616" y1="14.7084" x2="34.5009" y2="14.7084" gradientUnits="userSpaceOnUse">
<stop stop-color="#2C8D8A"/>
<stop offset="1" stop-color="#1E585B"/>
</linearGradient>
<linearGradient id="paint20_linear_50_790" x1="25.0645" y1="9.44199" x2="36.5855" y2="9.44199" gradientUnits="userSpaceOnUse">
<stop stop-color="#2C8D8A"/>
<stop offset="1" stop-color="#1E585B"/>
</linearGradient>
</defs>
</svg>
