<svg width="121" height="23" viewBox="0 0 121 23" fill="none" xmlns="http://www.w3.org/2000/svg">
<path d="M4.58488 12.6345H13.7559V8.94089H0V21.409H14.5795V17.714H4.58488V12.6345Z" fill="#4666AD"/>
<path d="M34.3324 7.20851C34.3324 2.94217 31.5112 0.282814 26.5746 0.282814H18.1069V21.4077H22.6931V13.9092H25.985L30.1005 21.4077H35.1561L30.5699 13.2124C31.7371 12.7182 32.7241 11.8771 33.3971 10.8032C34.0702 9.7292 34.3967 8.47428 34.3324 7.20851ZM25.7497 10.3268H22.6931V3.97643H25.7497C28.3356 3.97643 29.6286 5.13093 29.6286 7.20851C29.6286 9.28609 28.3356 10.3268 25.7497 10.3268Z" fill="#4666AD"/>
<path d="M45.9725 0.282814H37.3962V21.4077H41.9811V14.5932H45.86C50.9155 14.5932 53.7381 11.7076 53.7381 7.43605C53.7329 3.28348 50.9104 0.282814 45.9725 0.282814ZM45.1489 11.0133H42.0923V3.97643H45.1541C47.74 3.97643 49.033 5.36235 49.033 7.43993C49.033 9.63386 47.74 11.0185 45.1541 11.0185L45.1489 11.0133Z" fill="#4666AD"/>
<path d="M14.4619 0.282814H0V3.97643H14.4619V0.282814Z" fill="#4666AD"/>
<path d="M70.6689 13.7127H70.4788L61.1242 0.0836906H57.103V21.7541H61.6853V8.11476H61.8444L71.2727 21.7541H75.2305V0.0836906H70.6689V13.7127Z" fill="#4666AD"/>
<path d="M90.9334 7.34293C90.2444 6.6573 89.4133 6.13123 88.4988 5.80188C87.54 5.45027 86.5254 5.27507 85.5042 5.28475C84.0438 5.25041 82.6019 5.61611 81.3344 6.34228C80.1583 7.04573 79.2074 8.07011 78.5933 9.29511C77.9211 10.6611 77.5871 12.1687 77.6197 13.6907C77.5811 15.232 77.9151 16.7599 78.5933 18.1445C79.2106 19.3674 80.1755 20.3807 81.3667 21.0573C82.6935 21.7641 84.1812 22.1142 85.684 22.0734C86.8941 22.0963 88.0974 21.8878 89.2293 21.4593C90.1944 21.0885 91.0576 20.4939 91.748 19.7244C92.403 18.9778 92.8518 18.0731 93.05 17.0999L88.8802 16.8246C88.7356 17.2162 88.504 17.5698 88.2027 17.8588C87.8972 18.1464 87.5321 18.3631 87.1334 18.4936C86.6883 18.64 86.2222 18.712 85.7538 18.7069C85.0706 18.7245 84.3951 18.5603 83.7962 18.2312C83.2466 17.9139 82.8017 17.443 82.5162 16.8763C82.2056 16.2264 82.0532 15.5123 82.0714 14.7922V14.7806H93.1405V13.5433C93.1659 12.3115 92.9688 11.0853 92.5587 9.92342C92.2141 8.95382 91.6591 8.07256 90.9334 7.34293ZM82.0947 11.9881C82.1105 11.4283 82.2599 10.8805 82.5304 10.3901C82.8198 9.86849 83.2434 9.43373 83.7574 9.13091C84.3087 8.80714 84.9387 8.64204 85.5779 8.65386C86.1815 8.64035 86.7776 8.79046 87.3028 9.08825C87.7964 9.36275 88.2035 9.7698 88.4781 10.2634C88.7669 10.7917 88.9126 11.3862 88.9009 11.9881H82.0947Z" fill="#4666AD"/>
<path d="M109.574 5.50066H104.949L101.891 11.1891L98.9071 5.50066H94.2525L98.9071 13.6274L94.0818 21.7541H98.7365L101.89 16.1355L105.097 21.7541H109.7L104.864 13.6274L109.574 5.50066Z" fill="#4666AD"/>
<path d="M119.83 18.1989C119.717 18.2196 119.554 18.2519 119.342 18.2945C119.132 18.3296 118.92 18.3473 118.707 18.3476C118.433 18.3524 118.16 18.3054 117.903 18.2092C117.677 18.1171 117.49 17.9488 117.374 17.7335C117.233 17.4293 117.167 17.0951 117.184 16.76V8.88791H120.242V5.50069H117.184V1.60668H112.676V5.50069H110.449V8.88791H112.672V17.3521C112.629 18.2802 112.861 19.2004 113.339 19.9972C113.792 20.6984 114.455 21.239 115.233 21.5421C116.144 21.8891 117.118 22.0372 118.091 21.9765C118.593 21.9657 119.093 21.9055 119.583 21.7968C119.991 21.705 120.309 21.6236 120.534 21.5538L119.83 18.1989Z" fill="#4666AD"/>
</svg>
