<svg width="40" height="41" viewBox="0 0 40 41" fill="none" xmlns="http://www.w3.org/2000/svg">
<path d="M29.3736 37.2319H26.5342" stroke="url(#paint0_linear_50_1114)" stroke-width="0.983514" stroke-linecap="round" stroke-linejoin="round"/>
<path d="M14.1176 37.2321H4.82695C3.67937 37.2321 2.57882 36.7763 1.76736 35.9649C0.955891 35.1535 0.5 34.0531 0.5 32.9056V5.58883C0.5 5.0208 0.61199 4.45835 0.829478 3.9336C1.04697 3.40886 1.3657 2.93209 1.76754 2.53058C2.16938 2.12906 2.64641 1.81063 3.17137 1.59353C3.69632 1.37644 4.25887 1.26499 4.82695 1.26538H34.6662C35.2343 1.26499 35.797 1.37644 36.3219 1.59353C36.8469 1.81063 37.3239 2.12906 37.7257 2.53058C38.1276 2.93209 38.4463 3.40886 38.6638 3.9336C38.8813 4.45835 38.9932 5.0208 38.9932 5.58883V32.9056C38.9932 34.0531 38.5374 35.1535 37.7259 35.9649C36.9145 36.7763 35.8138 37.2321 34.6662 37.2321H34.1654" stroke="url(#paint1_linear_50_1114)" stroke-width="0.983514" stroke-linecap="round" stroke-linejoin="round"/>
<path d="M21.7456 37.2319H18.9092" stroke="url(#paint2_linear_50_1114)" stroke-width="0.983514" stroke-linecap="round" stroke-linejoin="round"/>
<path d="M29.3736 34.9176H26.5342" stroke="url(#paint3_linear_50_1114)" stroke-width="0.983514" stroke-linecap="round" stroke-linejoin="round"/>
<path d="M14.1175 34.9181H4.82681C4.29543 34.9181 3.78584 34.707 3.4101 34.3313C3.03435 33.9556 2.82324 33.4461 2.82324 32.9147V10.6757C2.82404 10.0257 3.08291 9.40263 3.54288 8.94327C4.00285 8.48392 4.62637 8.22583 5.27646 8.22583H34.2195C34.8691 8.22663 35.4918 8.48502 35.9511 8.94429C36.4105 9.40355 36.6689 10.0262 36.6697 10.6757V32.9147C36.6697 33.4461 36.4586 33.9556 36.0828 34.3313C35.7071 34.707 35.1975 34.9181 34.6661 34.9181H34.1653" stroke="url(#paint4_linear_50_1114)" stroke-width="0.983514" stroke-linecap="round" stroke-linejoin="round"/>
<path d="M21.7456 34.9176H18.9092" stroke="url(#paint5_linear_50_1114)" stroke-width="0.983514" stroke-linecap="round" stroke-linejoin="round"/>
<path d="M5.65671 4.81592C5.65671 4.53533 5.57344 4.26112 5.41747 4.02786C5.26151 3.7946 5.03984 3.61285 4.78053 3.50561C4.52121 3.39837 4.23588 3.37045 3.9607 3.42542C3.68552 3.48038 3.43283 3.61572 3.23461 3.81434C3.0364 4.01295 2.9016 4.2659 2.84722 4.54117C2.79284 4.81644 2.82128 5.10167 2.92908 5.36073C3.03688 5.61979 3.21915 5.84105 3.45276 5.9965C3.68638 6.15195 3.96085 6.23456 4.24146 6.23396C4.42756 6.23396 4.61186 6.19726 4.78375 6.12596C4.95564 6.05466 5.1118 5.95024 5.24325 5.81852C5.3747 5.6868 5.47886 5.53045 5.5498 5.35842C5.62074 5.1864 5.65711 5.002 5.65671 4.81592Z" stroke="url(#paint6_linear_50_1114)" stroke-width="0.983514" stroke-linecap="round" stroke-linejoin="round"/>
<path d="M10.1619 4.81636C10.1613 4.53676 10.0779 4.26366 9.92216 4.03143C9.76643 3.79919 9.54533 3.6183 9.28687 3.51158C9.0284 3.40485 8.74413 3.37705 8.4699 3.43175C8.19566 3.48644 7.94376 3.62112 7.74602 3.81883C7.54829 4.01654 7.4136 4.26842 7.3589 4.54263C7.3042 4.81683 7.33191 5.10107 7.43864 5.35951C7.54538 5.61795 7.72629 5.83902 7.95855 5.99473C8.19081 6.15044 8.46403 6.2338 8.74366 6.2344C8.93001 6.2348 9.11463 6.19844 9.28687 6.12732C9.45911 6.0562 9.61561 5.95173 9.74738 5.81997C9.87915 5.68822 9.98363 5.53173 10.0548 5.35951C10.1259 5.18729 10.1623 5.00269 10.1619 4.81636Z" stroke="url(#paint7_linear_50_1114)" stroke-width="0.983514" stroke-linecap="round" stroke-linejoin="round"/>
<path d="M14.6638 4.81641C14.6632 4.53668 14.5797 4.26341 14.4238 4.03111C14.268 3.79881 14.0467 3.61789 13.7881 3.51126C13.5294 3.40462 13.245 3.37704 12.9707 3.43198C12.6964 3.48692 12.4445 3.62197 12.2469 3.81998C12.0492 4.018 11.9148 4.27011 11.8605 4.54452C11.8061 4.81892 11.8343 5.10329 11.9415 5.36168C12.0487 5.62006 12.23 5.8409 12.4627 5.99625C12.6954 6.1516 12.9689 6.23445 13.2486 6.23445C13.4347 6.23445 13.619 6.19775 13.7909 6.12645C13.9628 6.05515 14.1189 5.95073 14.2503 5.81901C14.3818 5.68729 14.486 5.53094 14.557 5.35891C14.6279 5.18689 14.6642 5.00249 14.6638 4.81641Z" stroke="url(#paint8_linear_50_1114)" stroke-width="0.983514" stroke-linecap="round" stroke-linejoin="round"/>
<path d="M9.2779 11.3146H7.52176C6.98878 11.3146 6.47768 11.5263 6.10081 11.9031C5.72394 12.2799 5.51221 12.791 5.51221 13.3239V24.626C5.51221 25.1589 5.72394 25.67 6.10081 26.0468C6.47768 26.4237 6.98878 26.6354 7.52176 26.6354H21.4773C21.9123 26.6373 22.336 26.4975 22.6843 26.2371" stroke="url(#paint9_linear_50_1114)" stroke-width="0.983514" stroke-linecap="round" stroke-linejoin="round"/>
<path d="M11.6011 11.3146H21.4771C22.0101 11.3146 22.5213 11.5263 22.8982 11.9031C23.275 12.2799 23.4868 12.791 23.4868 13.3239V22.1701" stroke="url(#paint10_linear_50_1114)" stroke-width="0.983514" stroke-linecap="round" stroke-linejoin="round"/>
<path d="M5.5 15.1796H23.4777" stroke="url(#paint11_linear_50_1114)" stroke-width="0.983514" stroke-linecap="round" stroke-linejoin="round"/>
<path d="M5.5 18.9756H23.4777" stroke="url(#paint12_linear_50_1114)" stroke-width="0.983514" stroke-linecap="round" stroke-linejoin="round"/>
<path d="M21.2388 22.7714H5.5" stroke="url(#paint13_linear_50_1114)" stroke-width="0.983514" stroke-linecap="round" stroke-linejoin="round"/>
<path d="M18.9634 11.3146V26.6354" stroke="url(#paint14_linear_50_1114)" stroke-width="0.983514" stroke-linecap="round" stroke-linejoin="round"/>
<path d="M17.5938 29.0195H15.4333C15.2607 29.0191 15.0896 29.0528 14.93 29.1186C14.7704 29.1844 14.6254 29.281 14.5032 29.4029C14.381 29.5248 14.284 29.6696 14.2179 29.8291C14.1517 29.9885 14.1177 30.1594 14.1177 30.332V39.7454H18.9094V30.332C18.9094 30.1594 18.8752 29.9885 18.8091 29.8291C18.7429 29.6696 18.646 29.5248 18.5238 29.4029C18.4016 29.281 18.2566 29.1844 18.097 29.1186C17.9374 29.0528 17.7664 29.0191 17.5938 29.0195Z" stroke="url(#paint15_linear_50_1114)" stroke-width="0.983514" stroke-linecap="round" stroke-linejoin="round"/>
<path d="M25.2216 31.3577H23.0582C22.8856 31.3577 22.7146 31.3917 22.5551 31.4578C22.3957 31.524 22.2509 31.6209 22.129 31.7431C22.007 31.8653 21.9104 32.0104 21.8446 32.1699C21.7788 32.3295 21.7452 32.5004 21.7456 32.673V39.7452H26.5342V32.6671C26.5334 32.3195 26.3948 31.9864 26.1487 31.741C25.9026 31.4955 25.5692 31.3577 25.2216 31.3577Z" stroke="url(#paint16_linear_50_1114)" stroke-width="0.983514" stroke-linecap="round" stroke-linejoin="round"/>
<path d="M34.1651 31.5986V39.7448H29.3765V27.1725C29.3765 26.8245 29.5148 26.4906 29.7609 26.2445C30.0071 25.9984 30.3409 25.8601 30.689 25.8601H32.8526C33.2007 25.8601 33.5345 25.9984 33.7807 26.2445C34.0268 26.4906 34.1651 26.8245 34.1651 27.1725V29.2845" stroke="url(#paint17_linear_50_1114)" stroke-width="0.983514" stroke-linecap="round" stroke-linejoin="round"/>
<path d="M36.6697 39.745H12.645" stroke="url(#paint18_linear_50_1114)" stroke-width="0.983514" stroke-linecap="round" stroke-linejoin="round"/>
<path d="M31.3506 13.653C31.0727 13.4382 30.7466 13.2946 30.4005 13.2346C30.0545 13.1747 29.699 13.2002 29.3651 13.309C29.1242 13.3876 28.9069 13.5256 28.7333 13.7103C28.5598 13.8949 28.4356 14.1203 28.3722 14.3656C28.3087 14.6109 28.3081 14.8682 28.3703 15.1139C28.4326 15.3595 28.5558 15.5855 28.7285 15.771C29.3353 16.1832 30.0019 16.4996 30.7049 16.7093C31.1145 16.8608 31.4556 17.1552 31.6652 17.5384C31.8748 17.9215 31.9389 18.3675 31.8455 18.7941C31.7522 19.2207 31.5078 19.5992 31.1573 19.8598C30.8068 20.1204 30.3739 20.2456 29.9384 20.2122C29.2843 20.2758 28.6291 20.1 28.0947 19.7174" stroke="url(#paint19_linear_50_1114)" stroke-width="0.983514" stroke-linecap="round" stroke-linejoin="round"/>
<path d="M29.9409 21.232V18.0219" stroke="url(#paint20_linear_50_1114)" stroke-width="0.983514" stroke-linecap="round" stroke-linejoin="round"/>
<path d="M29.9409 14.7756V12.2654" stroke="url(#paint21_linear_50_1114)" stroke-width="0.983514" stroke-linecap="round" stroke-linejoin="round"/>
<path d="M27.7324 23.9351L22.1653 21.621C22.0264 21.5638 21.8738 21.5491 21.7266 21.5785C21.5793 21.6079 21.4441 21.6802 21.3379 21.7864C21.2317 21.8925 21.1594 22.0278 21.13 22.175C21.1005 22.3223 21.1154 22.4749 21.1726 22.6137L23.487 28.1802C23.5476 28.327 23.6528 28.4511 23.7879 28.5348C23.9229 28.6185 24.0809 28.6576 24.2394 28.6466C24.3979 28.6356 24.549 28.5749 24.6712 28.4734C24.7933 28.3718 24.8804 28.2345 24.9202 28.0807L25.3729 26.364C25.407 26.2334 25.4753 26.1142 25.5707 26.0188C25.6662 25.9233 25.7854 25.855 25.916 25.8208L27.6329 25.3683C27.7867 25.3285 27.9241 25.2414 28.0257 25.1192C28.1273 24.997 28.1878 24.846 28.1988 24.6876C28.2098 24.5291 28.1707 24.3711 28.087 24.2361C28.0033 24.1011 27.8793 23.9958 27.7324 23.9351Z" stroke="url(#paint22_linear_50_1114)" stroke-width="0.983514" stroke-linecap="round" stroke-linejoin="round"/>
<defs>
<linearGradient id="paint0_linear_50_1114" x1="26.5342" y1="37.7319" x2="29.3736" y2="37.7319" gradientUnits="userSpaceOnUse">
<stop stop-color="#2C8D8A"/>
<stop offset="1" stop-color="#1E585B"/>
</linearGradient>
<linearGradient id="paint1_linear_50_1114" x1="0.5" y1="19.2487" x2="38.9932" y2="19.2487" gradientUnits="userSpaceOnUse">
<stop stop-color="#2C8D8A"/>
<stop offset="1" stop-color="#1E585B"/>
</linearGradient>
<linearGradient id="paint2_linear_50_1114" x1="18.9092" y1="37.7319" x2="21.7456" y2="37.7319" gradientUnits="userSpaceOnUse">
<stop stop-color="#2C8D8A"/>
<stop offset="1" stop-color="#1E585B"/>
</linearGradient>
<linearGradient id="paint3_linear_50_1114" x1="26.5342" y1="35.4176" x2="29.3736" y2="35.4176" gradientUnits="userSpaceOnUse">
<stop stop-color="#2C8D8A"/>
<stop offset="1" stop-color="#1E585B"/>
</linearGradient>
<linearGradient id="paint4_linear_50_1114" x1="2.82324" y1="21.572" x2="36.6697" y2="21.572" gradientUnits="userSpaceOnUse">
<stop stop-color="#2C8D8A"/>
<stop offset="1" stop-color="#1E585B"/>
</linearGradient>
<linearGradient id="paint5_linear_50_1114" x1="18.9092" y1="35.4176" x2="21.7456" y2="35.4176" gradientUnits="userSpaceOnUse">
<stop stop-color="#2C8D8A"/>
<stop offset="1" stop-color="#1E585B"/>
</linearGradient>
<linearGradient id="paint6_linear_50_1114" x1="2.82031" y1="4.81596" x2="5.65671" y2="4.81596" gradientUnits="userSpaceOnUse">
<stop stop-color="#2C8D8A"/>
<stop offset="1" stop-color="#1E585B"/>
</linearGradient>
<linearGradient id="paint7_linear_50_1114" x1="7.33154" y1="4.81941" x2="10.1619" y2="4.81941" gradientUnits="userSpaceOnUse">
<stop stop-color="#2C8D8A"/>
<stop offset="1" stop-color="#1E585B"/>
</linearGradient>
<linearGradient id="paint8_linear_50_1114" x1="11.8335" y1="4.81943" x2="14.6638" y2="4.81943" gradientUnits="userSpaceOnUse">
<stop stop-color="#2C8D8A"/>
<stop offset="1" stop-color="#1E585B"/>
</linearGradient>
<linearGradient id="paint9_linear_50_1114" x1="5.51221" y1="18.975" x2="22.6843" y2="18.975" gradientUnits="userSpaceOnUse">
<stop stop-color="#2C8D8A"/>
<stop offset="1" stop-color="#1E585B"/>
</linearGradient>
<linearGradient id="paint10_linear_50_1114" x1="11.6011" y1="16.7423" x2="23.4868" y2="16.7423" gradientUnits="userSpaceOnUse">
<stop stop-color="#2C8D8A"/>
<stop offset="1" stop-color="#1E585B"/>
</linearGradient>
<linearGradient id="paint11_linear_50_1114" x1="5.5" y1="15.6796" x2="23.4777" y2="15.6796" gradientUnits="userSpaceOnUse">
<stop stop-color="#2C8D8A"/>
<stop offset="1" stop-color="#1E585B"/>
</linearGradient>
<linearGradient id="paint12_linear_50_1114" x1="5.5" y1="19.4756" x2="23.4777" y2="19.4756" gradientUnits="userSpaceOnUse">
<stop stop-color="#2C8D8A"/>
<stop offset="1" stop-color="#1E585B"/>
</linearGradient>
<linearGradient id="paint13_linear_50_1114" x1="5.5" y1="23.2714" x2="21.2388" y2="23.2714" gradientUnits="userSpaceOnUse">
<stop stop-color="#2C8D8A"/>
<stop offset="1" stop-color="#1E585B"/>
</linearGradient>
<linearGradient id="paint14_linear_50_1114" x1="18.9634" y1="18.975" x2="19.9634" y2="18.975" gradientUnits="userSpaceOnUse">
<stop stop-color="#2C8D8A"/>
<stop offset="1" stop-color="#1E585B"/>
</linearGradient>
<linearGradient id="paint15_linear_50_1114" x1="14.1177" y1="34.3825" x2="18.9094" y2="34.3825" gradientUnits="userSpaceOnUse">
<stop stop-color="#2C8D8A"/>
<stop offset="1" stop-color="#1E585B"/>
</linearGradient>
<linearGradient id="paint16_linear_50_1114" x1="21.7456" y1="35.5514" x2="26.5342" y2="35.5514" gradientUnits="userSpaceOnUse">
<stop stop-color="#2C8D8A"/>
<stop offset="1" stop-color="#1E585B"/>
</linearGradient>
<linearGradient id="paint17_linear_50_1114" x1="29.3765" y1="32.8025" x2="34.1651" y2="32.8025" gradientUnits="userSpaceOnUse">
<stop stop-color="#2C8D8A"/>
<stop offset="1" stop-color="#1E585B"/>
</linearGradient>
<linearGradient id="paint18_linear_50_1114" x1="12.645" y1="40.245" x2="36.6697" y2="40.245" gradientUnits="userSpaceOnUse">
<stop stop-color="#2C8D8A"/>
<stop offset="1" stop-color="#1E585B"/>
</linearGradient>
<linearGradient id="paint19_linear_50_1114" x1="28.0947" y1="16.714" x2="31.8873" y2="16.714" gradientUnits="userSpaceOnUse">
<stop stop-color="#2C8D8A"/>
<stop offset="1" stop-color="#1E585B"/>
</linearGradient>
<linearGradient id="paint20_linear_50_1114" x1="29.9409" y1="19.6269" x2="30.9409" y2="19.6269" gradientUnits="userSpaceOnUse">
<stop stop-color="#2C8D8A"/>
<stop offset="1" stop-color="#1E585B"/>
</linearGradient>
<linearGradient id="paint21_linear_50_1114" x1="29.9409" y1="13.5205" x2="30.9409" y2="13.5205" gradientUnits="userSpaceOnUse">
<stop stop-color="#2C8D8A"/>
<stop offset="1" stop-color="#1E585B"/>
</linearGradient>
<linearGradient id="paint22_linear_50_1114" x1="21.1152" y1="25.1061" x2="28.2007" y2="25.1061" gradientUnits="userSpaceOnUse">
<stop stop-color="#2C8D8A"/>
<stop offset="1" stop-color="#1E585B"/>
</linearGradient>
</defs>
</svg>
