<svg width="41" height="41" viewBox="0 0 41 41" fill="none" xmlns="http://www.w3.org/2000/svg">
<path d="M1.42676 35.5699H9.80555L22.1457 39.5217C22.7936 39.7299 23.4794 39.794 24.1547 39.7094C24.83 39.6248 25.4786 39.3935 26.0551 39.0319L32.75 34.8353" stroke="url(#paint0_linear_50_1187)" stroke-width="0.983514" stroke-linecap="round" stroke-linejoin="round"/>
<path d="M33.742 34.2077L40.4769 29.9897L40.4524 29.9561C39.9214 29.2125 39.1364 28.6892 38.2458 28.485C37.3551 28.2808 36.4204 28.41 35.6185 28.848L28.2715 32.8486L28.2285 32.8732" stroke="url(#paint1_linear_50_1187)" stroke-width="0.983514" stroke-linecap="round" stroke-linejoin="round"/>
<path d="M18.4962 34.3581H26.4555C26.9516 34.3581 27.4274 34.161 27.7782 33.8103C28.129 33.4595 28.3261 32.9839 28.3261 32.4878C28.3253 31.9921 28.1279 31.5168 27.7773 31.1662C27.4267 30.8156 26.9514 30.6184 26.4555 30.6176H20.789C20.4011 29.7141 19.8583 28.8853 19.1849 28.1688C15.4165 24.7221 8.29584 28.4535 8.29584 28.4535H1.43555" stroke="url(#paint2_linear_50_1187)" stroke-width="0.983514" stroke-linecap="round" stroke-linejoin="round"/>
<path d="M27.4478 4.88037H36.5797C37.2 4.88037 37.7949 5.1268 38.2335 5.56537C38.6721 6.00394 38.9185 6.59875 38.9185 7.21898V28.8081" stroke="url(#paint3_linear_50_1187)" stroke-width="0.983514" stroke-linecap="round" stroke-linejoin="round"/>
<path d="M15.3132 4.88037H10.1641" stroke="url(#paint4_linear_50_1187)" stroke-width="0.983514" stroke-linecap="round" stroke-linejoin="round"/>
<path d="M3.84229 28.4682V7.21898C3.84229 6.59875 4.08884 6.00394 4.52745 5.56537C4.96607 5.1268 5.56094 4.88037 6.18124 4.88037H8.9946" stroke="url(#paint5_linear_50_1187)" stroke-width="0.983514" stroke-linecap="round" stroke-linejoin="round"/>
<path d="M22.167 2.23613L23.0425 1.26575L24.8793 2.03099L24.812 3.33495L25.9264 4.44919L27.2304 4.38184L27.9957 6.21844L27.0252 7.09382V8.66718L27.9957 9.54265L27.2304 11.3793L25.9264 11.3119L24.812 12.4261L24.8793 13.73L23.0425 14.4923L22.167 13.525H20.5935L19.718 14.4923L17.8811 13.73L17.9454 12.4261L16.8342 11.3119L15.53 11.3793L14.7646 9.54265L15.7321 8.66718V7.09382L14.7646 6.21844L15.53 4.38184L16.8342 4.44919L17.9454 3.33495L17.8811 2.03099L19.718 1.26575L20.5935 2.23613H22.167Z" stroke="url(#paint6_linear_50_1187)" stroke-width="0.983514" stroke-linecap="round" stroke-linejoin="round"/>
<path d="M21.3803 10.2288C22.672 10.2288 23.7192 9.18179 23.7192 7.89022C23.7192 6.59866 22.672 5.55164 21.3803 5.55164C20.0886 5.55164 19.0415 6.59866 19.0415 7.89022C19.0415 9.18179 20.0886 10.2288 21.3803 10.2288Z" stroke="url(#paint7_linear_50_1187)" stroke-width="0.983514" stroke-linecap="round" stroke-linejoin="round"/>
<path d="M14.324 15.061H7.31055V19.7382H14.324V15.061Z" stroke="url(#paint8_linear_50_1187)" stroke-width="0.983514" stroke-linecap="round" stroke-linejoin="round"/>
<path d="M7.31055 28.4687V22.0743H14.3241V26.7545" stroke="url(#paint9_linear_50_1187)" stroke-width="0.983514" stroke-linecap="round" stroke-linejoin="round"/>
<path d="M35.447 15.061H28.4336V19.7382H35.447V15.061Z" stroke="url(#paint10_linear_50_1187)" stroke-width="0.983514" stroke-linecap="round" stroke-linejoin="round"/>
<path d="M28.4336 32.9378V22.0743H35.4471V29.0411" stroke="url(#paint11_linear_50_1187)" stroke-width="0.983514" stroke-linecap="round" stroke-linejoin="round"/>
<path d="M17.8721 27.4217V25.8912H24.8886V30.6112" stroke="url(#paint12_linear_50_1187)" stroke-width="0.983514" stroke-linecap="round" stroke-linejoin="round"/>
<path d="M24.8855 16.8428H17.8721V23.5586H24.8855V16.8428Z" stroke="url(#paint13_linear_50_1187)" stroke-width="0.983514" stroke-linecap="round" stroke-linejoin="round"/>
<path d="M8.28418 8.6731H9.4536" stroke="url(#paint14_linear_50_1187)" stroke-width="0.983514" stroke-linecap="round" stroke-linejoin="round"/>
<path d="M10.623 8.67322H11.7925" stroke="url(#paint15_linear_50_1187)" stroke-width="0.983514" stroke-linecap="round" stroke-linejoin="round"/>
<path d="M30.9688 8.67322H32.1382" stroke="url(#paint16_linear_50_1187)" stroke-width="0.983514" stroke-linecap="round" stroke-linejoin="round"/>
<path d="M33.3047 8.67334H34.4741" stroke="url(#paint17_linear_50_1187)" stroke-width="0.983514" stroke-linecap="round" stroke-linejoin="round"/>
<defs>
<linearGradient id="paint0_linear_50_1187" x1="1.42676" y1="37.2905" x2="32.75" y2="37.2905" gradientUnits="userSpaceOnUse">
<stop stop-color="#2C8D8A"/>
<stop offset="1" stop-color="#1E585B"/>
</linearGradient>
<linearGradient id="paint1_linear_50_1187" x1="28.2285" y1="31.2991" x2="40.4769" y2="31.2991" gradientUnits="userSpaceOnUse">
<stop stop-color="#2C8D8A"/>
<stop offset="1" stop-color="#1E585B"/>
</linearGradient>
<linearGradient id="paint2_linear_50_1187" x1="1.43555" y1="30.5327" x2="28.3261" y2="30.5327" gradientUnits="userSpaceOnUse">
<stop stop-color="#2C8D8A"/>
<stop offset="1" stop-color="#1E585B"/>
</linearGradient>
<linearGradient id="paint3_linear_50_1187" x1="27.4478" y1="16.8442" x2="38.9185" y2="16.8442" gradientUnits="userSpaceOnUse">
<stop stop-color="#2C8D8A"/>
<stop offset="1" stop-color="#1E585B"/>
</linearGradient>
<linearGradient id="paint4_linear_50_1187" x1="10.1641" y1="5.38037" x2="15.3132" y2="5.38037" gradientUnits="userSpaceOnUse">
<stop stop-color="#2C8D8A"/>
<stop offset="1" stop-color="#1E585B"/>
</linearGradient>
<linearGradient id="paint5_linear_50_1187" x1="3.84229" y1="16.6743" x2="8.9946" y2="16.6743" gradientUnits="userSpaceOnUse">
<stop stop-color="#2C8D8A"/>
<stop offset="1" stop-color="#1E585B"/>
</linearGradient>
<linearGradient id="paint6_linear_50_1187" x1="14.7646" y1="7.87901" x2="27.9957" y2="7.87901" gradientUnits="userSpaceOnUse">
<stop stop-color="#2C8D8A"/>
<stop offset="1" stop-color="#1E585B"/>
</linearGradient>
<linearGradient id="paint7_linear_50_1187" x1="19.0415" y1="7.89022" x2="23.7192" y2="7.89022" gradientUnits="userSpaceOnUse">
<stop stop-color="#2C8D8A"/>
<stop offset="1" stop-color="#1E585B"/>
</linearGradient>
<linearGradient id="paint8_linear_50_1187" x1="7.31055" y1="17.3996" x2="14.324" y2="17.3996" gradientUnits="userSpaceOnUse">
<stop stop-color="#2C8D8A"/>
<stop offset="1" stop-color="#1E585B"/>
</linearGradient>
<linearGradient id="paint9_linear_50_1187" x1="7.31055" y1="25.2715" x2="14.324" y2="25.2715" gradientUnits="userSpaceOnUse">
<stop stop-color="#2C8D8A"/>
<stop offset="1" stop-color="#1E585B"/>
</linearGradient>
<linearGradient id="paint10_linear_50_1187" x1="28.4336" y1="17.3996" x2="35.447" y2="17.3996" gradientUnits="userSpaceOnUse">
<stop stop-color="#2C8D8A"/>
<stop offset="1" stop-color="#1E585B"/>
</linearGradient>
<linearGradient id="paint11_linear_50_1187" x1="28.4336" y1="27.5061" x2="35.4471" y2="27.5061" gradientUnits="userSpaceOnUse">
<stop stop-color="#2C8D8A"/>
<stop offset="1" stop-color="#1E585B"/>
</linearGradient>
<linearGradient id="paint12_linear_50_1187" x1="17.8721" y1="28.2512" x2="24.8886" y2="28.2512" gradientUnits="userSpaceOnUse">
<stop stop-color="#2C8D8A"/>
<stop offset="1" stop-color="#1E585B"/>
</linearGradient>
<linearGradient id="paint13_linear_50_1187" x1="17.8721" y1="20.2007" x2="24.8855" y2="20.2007" gradientUnits="userSpaceOnUse">
<stop stop-color="#2C8D8A"/>
<stop offset="1" stop-color="#1E585B"/>
</linearGradient>
<linearGradient id="paint14_linear_50_1187" x1="8.28418" y1="9.1731" x2="9.4536" y2="9.1731" gradientUnits="userSpaceOnUse">
<stop stop-color="#2C8D8A"/>
<stop offset="1" stop-color="#1E585B"/>
</linearGradient>
<linearGradient id="paint15_linear_50_1187" x1="10.623" y1="9.17322" x2="11.7925" y2="9.17322" gradientUnits="userSpaceOnUse">
<stop stop-color="#2C8D8A"/>
<stop offset="1" stop-color="#1E585B"/>
</linearGradient>
<linearGradient id="paint16_linear_50_1187" x1="30.9688" y1="9.17322" x2="32.1382" y2="9.17322" gradientUnits="userSpaceOnUse">
<stop stop-color="#2C8D8A"/>
<stop offset="1" stop-color="#1E585B"/>
</linearGradient>
<linearGradient id="paint17_linear_50_1187" x1="33.3047" y1="9.17334" x2="34.4741" y2="9.17334" gradientUnits="userSpaceOnUse">
<stop stop-color="#2C8D8A"/>
<stop offset="1" stop-color="#1E585B"/>
</linearGradient>
</defs>
</svg>
