<svg width="50" height="40" viewBox="0 0 50 40" fill="none" xmlns="http://www.w3.org/2000/svg">
<path d="M38.8305 13.9543V15.5374C38.8305 15.7964 38.7275 16.0448 38.5444 16.228C38.3612 16.4111 38.1127 16.514 37.8537 16.514H33.9356C33.6763 16.514 33.4274 16.4112 33.2436 16.2282C33.0598 16.0452 32.9561 15.7967 32.9551 15.5374V13.9848" stroke="url(#paint0_linear_50_1216)" stroke-width="0.983514" stroke-linecap="round" stroke-linejoin="round"/>
<path d="M12.7842 16.686V33.4708" stroke="url(#paint1_linear_50_1216)" stroke-width="0.983514" stroke-linecap="round" stroke-linejoin="round"/>
<path d="M15.7222 19.65V16.686" stroke="url(#paint2_linear_50_1216)" stroke-width="0.983514" stroke-linecap="round" stroke-linejoin="round"/>
<path d="M15.7222 33.4863V23.0759" stroke="url(#paint3_linear_50_1216)" stroke-width="0.983514" stroke-linecap="round" stroke-linejoin="round"/>
<path d="M12.3459 19.452H3.67798C3.38833 19.4528 3.10528 19.5391 2.86438 19.6999C2.62348 19.8607 2.43526 20.0889 2.32345 20.3561L1.02247 23.4767C0.991634 23.5511 0.979774 23.6319 0.987778 23.712C0.995782 23.7922 1.0234 23.8691 1.06835 23.9359C1.11329 24.0028 1.17411 24.0575 1.24532 24.0952C1.31653 24.1328 1.39599 24.1522 1.47655 24.1517H12.5634" stroke="url(#paint4_linear_50_1216)" stroke-width="0.983514" stroke-linecap="round" stroke-linejoin="round"/>
<path d="M37.3613 16.725V33.3191" stroke="url(#paint5_linear_50_1216)" stroke-width="0.983514" stroke-linecap="round" stroke-linejoin="round"/>
<path d="M34.4243 33.3572V16.725" stroke="url(#paint6_linear_50_1216)" stroke-width="0.983514" stroke-linecap="round" stroke-linejoin="round"/>
<path d="M11.3076 36.3177V34.5323C11.3076 34.2723 11.4109 34.0229 11.5947 33.8391C11.7786 33.6552 12.0279 33.552 12.2879 33.552H16.2023C16.4623 33.552 16.7119 33.6552 16.8957 33.8391C17.0796 34.0229 17.1829 34.2723 17.1829 34.5323V36.2452" stroke="url(#paint7_linear_50_1216)" stroke-width="0.983514" stroke-linecap="round" stroke-linejoin="round"/>
<path d="M17.1909 13.9543V15.5374C17.1899 15.7967 17.0862 16.0452 16.9024 16.2282C16.7186 16.4112 16.4697 16.514 16.2103 16.514H12.296C12.0366 16.514 11.7877 16.4112 11.6039 16.2282C11.4202 16.0452 11.3164 15.7967 11.3154 15.5374V13.9543" stroke="url(#paint8_linear_50_1216)" stroke-width="0.983514" stroke-linecap="round" stroke-linejoin="round"/>
<path d="M42.6757 11.3646L26.881 1.46919C26.3393 1.12862 25.7125 0.947529 25.0726 0.946594C24.4327 0.947529 23.806 1.12862 23.2643 1.46919L7.46952 11.3646C7.24926 11.5027 7.08011 11.7088 6.98727 11.9517C6.89444 12.1945 6.88296 12.4609 6.9549 12.7107C7.02684 12.9605 7.17815 13.1802 7.38592 13.3365C7.59369 13.4928 7.84661 13.5773 8.10662 13.5772H42.0386C42.2986 13.5773 42.5516 13.4928 42.7593 13.3365C42.9671 13.1802 43.1184 12.9605 43.1904 12.7107C43.2623 12.4609 43.2511 12.1945 43.1582 11.9517C43.0654 11.7088 42.896 11.5027 42.6757 11.3646Z" stroke="url(#paint9_linear_50_1216)" stroke-width="0.983514" stroke-linecap="round" stroke-linejoin="round"/>
<path d="M25.0729 22.5883C23.7575 22.5883 22.496 23.1106 21.5658 24.0407C20.6357 24.9707 20.1133 26.2321 20.1133 27.5474V36.5043H30.0021V27.5474C30.0021 26.2374 29.4837 24.9806 28.5602 24.0515C27.6367 23.1223 26.383 22.5963 25.0729 22.5883Z" stroke="url(#paint10_linear_50_1216)" stroke-width="0.983514" stroke-linecap="round" stroke-linejoin="round"/>
<path d="M25.0732 22.5883V36.4891" stroke="url(#paint11_linear_50_1216)" stroke-width="0.983514" stroke-linecap="round" stroke-linejoin="round"/>
<path d="M42.2565 36.4893H48.9176C48.9821 36.4893 49.0458 36.5021 49.1053 36.5269C49.1648 36.5517 49.2189 36.5879 49.2643 36.6337C49.3097 36.6794 49.3455 36.7337 49.3698 36.7934C49.3941 36.8531 49.4064 36.9169 49.4059 36.9814V38.9383C49.4059 39.0025 49.3934 39.066 49.3689 39.1252C49.3444 39.1844 49.3083 39.2383 49.2629 39.2836C49.2176 39.329 49.1638 39.3649 49.1046 39.3895C49.0454 39.414 48.9817 39.4267 48.9176 39.4267H1.22836C1.16391 39.4272 1.0999 39.4149 1.04021 39.3906C0.980518 39.3663 0.926451 39.3304 0.8807 39.285C0.834949 39.2396 0.798598 39.1856 0.773818 39.1261C0.749039 39.0666 0.736326 39.0028 0.736328 38.9383V36.9814C0.736328 36.9168 0.748852 36.8528 0.773585 36.7931C0.798318 36.7334 0.834766 36.6791 0.880467 36.6334C0.926168 36.5877 0.980264 36.5515 1.03997 36.5268C1.09969 36.5021 1.16373 36.4893 1.22836 36.4893H38.8265V34.5323C38.8265 34.273 38.7238 34.0242 38.5408 33.8405C38.3577 33.6567 38.1093 33.553 37.8499 33.552H33.9318C33.6718 33.552 33.4223 33.6552 33.2384 33.8391C33.0545 34.0229 32.9513 34.2723 32.9513 34.5323V36.2452" stroke="url(#paint12_linear_50_1216)" stroke-width="0.983514" stroke-linecap="round" stroke-linejoin="round"/>
<path d="M27.8654 7.77892C27.8644 8.51211 27.5726 9.21498 27.0541 9.73343C26.5356 10.2519 25.8328 10.5436 25.0995 10.5446H25.0423C24.3087 10.5446 23.6052 10.2533 23.0865 9.7346C22.5678 9.21593 22.2764 8.51242 22.2764 7.77892V7.72933C22.2759 7.36599 22.3469 7.00618 22.4857 6.6704C22.6245 6.33463 22.8284 6.02952 23.0853 5.7726C23.3423 5.51569 23.6474 5.31199 23.9832 5.17317C24.319 5.03436 24.6789 4.96312 25.0423 4.96363H25.0919C25.4551 4.96363 25.8148 5.03523 26.1504 5.17422C26.486 5.31321 26.7908 5.51695 27.0476 5.77377C27.3045 6.03058 27.5082 6.33544 27.6472 6.67099C27.7862 7.00653 27.8577 7.36613 27.8577 7.72933L27.8654 7.77892Z" stroke="url(#paint13_linear_50_1216)" stroke-width="0.983514" stroke-linecap="round" stroke-linejoin="round"/>
<path d="M2.69727 24.2013V36.294" stroke="url(#paint14_linear_50_1216)" stroke-width="0.983514" stroke-linecap="round" stroke-linejoin="round"/>
<path d="M37.682 19.452H46.4568C46.7465 19.4528 47.0295 19.5391 47.2704 19.6999C47.5113 19.8607 47.6995 20.0889 47.8113 20.3561L49.1123 23.4767C49.1432 23.5511 49.155 23.6319 49.147 23.712C49.139 23.7922 49.1114 23.8691 49.0664 23.9359C49.0215 24.0028 48.9607 24.0575 48.8895 24.0952C48.8183 24.1328 48.7388 24.1522 48.6582 24.1517H37.5942" stroke="url(#paint15_linear_50_1216)" stroke-width="0.983514" stroke-linecap="round" stroke-linejoin="round"/>
<path d="M47.4526 24.2013V36.4886" stroke="url(#paint16_linear_50_1216)" stroke-width="0.983514" stroke-linecap="round" stroke-linejoin="round"/>
<path d="M29.5291 16.5148H20.617C20.5525 16.5148 20.4886 16.5275 20.4291 16.5523C20.3696 16.5771 20.3156 16.6134 20.2702 16.6592C20.2248 16.7049 20.1888 16.7592 20.1645 16.8189C20.1402 16.8786 20.1279 16.9425 20.1284 17.0069V19.1584C20.1279 19.2229 20.1402 19.2867 20.1645 19.3464C20.1888 19.4061 20.2248 19.4604 20.2702 19.5061C20.3156 19.5519 20.3696 19.5882 20.4291 19.613C20.4886 19.6378 20.5525 19.6505 20.617 19.6505H29.5291C29.5936 19.6505 29.6573 19.6378 29.7168 19.613C29.7763 19.5882 29.8302 19.5519 29.8756 19.5061C29.921 19.4604 29.957 19.4061 29.9813 19.3464C30.0057 19.2867 30.0179 19.2229 30.0174 19.1584V17.0069C30.0179 16.9425 30.0057 16.8786 29.9813 16.8189C29.957 16.7592 29.921 16.7049 29.8756 16.6592C29.8302 16.6134 29.7763 16.5771 29.7168 16.5523C29.6573 16.5275 29.5936 16.5148 29.5291 16.5148Z" stroke="url(#paint17_linear_50_1216)" stroke-width="0.983514" stroke-linecap="round" stroke-linejoin="round"/>
<path d="M21.6089 16.5143V13.577" stroke="url(#paint18_linear_50_1216)" stroke-width="0.983514" stroke-linecap="round" stroke-linejoin="round"/>
<path d="M28.5488 16.5143V13.577" stroke="url(#paint19_linear_50_1216)" stroke-width="0.983514" stroke-linecap="round" stroke-linejoin="round"/>
<path d="M9.35865 31.3008H6.12728C5.99741 31.3008 5.87274 31.2494 5.78056 31.158C5.68837 31.0665 5.63626 30.9423 5.63525 30.8125V27.5814C5.63525 27.4509 5.6871 27.3258 5.77939 27.2335C5.87169 27.1412 5.99676 27.0894 6.12728 27.0894H9.35865C9.4231 27.0894 9.48707 27.1021 9.54657 27.1268C9.60606 27.1516 9.65998 27.188 9.70537 27.2337C9.75077 27.2795 9.78678 27.3338 9.81109 27.3934C9.83541 27.4531 9.84769 27.517 9.84718 27.5814V30.8125C9.84718 30.942 9.79556 31.0662 9.70398 31.1578C9.6124 31.2493 9.48816 31.3008 9.35865 31.3008Z" stroke="url(#paint20_linear_50_1216)" stroke-width="0.983514" stroke-linecap="round" stroke-linejoin="round"/>
<path d="M44.019 31.3008H40.7876C40.6584 31.2998 40.5348 31.2481 40.4435 31.1567C40.3521 31.0653 40.3003 30.9417 40.2993 30.8125V27.5814C40.2993 27.4516 40.3506 27.3269 40.4421 27.2348C40.5335 27.1426 40.6578 27.0904 40.7876 27.0894H44.019C44.1495 27.0894 44.2748 27.1412 44.3671 27.2335C44.4594 27.3258 44.5112 27.4509 44.5112 27.5814V30.8125C44.5102 30.9423 44.4579 31.0665 44.3657 31.158C44.2735 31.2494 44.1489 31.3008 44.019 31.3008Z" stroke="url(#paint21_linear_50_1216)" stroke-width="0.983514" stroke-linecap="round" stroke-linejoin="round"/>
<defs>
<linearGradient id="paint0_linear_50_1216" x1="32.9551" y1="15.2342" x2="38.8305" y2="15.2342" gradientUnits="userSpaceOnUse">
<stop stop-color="#2C8D8A"/>
<stop offset="1" stop-color="#1E585B"/>
</linearGradient>
<linearGradient id="paint1_linear_50_1216" x1="12.7842" y1="25.0784" x2="13.7842" y2="25.0784" gradientUnits="userSpaceOnUse">
<stop stop-color="#2C8D8A"/>
<stop offset="1" stop-color="#1E585B"/>
</linearGradient>
<linearGradient id="paint2_linear_50_1216" x1="15.7222" y1="18.168" x2="16.7222" y2="18.168" gradientUnits="userSpaceOnUse">
<stop stop-color="#2C8D8A"/>
<stop offset="1" stop-color="#1E585B"/>
</linearGradient>
<linearGradient id="paint3_linear_50_1216" x1="15.7222" y1="28.2811" x2="16.7222" y2="28.2811" gradientUnits="userSpaceOnUse">
<stop stop-color="#2C8D8A"/>
<stop offset="1" stop-color="#1E585B"/>
</linearGradient>
<linearGradient id="paint4_linear_50_1216" x1="0.985352" y1="21.8019" x2="12.5634" y2="21.8019" gradientUnits="userSpaceOnUse">
<stop stop-color="#2C8D8A"/>
<stop offset="1" stop-color="#1E585B"/>
</linearGradient>
<linearGradient id="paint5_linear_50_1216" x1="37.3613" y1="25.022" x2="38.3613" y2="25.022" gradientUnits="userSpaceOnUse">
<stop stop-color="#2C8D8A"/>
<stop offset="1" stop-color="#1E585B"/>
</linearGradient>
<linearGradient id="paint6_linear_50_1216" x1="34.4243" y1="25.0411" x2="35.4243" y2="25.0411" gradientUnits="userSpaceOnUse">
<stop stop-color="#2C8D8A"/>
<stop offset="1" stop-color="#1E585B"/>
</linearGradient>
<linearGradient id="paint7_linear_50_1216" x1="11.3076" y1="34.9349" x2="17.1829" y2="34.9349" gradientUnits="userSpaceOnUse">
<stop stop-color="#2C8D8A"/>
<stop offset="1" stop-color="#1E585B"/>
</linearGradient>
<linearGradient id="paint8_linear_50_1216" x1="11.3154" y1="15.2342" x2="17.1909" y2="15.2342" gradientUnits="userSpaceOnUse">
<stop stop-color="#2C8D8A"/>
<stop offset="1" stop-color="#1E585B"/>
</linearGradient>
<linearGradient id="paint9_linear_50_1216" x1="6.9082" y1="7.26188" x2="43.2372" y2="7.26188" gradientUnits="userSpaceOnUse">
<stop stop-color="#2C8D8A"/>
<stop offset="1" stop-color="#1E585B"/>
</linearGradient>
<linearGradient id="paint10_linear_50_1216" x1="20.1133" y1="29.5463" x2="30.0021" y2="29.5463" gradientUnits="userSpaceOnUse">
<stop stop-color="#2C8D8A"/>
<stop offset="1" stop-color="#1E585B"/>
</linearGradient>
<linearGradient id="paint11_linear_50_1216" x1="25.0732" y1="29.5387" x2="26.0732" y2="29.5387" gradientUnits="userSpaceOnUse">
<stop stop-color="#2C8D8A"/>
<stop offset="1" stop-color="#1E585B"/>
</linearGradient>
<linearGradient id="paint12_linear_50_1216" x1="0.736328" y1="36.4894" x2="49.4059" y2="36.4894" gradientUnits="userSpaceOnUse">
<stop stop-color="#2C8D8A"/>
<stop offset="1" stop-color="#1E585B"/>
</linearGradient>
<linearGradient id="paint13_linear_50_1216" x1="22.2764" y1="7.75412" x2="27.8654" y2="7.75412" gradientUnits="userSpaceOnUse">
<stop stop-color="#2C8D8A"/>
<stop offset="1" stop-color="#1E585B"/>
</linearGradient>
<linearGradient id="paint14_linear_50_1216" x1="2.69727" y1="30.2477" x2="3.69727" y2="30.2477" gradientUnits="userSpaceOnUse">
<stop stop-color="#2C8D8A"/>
<stop offset="1" stop-color="#1E585B"/>
</linearGradient>
<linearGradient id="paint15_linear_50_1216" x1="37.5942" y1="21.8019" x2="49.1494" y2="21.8019" gradientUnits="userSpaceOnUse">
<stop stop-color="#2C8D8A"/>
<stop offset="1" stop-color="#1E585B"/>
</linearGradient>
<linearGradient id="paint16_linear_50_1216" x1="47.4526" y1="30.3449" x2="48.4526" y2="30.3449" gradientUnits="userSpaceOnUse">
<stop stop-color="#2C8D8A"/>
<stop offset="1" stop-color="#1E585B"/>
</linearGradient>
<linearGradient id="paint17_linear_50_1216" x1="20.1284" y1="18.0827" x2="30.0175" y2="18.0827" gradientUnits="userSpaceOnUse">
<stop stop-color="#2C8D8A"/>
<stop offset="1" stop-color="#1E585B"/>
</linearGradient>
<linearGradient id="paint18_linear_50_1216" x1="21.6089" y1="15.0456" x2="22.6089" y2="15.0456" gradientUnits="userSpaceOnUse">
<stop stop-color="#2C8D8A"/>
<stop offset="1" stop-color="#1E585B"/>
</linearGradient>
<linearGradient id="paint19_linear_50_1216" x1="28.5488" y1="15.0456" x2="29.5488" y2="15.0456" gradientUnits="userSpaceOnUse">
<stop stop-color="#2C8D8A"/>
<stop offset="1" stop-color="#1E585B"/>
</linearGradient>
<linearGradient id="paint20_linear_50_1216" x1="5.63525" y1="29.1951" x2="9.8472" y2="29.1951" gradientUnits="userSpaceOnUse">
<stop stop-color="#2C8D8A"/>
<stop offset="1" stop-color="#1E585B"/>
</linearGradient>
<linearGradient id="paint21_linear_50_1216" x1="40.2993" y1="29.1951" x2="44.5112" y2="29.1951" gradientUnits="userSpaceOnUse">
<stop stop-color="#2C8D8A"/>
<stop offset="1" stop-color="#1E585B"/>
</linearGradient>
</defs>
</svg>
