<svg width="33" height="40" viewBox="0 0 33 40" fill="none" xmlns="http://www.w3.org/2000/svg">
<path d="M31.6905 4.35308V1.83704C31.6905 1.5866 31.591 1.34636 31.4139 1.16927C31.2368 0.992185 30.9966 0.8927 30.7462 0.8927H1.56368C1.31345 0.893496 1.0736 0.993278 0.896664 1.17019C0.719729 1.34711 0.619936 1.58685 0.619141 1.83704V17.5731C0.619936 17.8233 0.719729 18.063 0.896664 18.2399C1.0736 18.4168 1.31345 18.5166 1.56368 18.5174H14.5679L15.7144 21.6881C15.7462 21.7801 15.8057 21.8598 15.8849 21.9163C15.9642 21.9727 16.0591 22.003 16.1564 22.003C16.2537 22.003 16.3484 21.9727 16.4277 21.9163C16.5069 21.8598 16.5666 21.7801 16.5984 21.6881L17.7449 18.5174H30.7462C30.9966 18.5174 31.2368 18.4179 31.4139 18.2408C31.591 18.0637 31.6905 17.8236 31.6905 17.5731V7.07433" stroke="url(#paint0_linear_50_1291)" stroke-width="0.983514" stroke-linecap="round" stroke-linejoin="round"/>
<path d="M21.7575 39.3725C26.3634 39.3725 30.0971 35.6392 30.0971 31.0339C30.0971 26.4285 26.3634 22.6952 21.7575 22.6952C17.1517 22.6952 13.418 26.4285 13.418 31.0339C13.418 35.6392 17.1517 39.3725 21.7575 39.3725Z" stroke="url(#paint1_linear_50_1291)" stroke-width="0.983514" stroke-linecap="round" stroke-linejoin="round"/>
<path d="M21.755 37.2816C25.206 37.2816 28.0036 34.4843 28.0036 31.0336C28.0036 27.583 25.206 24.7856 21.755 24.7856C18.304 24.7856 15.5063 27.583 15.5063 31.0336C15.5063 34.4843 18.304 37.2816 21.755 37.2816Z" stroke="url(#paint2_linear_50_1291)" stroke-width="0.983514" stroke-linecap="round" stroke-linejoin="round"/>
<path d="M16.5861 37.578V38.1422C16.5861 38.4622 16.459 38.7692 16.2327 38.9955C16.0063 39.2218 15.6994 39.3489 15.3793 39.3489H2.70696C2.38687 39.3489 2.07991 39.2218 1.85358 38.9955C1.62724 38.7692 1.5 38.4622 1.5 38.1422V37.0953C1.5 36.7752 1.62724 36.4683 1.85358 36.242C2.07991 36.0157 2.38687 35.8885 2.70696 35.8885" stroke="url(#paint3_linear_50_1291)" stroke-width="0.983514" stroke-linecap="round" stroke-linejoin="round"/>
<path d="M7.16309 35.8763H14.9626" stroke="url(#paint4_linear_50_1291)" stroke-width="0.983514" stroke-linecap="round" stroke-linejoin="round"/>
<path d="M13.5267 32.3922H2.68578C2.36569 32.3922 2.05873 32.5194 1.8324 32.7457C1.60606 32.972 1.479 33.2789 1.479 33.5989V34.6459C1.479 34.9659 1.60606 35.2728 1.8324 35.4991C2.05873 35.7255 2.36569 35.8526 2.68578 35.8526H4.43895" stroke="url(#paint5_linear_50_1291)" stroke-width="0.983514" stroke-linecap="round" stroke-linejoin="round"/>
<path d="M13.5265 32.3915H5.33489C5.0148 32.3915 4.70766 32.2644 4.48133 32.0381C4.25499 31.8118 4.12793 31.5048 4.12793 31.1848V30.1379C4.12793 29.8178 4.25499 29.5109 4.48133 29.2846C4.70766 29.0583 5.0148 28.9312 5.33489 28.9312H13.6924" stroke="url(#paint6_linear_50_1291)" stroke-width="0.983514" stroke-linecap="round" stroke-linejoin="round"/>
<path d="M13.6926 28.9072H2.68578C2.36569 28.9072 2.05873 28.78 1.8324 28.5537C1.60606 28.3274 1.479 28.0205 1.479 27.7004V26.6535C1.479 26.3335 1.60606 26.0265 1.8324 25.8002C2.05873 25.5739 2.36569 25.4468 2.68578 25.4468H15.3581C15.4269 25.4466 15.4956 25.4526 15.5633 25.4649" stroke="url(#paint7_linear_50_1291)" stroke-width="0.983514" stroke-linecap="round" stroke-linejoin="round"/>
<path d="M19.3589 33.4325L24.1563 28.6356" stroke="url(#paint8_linear_50_1291)" stroke-width="0.983514" stroke-linecap="round" stroke-linejoin="round"/>
<path d="M27.3243 6.12412L24.6723 3.47532C24.5643 3.36756 24.4361 3.28213 24.2951 3.22388C24.1541 3.16564 24.0029 3.13572 23.8504 3.13586C23.6978 3.136 23.5469 3.16612 23.406 3.22462C23.2651 3.28312 23.1372 3.36883 23.0294 3.47679C22.9217 3.58475 22.8361 3.71292 22.7779 3.8539C22.7196 3.99488 22.6897 4.14596 22.6898 4.2985C22.69 4.45104 22.7201 4.60204 22.7786 4.74291C22.8371 4.88379 22.9229 5.01171 23.0309 5.11947L23.6977 5.78623H13.4813C13.1732 5.78623 12.8778 5.9086 12.66 6.12642C12.4421 6.34424 12.3198 6.63971 12.3198 6.94776C12.3198 7.25581 12.4421 7.55118 12.66 7.76901C12.8778 7.98683 13.1732 8.1092 13.4813 8.1092H23.6977L23.0309 8.77292C22.8128 8.99095 22.6902 9.28674 22.6902 9.59508C22.6902 9.90343 22.8128 10.1991 23.0309 10.4172C23.249 10.6352 23.5446 10.7576 23.853 10.7576C24.1614 10.7576 24.4572 10.6352 24.6752 10.4172L27.3243 7.76836C27.5419 7.55008 27.6641 7.25439 27.6641 6.94619C27.6641 6.638 27.5419 6.3424 27.3243 6.12412Z" stroke="url(#paint9_linear_50_1291)" stroke-width="0.983514" stroke-linecap="round" stroke-linejoin="round"/>
<path d="M4.98784 11.2859L7.63711 8.6371C7.74488 8.52914 7.87282 8.44343 8.01371 8.38493C8.1546 8.32642 8.30552 8.29622 8.45808 8.29608C8.61063 8.29594 8.76182 8.32585 8.90281 8.3841C9.04381 8.44234 9.17199 8.52778 9.27996 8.63554C9.38794 8.7433 9.47356 8.87131 9.53207 9.01219C9.59058 9.15306 9.6207 9.30406 9.62084 9.4566C9.62098 9.60914 9.59106 9.76022 9.53281 9.9012C9.47456 10.0422 9.38921 10.1703 9.28144 10.2782L8.61461 10.945H18.8309C19.1389 10.945 19.4345 11.0673 19.6524 11.2852C19.8702 11.503 19.9925 11.7985 19.9925 12.1065C19.9925 12.4146 19.8702 12.71 19.6524 12.9278C19.4345 13.1457 19.1389 13.268 18.8309 13.268H8.61461L9.28144 13.9347C9.4991 14.1527 9.62112 14.4483 9.62084 14.7564C9.62055 15.0645 9.49802 15.3597 9.27996 15.5774C9.06191 15.795 8.76617 15.9172 8.45808 15.9169C8.14998 15.9166 7.85477 15.7939 7.63711 15.5759L4.98784 12.9271C4.77043 12.7093 4.64844 12.4142 4.64844 12.1065C4.64844 11.7988 4.77043 11.5037 4.98784 11.2859Z" stroke="url(#paint10_linear_50_1291)" stroke-width="0.983514" stroke-linecap="round" stroke-linejoin="round"/>
<defs>
<linearGradient id="paint0_linear_50_1291" x1="0.619141" y1="11.4478" x2="31.6905" y2="11.4478" gradientUnits="userSpaceOnUse">
<stop stop-color="#2C8D8A"/>
<stop offset="1" stop-color="#1E585B"/>
</linearGradient>
<linearGradient id="paint1_linear_50_1291" x1="13.418" y1="31.0339" x2="30.0971" y2="31.0339" gradientUnits="userSpaceOnUse">
<stop stop-color="#2C8D8A"/>
<stop offset="1" stop-color="#1E585B"/>
</linearGradient>
<linearGradient id="paint2_linear_50_1291" x1="15.5063" y1="31.0336" x2="28.0036" y2="31.0336" gradientUnits="userSpaceOnUse">
<stop stop-color="#2C8D8A"/>
<stop offset="1" stop-color="#1E585B"/>
</linearGradient>
<linearGradient id="paint3_linear_50_1291" x1="1.5" y1="37.6187" x2="16.5861" y2="37.6187" gradientUnits="userSpaceOnUse">
<stop stop-color="#2C8D8A"/>
<stop offset="1" stop-color="#1E585B"/>
</linearGradient>
<linearGradient id="paint4_linear_50_1291" x1="7.16309" y1="36.3763" x2="14.9626" y2="36.3763" gradientUnits="userSpaceOnUse">
<stop stop-color="#2C8D8A"/>
<stop offset="1" stop-color="#1E585B"/>
</linearGradient>
<linearGradient id="paint5_linear_50_1291" x1="1.479" y1="34.1224" x2="13.5267" y2="34.1224" gradientUnits="userSpaceOnUse">
<stop stop-color="#2C8D8A"/>
<stop offset="1" stop-color="#1E585B"/>
</linearGradient>
<linearGradient id="paint6_linear_50_1291" x1="4.12793" y1="30.6613" x2="13.6924" y2="30.6613" gradientUnits="userSpaceOnUse">
<stop stop-color="#2C8D8A"/>
<stop offset="1" stop-color="#1E585B"/>
</linearGradient>
<linearGradient id="paint7_linear_50_1291" x1="1.479" y1="27.177" x2="15.5633" y2="27.177" gradientUnits="userSpaceOnUse">
<stop stop-color="#2C8D8A"/>
<stop offset="1" stop-color="#1E585B"/>
</linearGradient>
<linearGradient id="paint8_linear_50_1291" x1="19.3589" y1="31.034" x2="24.1563" y2="31.034" gradientUnits="userSpaceOnUse">
<stop stop-color="#2C8D8A"/>
<stop offset="1" stop-color="#1E585B"/>
</linearGradient>
<linearGradient id="paint9_linear_50_1291" x1="12.3198" y1="6.94675" x2="27.6641" y2="6.94675" gradientUnits="userSpaceOnUse">
<stop stop-color="#2C8D8A"/>
<stop offset="1" stop-color="#1E585B"/>
</linearGradient>
<linearGradient id="paint10_linear_50_1291" x1="4.64844" y1="12.1065" x2="19.9925" y2="12.1065" gradientUnits="userSpaceOnUse">
<stop stop-color="#2C8D8A"/>
<stop offset="1" stop-color="#1E585B"/>
</linearGradient>
</defs>
</svg>
