<svg width="42" height="40" viewBox="0 0 42 40" fill="none" xmlns="http://www.w3.org/2000/svg">
<path d="M41.3735 39.3727H1.42676V36.7769H41.3735V39.3727Z" stroke="url(#paint0_linear_50_1166)" stroke-width="0.983514" stroke-linecap="round" stroke-linejoin="round"/>
<path d="M8.40722 32.5902V36.7767H3.21191V25.8987H8.40722V29.7783" stroke="url(#paint1_linear_50_1166)" stroke-width="0.983514" stroke-linecap="round" stroke-linejoin="round"/>
<path d="M18.8008 26.2838V36.7766H13.6055V15.3433H18.8008V23.4688" stroke="url(#paint2_linear_50_1166)" stroke-width="0.983514" stroke-linecap="round" stroke-linejoin="round"/>
<path d="M34.3901 19.0663V36.7766H39.5854V11.2851H34.3901V16.2544" stroke="url(#paint3_linear_50_1166)" stroke-width="0.983514" stroke-linecap="round" stroke-linejoin="round"/>
<path d="M29.1945 21.0262H23.9961V36.7765H29.1945V21.0262Z" stroke="url(#paint4_linear_50_1166)" stroke-width="0.983514" stroke-linecap="round" stroke-linejoin="round"/>
<path d="M24.3284 11.9867L18.4941 8.79596" stroke="url(#paint5_linear_50_1166)" stroke-width="0.983514" stroke-linecap="round" stroke-linejoin="round"/>
<path d="M35.0948 5.26709L28.4902 11.4575" stroke="url(#paint6_linear_50_1166)" stroke-width="0.983514" stroke-linecap="round" stroke-linejoin="round"/>
<path d="M14.3794 9.40015L7.63379 16.2545" stroke="url(#paint7_linear_50_1166)" stroke-width="0.983514" stroke-linecap="round" stroke-linejoin="round"/>
<path d="M8.41038 18.1051C8.41038 18.6191 8.2579 19.1216 7.97229 19.549C7.68668 19.9764 7.28073 20.3095 6.80578 20.5062C6.33083 20.7029 5.80821 20.7544 5.30401 20.6541C4.79981 20.5538 4.33663 20.3062 3.97312 19.9428C3.60961 19.5793 3.36219 19.1163 3.2619 18.6121C3.16161 18.108 3.21292 17.5854 3.40965 17.1105C3.60638 16.6356 3.93962 16.2297 4.36706 15.9441C4.7945 15.6586 5.29702 15.5061 5.8111 15.5061C6.50046 15.5061 7.16163 15.7799 7.64908 16.2673C8.13653 16.7547 8.41038 17.4158 8.41038 18.1051Z" stroke="url(#paint8_linear_50_1166)" stroke-width="0.983514" stroke-linecap="round" stroke-linejoin="round"/>
<path d="M18.8011 7.54964C18.8011 8.06304 18.6489 8.56493 18.3636 8.9918C18.0784 9.41868 17.6728 9.75139 17.1984 9.94787C16.7241 10.1443 16.2022 10.1958 15.6986 10.0956C15.195 9.99544 14.7323 9.74815 14.3692 9.38512C14.0062 9.02209 13.7589 8.55964 13.6588 8.0561C13.5586 7.55256 13.61 7.03054 13.8065 6.55621C14.003 6.08189 14.3359 5.67649 14.7628 5.39126C15.1897 5.10603 15.6916 4.9538 16.2051 4.9538C16.8934 4.95463 17.5531 5.22838 18.0398 5.71501C18.5265 6.20164 18.8003 6.86144 18.8011 7.54964Z" stroke="url(#paint9_linear_50_1166)" stroke-width="0.983514" stroke-linecap="round" stroke-linejoin="round"/>
<path d="M29.1945 13.2205C29.1945 13.7345 29.0422 14.237 28.7566 14.6644C28.471 15.0918 28.065 15.4249 27.5901 15.6216C27.1152 15.8183 26.5925 15.8698 26.0883 15.7695C25.5841 15.6693 25.121 15.4217 24.7574 15.0582C24.3939 14.6947 24.1463 14.2317 24.046 13.7275C23.9457 13.2234 23.9972 12.7008 24.194 12.2259C24.3907 11.7511 24.7239 11.3451 25.1514 11.0596C25.5788 10.774 26.0813 10.6215 26.5954 10.6215C27.2848 10.6215 27.9458 10.8953 28.4332 11.3827C28.9207 11.8701 29.1945 12.5312 29.1945 13.2205Z" stroke="url(#paint10_linear_50_1166)" stroke-width="0.983514" stroke-linecap="round" stroke-linejoin="round"/>
<path d="M39.5851 3.4917C39.5845 4.00496 39.4317 4.50653 39.1461 4.933C38.8604 5.35947 38.4549 5.69164 37.9805 5.88763C37.5061 6.08362 36.984 6.13463 36.4807 6.03412C35.9773 5.93361 35.515 5.68613 35.1523 5.32297C34.7895 4.95982 34.5427 4.49721 34.4428 3.99376C34.3428 3.49031 34.3943 2.96859 34.5909 2.49445C34.7875 2.02031 35.1203 1.61507 35.5471 1.32998C35.974 1.04488 36.4758 0.892701 36.9891 0.8927C37.6779 0.89353 38.3382 1.16776 38.825 1.65506C39.3117 2.14237 39.5851 2.80296 39.5851 3.4917Z" stroke="url(#paint11_linear_50_1166)" stroke-width="0.983514" stroke-linecap="round" stroke-linejoin="round"/>
<defs>
<linearGradient id="paint0_linear_50_1166" x1="1.42676" y1="38.0748" x2="41.3735" y2="38.0748" gradientUnits="userSpaceOnUse">
<stop stop-color="#2C8D8A"/>
<stop offset="1" stop-color="#1E585B"/>
</linearGradient>
<linearGradient id="paint1_linear_50_1166" x1="3.21191" y1="31.3377" x2="8.40722" y2="31.3377" gradientUnits="userSpaceOnUse">
<stop stop-color="#2C8D8A"/>
<stop offset="1" stop-color="#1E585B"/>
</linearGradient>
<linearGradient id="paint2_linear_50_1166" x1="13.6055" y1="26.0599" x2="18.8008" y2="26.0599" gradientUnits="userSpaceOnUse">
<stop stop-color="#2C8D8A"/>
<stop offset="1" stop-color="#1E585B"/>
</linearGradient>
<linearGradient id="paint3_linear_50_1166" x1="34.3901" y1="24.0309" x2="39.5854" y2="24.0309" gradientUnits="userSpaceOnUse">
<stop stop-color="#2C8D8A"/>
<stop offset="1" stop-color="#1E585B"/>
</linearGradient>
<linearGradient id="paint4_linear_50_1166" x1="23.9961" y1="28.9013" x2="29.1945" y2="28.9013" gradientUnits="userSpaceOnUse">
<stop stop-color="#2C8D8A"/>
<stop offset="1" stop-color="#1E585B"/>
</linearGradient>
<linearGradient id="paint5_linear_50_1166" x1="18.4941" y1="10.3913" x2="24.3284" y2="10.3913" gradientUnits="userSpaceOnUse">
<stop stop-color="#2C8D8A"/>
<stop offset="1" stop-color="#1E585B"/>
</linearGradient>
<linearGradient id="paint6_linear_50_1166" x1="28.4902" y1="8.36232" x2="35.0948" y2="8.36232" gradientUnits="userSpaceOnUse">
<stop stop-color="#2C8D8A"/>
<stop offset="1" stop-color="#1E585B"/>
</linearGradient>
<linearGradient id="paint7_linear_50_1166" x1="7.63379" y1="12.8273" x2="14.3794" y2="12.8273" gradientUnits="userSpaceOnUse">
<stop stop-color="#2C8D8A"/>
<stop offset="1" stop-color="#1E585B"/>
</linearGradient>
<linearGradient id="paint8_linear_50_1166" x1="3.21191" y1="18.1051" x2="8.41038" y2="18.1051" gradientUnits="userSpaceOnUse">
<stop stop-color="#2C8D8A"/>
<stop offset="1" stop-color="#1E585B"/>
</linearGradient>
<linearGradient id="paint9_linear_50_1166" x1="13.6089" y1="7.54963" x2="18.8011" y2="7.54963" gradientUnits="userSpaceOnUse">
<stop stop-color="#2C8D8A"/>
<stop offset="1" stop-color="#1E585B"/>
</linearGradient>
<linearGradient id="paint10_linear_50_1166" x1="23.9961" y1="13.2205" x2="29.1945" y2="13.2205" gradientUnits="userSpaceOnUse">
<stop stop-color="#2C8D8A"/>
<stop offset="1" stop-color="#1E585B"/>
</linearGradient>
<linearGradient id="paint11_linear_50_1166" x1="34.3931" y1="3.48853" x2="39.5851" y2="3.48853" gradientUnits="userSpaceOnUse">
<stop stop-color="#2C8D8A"/>
<stop offset="1" stop-color="#1E585B"/>
</linearGradient>
</defs>
</svg>
