<svg width="40" height="41" viewBox="0 0 40 41" fill="none" xmlns="http://www.w3.org/2000/svg">
<path d="M13.7851 26.5808L11.3901 28.9755" stroke="url(#paint0_linear_50_1310)" stroke-width="0.983514" stroke-linecap="round" stroke-linejoin="round"/>
<path d="M28.3271 12.0406L25.9321 14.4354" stroke="url(#paint1_linear_50_1310)" stroke-width="0.983514" stroke-linecap="round" stroke-linejoin="round"/>
<path d="M28.3271 28.9755L25.9321 26.5808" stroke="url(#paint2_linear_50_1310)" stroke-width="0.983514" stroke-linecap="round" stroke-linejoin="round"/>
<path d="M13.7851 14.4354L11.3901 12.0406" stroke="url(#paint3_linear_50_1310)" stroke-width="0.983514" stroke-linecap="round" stroke-linejoin="round"/>
<path d="M11.3179 19.1829C11.6591 17.0635 12.7863 15.1505 14.4748 13.8247C16.1634 12.499 18.2894 11.8579 20.4294 12.029C22.5694 12.2002 24.5665 13.171 26.0228 14.7483C27.479 16.3255 28.2877 18.3935 28.2877 20.5401C28.2877 22.6867 27.479 24.7546 26.0228 26.3318C24.5665 27.9091 22.5694 28.8799 20.4294 29.0511C18.2894 29.2222 16.1634 28.5811 14.4748 27.2554C12.7863 25.9296 11.6591 24.0166 11.3179 21.8972" stroke="url(#paint4_linear_50_1310)" stroke-width="0.983514" stroke-linecap="round" stroke-linejoin="round"/>
<path d="M19.8574 14.7759V26.2366" stroke="url(#paint5_linear_50_1310)" stroke-width="0.983514" stroke-linecap="round" stroke-linejoin="round"/>
<path d="M17.3477 23.2993C17.3264 23.7211 17.4732 24.1341 17.7559 24.4479C18.0386 24.7617 18.4341 24.9506 18.8559 24.9732H20.8678C21.2892 24.9498 21.6845 24.7607 21.967 24.4471C22.2496 24.1335 22.3965 23.7209 22.3759 23.2993V22.1834C22.3973 21.7616 22.2507 21.3486 21.9679 21.0348C21.6852 20.7211 21.2895 20.5322 20.8678 20.5096H18.8588C18.4368 20.4862 18.0413 20.2966 17.7587 19.9824C17.476 19.6681 17.3293 19.2548 17.3507 18.8327V17.7168C17.3293 17.295 17.4761 16.8819 17.7588 16.5681C18.0416 16.2544 18.4371 16.0655 18.8588 16.0428H20.8709C21.2924 16.0662 21.6874 16.2554 21.97 16.569C22.2525 16.8825 22.3996 17.2952 22.379 17.7168" stroke="url(#paint6_linear_50_1310)" stroke-width="0.983514" stroke-linecap="round" stroke-linejoin="round"/>
<path d="M39.0953 33.436C39.0953 34.684 38.7251 35.904 38.0316 36.9417C37.3381 37.9793 36.3524 38.788 35.1992 39.2654C34.046 39.7429 32.7772 39.8677 31.5531 39.624C30.329 39.3803 29.2045 38.7791 28.3221 37.8964C27.4398 37.0137 26.8391 35.8892 26.596 34.6651C26.3529 33.441 26.4782 32.1723 26.9563 31.0194C27.4343 29.8666 28.2436 28.8814 29.2817 28.1885C30.3197 27.4955 31.5401 27.126 32.7882 27.1266C34.4613 27.1274 36.0655 27.7924 37.2483 28.9756C38.431 30.1588 39.0953 31.7631 39.0953 33.436Z" stroke="url(#paint7_linear_50_1310)" stroke-width="0.983514" stroke-linecap="round" stroke-linejoin="round"/>
<path d="M34.8245 36.0448C34.3808 36.2642 33.8884 36.3669 33.3939 36.343C32.8994 36.3191 32.4192 36.1696 31.9986 35.9084C31.578 35.6472 31.2309 35.2831 30.9903 34.8505C30.7497 34.4178 30.6235 33.9309 30.6235 33.4359C30.6235 32.9409 30.7497 32.4541 30.9903 32.0214C31.2309 31.5888 31.578 31.2247 31.9986 30.9635C32.4192 30.7023 32.8994 30.5528 33.3939 30.5289C33.8884 30.505 34.3808 30.6077 34.8245 30.8271" stroke="url(#paint8_linear_50_1310)" stroke-width="0.983514" stroke-linecap="round" stroke-linejoin="round"/>
<path d="M29.3555 34.5155H33.5331" stroke="url(#paint9_linear_50_1310)" stroke-width="0.983514" stroke-linecap="round" stroke-linejoin="round"/>
<path d="M29.3555 32.353H33.5331" stroke="url(#paint10_linear_50_1310)" stroke-width="0.983514" stroke-linecap="round" stroke-linejoin="round"/>
<path d="M13.2394 33.436C13.2394 34.6839 12.8694 35.9037 12.176 36.9413C11.4827 37.9789 10.497 38.7876 9.344 39.2652C8.19098 39.7427 6.9223 39.8677 5.69825 39.6242C4.47421 39.3808 3.34977 38.7798 2.46728 37.8974C1.58479 37.0151 0.98389 35.8908 0.740413 34.6669C0.496935 33.443 0.621811 32.1744 1.09941 31.0215C1.57701 29.8686 2.38581 28.8832 3.4235 28.1899C4.46119 27.4966 5.68131 27.1266 6.92934 27.1266C8.60288 27.1266 10.2078 27.7913 11.3912 28.9746C12.5746 30.1578 13.2394 31.7626 13.2394 33.436Z" stroke="url(#paint11_linear_50_1310)" stroke-width="0.983514" stroke-linecap="round" stroke-linejoin="round"/>
<path d="M4.69727 30.2847L6.92931 33.3007L9.16135 30.2847" stroke="url(#paint12_linear_50_1310)" stroke-width="0.983514" stroke-linecap="round" stroke-linejoin="round"/>
<path d="M6.92969 33.3035V37.36" stroke="url(#paint13_linear_50_1310)" stroke-width="0.983514" stroke-linecap="round" stroke-linejoin="round"/>
<path d="M5.1377 33.4299H8.72398" stroke="url(#paint14_linear_50_1310)" stroke-width="0.983514" stroke-linecap="round" stroke-linejoin="round"/>
<path d="M5.1377 35.4417H8.72398" stroke="url(#paint15_linear_50_1310)" stroke-width="0.983514" stroke-linecap="round" stroke-linejoin="round"/>
<path d="M39.0079 6.56399C39.0599 6.89725 39.0862 7.23398 39.0864 7.57128C39.0858 9.08064 38.5435 10.5397 37.5581 11.6832C36.5728 12.8267 35.2099 13.5787 33.7171 13.8025C32.2242 14.0263 30.7007 13.707 29.4233 12.9028C28.1459 12.0986 27.1993 10.8628 26.756 9.42C26.3127 7.9772 26.4019 6.42326 27.0073 5.04062C27.6128 3.65799 28.6943 2.53844 30.0553 1.88557C31.4163 1.23269 32.9664 1.08982 34.4238 1.48289C35.8813 1.87596 37.1494 2.77888 37.9974 4.02753" stroke="url(#paint16_linear_50_1310)" stroke-width="0.983514" stroke-linecap="round" stroke-linejoin="round"/>
<path d="M30.4565 8.25562H33.7744" stroke="url(#paint17_linear_50_1310)" stroke-width="0.983514" stroke-linecap="round" stroke-linejoin="round"/>
<path d="M34.4111 4.27209H33.6722C33.3545 4.2725 33.0412 4.3468 32.7572 4.48913C32.4732 4.63145 32.2262 4.83794 32.0357 5.09218C31.8452 5.34641 31.7165 5.6414 31.6598 5.95395C31.603 6.2665 31.6196 6.58797 31.7085 6.89295C31.8969 7.53439 31.9381 8.21007 31.8289 8.86961C31.7198 9.52915 31.4631 10.1555 31.0782 10.7021C31.0656 10.7201 31.058 10.7411 31.0565 10.763C31.0549 10.7848 31.0594 10.8067 31.0693 10.8262C31.0793 10.8457 31.0942 10.8622 31.1128 10.8738C31.1314 10.8854 31.1527 10.8918 31.1746 10.8922H34.6525" stroke="url(#paint18_linear_50_1310)" stroke-width="0.983514" stroke-linecap="round" stroke-linejoin="round"/>
<path d="M13.2394 7.57978C13.24 8.82779 12.8705 10.048 12.1775 11.086C11.4845 12.1239 10.4992 12.9331 9.34621 13.4111C8.19324 13.8891 6.92434 14.0145 5.70009 13.7714C4.47585 13.5283 3.35117 12.9276 2.46838 12.0453C1.5856 11.163 0.984319 10.0389 0.740597 8.81487C0.496875 7.59088 0.621716 6.32213 1.09923 5.16905C1.57674 4.01598 2.38556 3.03039 3.42332 2.33697C4.46108 1.64354 5.68118 1.27344 6.92934 1.27344C8.60236 1.27344 10.2068 1.93773 11.3901 3.12032C12.5734 4.30292 13.2386 5.90693 13.2394 7.57978Z" stroke="url(#paint19_linear_50_1310)" stroke-width="0.983514" stroke-linecap="round" stroke-linejoin="round"/>
<path d="M4.97754 3.96362H8.89889" stroke="url(#paint20_linear_50_1310)" stroke-width="0.983514" stroke-linecap="round" stroke-linejoin="round"/>
<path d="M4.97754 6.09302H8.89889" stroke="url(#paint21_linear_50_1310)" stroke-width="0.983514" stroke-linecap="round" stroke-linejoin="round"/>
<path d="M4.97754 3.96362H5.68651C6.25169 3.96362 6.79373 4.18806 7.19338 4.58766C7.59302 4.98726 7.81748 5.52924 7.81748 6.09436C7.81748 6.65948 7.59302 7.20146 7.19338 7.60106C6.79373 8.00066 6.25169 8.22519 5.68651 8.22519H4.97754L7.81895 11.1989" stroke="url(#paint22_linear_50_1310)" stroke-width="0.983514" stroke-linecap="round" stroke-linejoin="round"/>
<defs>
<linearGradient id="paint0_linear_50_1310" x1="11.3901" y1="27.7782" x2="13.7851" y2="27.7782" gradientUnits="userSpaceOnUse">
<stop stop-color="#2C8D8A"/>
<stop offset="1" stop-color="#1E585B"/>
</linearGradient>
<linearGradient id="paint1_linear_50_1310" x1="25.9321" y1="13.238" x2="28.3271" y2="13.238" gradientUnits="userSpaceOnUse">
<stop stop-color="#2C8D8A"/>
<stop offset="1" stop-color="#1E585B"/>
</linearGradient>
<linearGradient id="paint2_linear_50_1310" x1="25.9321" y1="27.7782" x2="28.3271" y2="27.7782" gradientUnits="userSpaceOnUse">
<stop stop-color="#2C8D8A"/>
<stop offset="1" stop-color="#1E585B"/>
</linearGradient>
<linearGradient id="paint3_linear_50_1310" x1="11.3901" y1="13.238" x2="13.7851" y2="13.238" gradientUnits="userSpaceOnUse">
<stop stop-color="#2C8D8A"/>
<stop offset="1" stop-color="#1E585B"/>
</linearGradient>
<linearGradient id="paint4_linear_50_1310" x1="11.3179" y1="20.5401" x2="28.2877" y2="20.5401" gradientUnits="userSpaceOnUse">
<stop stop-color="#2C8D8A"/>
<stop offset="1" stop-color="#1E585B"/>
</linearGradient>
<linearGradient id="paint5_linear_50_1310" x1="19.8574" y1="20.5062" x2="20.8574" y2="20.5062" gradientUnits="userSpaceOnUse">
<stop stop-color="#2C8D8A"/>
<stop offset="1" stop-color="#1E585B"/>
</linearGradient>
<linearGradient id="paint6_linear_50_1310" x1="17.3457" y1="20.508" x2="22.3809" y2="20.508" gradientUnits="userSpaceOnUse">
<stop stop-color="#2C8D8A"/>
<stop offset="1" stop-color="#1E585B"/>
</linearGradient>
<linearGradient id="paint7_linear_50_1310" x1="26.4751" y1="33.436" x2="39.0953" y2="33.436" gradientUnits="userSpaceOnUse">
<stop stop-color="#2C8D8A"/>
<stop offset="1" stop-color="#1E585B"/>
</linearGradient>
<linearGradient id="paint8_linear_50_1310" x1="30.6235" y1="33.436" x2="34.8245" y2="33.436" gradientUnits="userSpaceOnUse">
<stop stop-color="#2C8D8A"/>
<stop offset="1" stop-color="#1E585B"/>
</linearGradient>
<linearGradient id="paint9_linear_50_1310" x1="29.3555" y1="35.0155" x2="33.5331" y2="35.0155" gradientUnits="userSpaceOnUse">
<stop stop-color="#2C8D8A"/>
<stop offset="1" stop-color="#1E585B"/>
</linearGradient>
<linearGradient id="paint10_linear_50_1310" x1="29.3555" y1="32.853" x2="33.5331" y2="32.853" gradientUnits="userSpaceOnUse">
<stop stop-color="#2C8D8A"/>
<stop offset="1" stop-color="#1E585B"/>
</linearGradient>
<linearGradient id="paint11_linear_50_1310" x1="0.619141" y1="33.436" x2="13.2394" y2="33.436" gradientUnits="userSpaceOnUse">
<stop stop-color="#2C8D8A"/>
<stop offset="1" stop-color="#1E585B"/>
</linearGradient>
<linearGradient id="paint12_linear_50_1310" x1="4.69727" y1="31.7927" x2="9.16135" y2="31.7927" gradientUnits="userSpaceOnUse">
<stop stop-color="#2C8D8A"/>
<stop offset="1" stop-color="#1E585B"/>
</linearGradient>
<linearGradient id="paint13_linear_50_1310" x1="6.92969" y1="35.3317" x2="7.92969" y2="35.3317" gradientUnits="userSpaceOnUse">
<stop stop-color="#2C8D8A"/>
<stop offset="1" stop-color="#1E585B"/>
</linearGradient>
<linearGradient id="paint14_linear_50_1310" x1="5.1377" y1="33.9299" x2="8.72398" y2="33.9299" gradientUnits="userSpaceOnUse">
<stop stop-color="#2C8D8A"/>
<stop offset="1" stop-color="#1E585B"/>
</linearGradient>
<linearGradient id="paint15_linear_50_1310" x1="5.1377" y1="35.9417" x2="8.72398" y2="35.9417" gradientUnits="userSpaceOnUse">
<stop stop-color="#2C8D8A"/>
<stop offset="1" stop-color="#1E585B"/>
</linearGradient>
<linearGradient id="paint16_linear_50_1310" x1="26.478" y1="7.5688" x2="39.0864" y2="7.5688" gradientUnits="userSpaceOnUse">
<stop stop-color="#2C8D8A"/>
<stop offset="1" stop-color="#1E585B"/>
</linearGradient>
<linearGradient id="paint17_linear_50_1310" x1="30.4565" y1="8.75562" x2="33.7744" y2="8.75562" gradientUnits="userSpaceOnUse">
<stop stop-color="#2C8D8A"/>
<stop offset="1" stop-color="#1E585B"/>
</linearGradient>
<linearGradient id="paint18_linear_50_1310" x1="31.0562" y1="7.58215" x2="34.6525" y2="7.58215" gradientUnits="userSpaceOnUse">
<stop stop-color="#2C8D8A"/>
<stop offset="1" stop-color="#1E585B"/>
</linearGradient>
<linearGradient id="paint19_linear_50_1310" x1="0.619141" y1="7.58286" x2="13.2394" y2="7.58286" gradientUnits="userSpaceOnUse">
<stop stop-color="#2C8D8A"/>
<stop offset="1" stop-color="#1E585B"/>
</linearGradient>
<linearGradient id="paint20_linear_50_1310" x1="4.97754" y1="4.46362" x2="8.89889" y2="4.46362" gradientUnits="userSpaceOnUse">
<stop stop-color="#2C8D8A"/>
<stop offset="1" stop-color="#1E585B"/>
</linearGradient>
<linearGradient id="paint21_linear_50_1310" x1="4.97754" y1="6.59302" x2="8.89889" y2="6.59302" gradientUnits="userSpaceOnUse">
<stop stop-color="#2C8D8A"/>
<stop offset="1" stop-color="#1E585B"/>
</linearGradient>
<linearGradient id="paint22_linear_50_1310" x1="4.97754" y1="7.58128" x2="7.81895" y2="7.58128" gradientUnits="userSpaceOnUse">
<stop stop-color="#2C8D8A"/>
<stop offset="1" stop-color="#1E585B"/>
</linearGradient>
</defs>
</svg>
