<svg width="40" height="40" viewBox="0 0 40 40" fill="none" xmlns="http://www.w3.org/2000/svg">
<path d="M31.4689 30.3142C31.7656 29.4972 31.8619 28.6209 31.7496 27.759C31.2431 22.8012 28.9722 18.1903 25.3506 14.7664H18.9546C15.8067 17.5409 13.6888 21.2977 12.9448 25.4271" stroke="url(#paint0_linear_50_1083)" stroke-width="0.983514" stroke-linecap="round" stroke-linejoin="round"/>
<path d="M18.9546 14.7661L16.915 9.93945H22.1526" stroke="url(#paint1_linear_50_1083)" stroke-width="0.983514" stroke-linecap="round" stroke-linejoin="round"/>
<path d="M25.3503 14.7661L27.3898 9.93945H22.1523" stroke="url(#paint2_linear_50_1083)" stroke-width="0.983514" stroke-linecap="round" stroke-linejoin="round"/>
<path d="M16.3179 14.7664H27.9845" stroke="url(#paint3_linear_50_1083)" stroke-width="0.983514" stroke-linecap="round" stroke-linejoin="round"/>
<path d="M23.9508 20.5428C23.4294 20.117 22.7676 19.9017 22.0954 19.9394C21.8414 19.95 21.59 19.9936 21.3472 20.0691C21.0322 20.168 20.7475 20.3457 20.5202 20.5851C20.2928 20.8246 20.1303 21.118 20.0479 21.4377C19.9654 21.7574 19.9658 22.0928 20.0491 22.4123C20.1323 22.7319 20.2956 23.0249 20.5236 23.2638C21.0065 23.6143 21.5354 23.8964 22.0954 24.1024C22.3971 24.2261 22.726 24.3498 23.088 24.4795C23.5806 24.6818 23.9899 25.0451 24.2492 25.5102C24.5085 25.9752 24.6024 26.5145 24.5156 27.0399C24.4287 27.5652 24.1662 28.0454 23.771 28.4023C23.3758 28.7591 22.8712 28.9714 22.3398 29.0044" stroke="url(#paint4_linear_50_1083)" stroke-width="0.983514" stroke-linecap="round" stroke-linejoin="round"/>
<path d="M22.0952 19.9454V18.7177" stroke="url(#paint5_linear_50_1083)" stroke-width="0.983514" stroke-linecap="round" stroke-linejoin="round"/>
<path d="M16.7617 30.733L21.6763 33.1916C21.9511 33.3312 22.2551 33.4036 22.5634 33.4028C22.8165 33.4027 23.0673 33.3546 23.3025 33.261" stroke="url(#paint6_linear_50_1083)" stroke-width="0.983514" stroke-linecap="round" stroke-linejoin="round"/>
<path d="M33.352 33.8491L21.9146 38.724C20.8539 39.1824 19.7055 39.4027 18.5504 39.3694C17.3953 39.336 16.2616 39.0498 15.229 38.531L8.65208 35.2398H5.28516V26.2984H8.65208L10.1937 25.846C11.0884 25.5858 12.0136 25.4448 12.9452 25.4266C14.7671 25.3962 16.5653 25.8424 18.1616 26.7208L22.34 29.0225L23.4533 29.6258C23.795 29.7976 24.0798 30.0644 24.2737 30.3941C24.4675 30.7238 24.5622 31.1024 24.5463 31.4845C24.5304 31.8666 24.4045 32.236 24.1839 32.5484C23.9633 32.8608 23.6572 33.1029 23.3024 33.2458L31.4693 30.2986L31.94 30.1296C32.2469 30.0248 32.575 29.9975 32.8951 30.0501C33.2151 30.1027 33.5171 30.2336 33.7743 30.4312C34.0499 30.6316 34.2649 30.9041 34.3958 31.2186C34.501 31.4597 34.5574 31.7193 34.5618 31.9823C34.5662 32.2454 34.5185 32.5066 34.4215 32.7511C34.3245 32.9957 34.1801 33.2185 33.9965 33.407C33.8129 33.5954 33.5939 33.7457 33.352 33.8491Z" stroke="url(#paint7_linear_50_1083)" stroke-width="0.983514" stroke-linecap="round" stroke-linejoin="round"/>
<path d="M5.2849 24.7572H0.5V36.5945H5.2849V24.7572Z" stroke="url(#paint8_linear_50_1083)" stroke-width="0.983514" stroke-linecap="round" stroke-linejoin="round"/>
<path d="M5.34226 20.0028C5.25114 19.2712 5.20585 18.5347 5.20655 17.7975C5.20523 14.329 6.2706 10.944 8.25822 8.10127C10.2458 5.25857 13.0595 3.09568 16.318 1.90588" stroke="url(#paint9_linear_50_1083)" stroke-width="0.983514" stroke-linecap="round" stroke-linejoin="round"/>
<path d="M5.34229 20.0032L8.28684 17.5898" stroke="url(#paint10_linear_50_1083)" stroke-width="0.983514" stroke-linecap="round" stroke-linejoin="round"/>
<path d="M5.34238 20.006L2.58789 17.3755" stroke="url(#paint11_linear_50_1083)" stroke-width="0.983514" stroke-linecap="round" stroke-linejoin="round"/>
<path d="M28.2349 2.04529C30.5286 2.94523 32.5982 4.33492 34.2993 6.1173C36.0003 7.89969 37.2918 10.0318 38.0835 12.3648C38.8753 14.6978 39.1482 17.1756 38.8833 19.6251C38.6183 22.0745 37.8219 24.4365 36.5497 26.5463" stroke="url(#paint12_linear_50_1083)" stroke-width="0.983514" stroke-linecap="round" stroke-linejoin="round"/>
<path d="M28.2349 2.04163L28.9288 5.78829" stroke="url(#paint13_linear_50_1083)" stroke-width="0.983514" stroke-linecap="round" stroke-linejoin="round"/>
<path d="M28.2349 2.04204L31.8643 0.8927" stroke="url(#paint14_linear_50_1083)" stroke-width="0.983514" stroke-linecap="round" stroke-linejoin="round"/>
<path d="M28.2349 2.04163C30.5287 2.94192 32.5983 4.33189 34.2994 6.11456C36.0004 7.89723 37.2919 10.0296 38.0836 12.3629C38.8754 14.6962 39.1482 17.1741 38.8833 19.6237C38.6183 22.0733 37.822 24.4356 36.5497 26.5457" stroke="url(#paint15_linear_50_1083)" stroke-width="0.983514" stroke-linecap="round" stroke-linejoin="round"/>
<defs>
<linearGradient id="paint0_linear_50_1083" x1="12.9448" y1="22.5403" x2="31.7951" y2="22.5403" gradientUnits="userSpaceOnUse">
<stop stop-color="#2C8D8A"/>
<stop offset="1" stop-color="#1E585B"/>
</linearGradient>
<linearGradient id="paint1_linear_50_1083" x1="16.915" y1="12.3528" x2="22.1526" y2="12.3528" gradientUnits="userSpaceOnUse">
<stop stop-color="#2C8D8A"/>
<stop offset="1" stop-color="#1E585B"/>
</linearGradient>
<linearGradient id="paint2_linear_50_1083" x1="22.1523" y1="12.3528" x2="27.3898" y2="12.3528" gradientUnits="userSpaceOnUse">
<stop stop-color="#2C8D8A"/>
<stop offset="1" stop-color="#1E585B"/>
</linearGradient>
<linearGradient id="paint3_linear_50_1083" x1="16.3179" y1="15.2664" x2="27.9845" y2="15.2664" gradientUnits="userSpaceOnUse">
<stop stop-color="#2C8D8A"/>
<stop offset="1" stop-color="#1E585B"/>
</linearGradient>
<linearGradient id="paint4_linear_50_1083" x1="19.9863" y1="24.4698" x2="24.5471" y2="24.4698" gradientUnits="userSpaceOnUse">
<stop stop-color="#2C8D8A"/>
<stop offset="1" stop-color="#1E585B"/>
</linearGradient>
<linearGradient id="paint5_linear_50_1083" x1="22.0952" y1="19.3315" x2="23.0952" y2="19.3315" gradientUnits="userSpaceOnUse">
<stop stop-color="#2C8D8A"/>
<stop offset="1" stop-color="#1E585B"/>
</linearGradient>
<linearGradient id="paint6_linear_50_1083" x1="16.7617" y1="32.0679" x2="23.3025" y2="32.0679" gradientUnits="userSpaceOnUse">
<stop stop-color="#2C8D8A"/>
<stop offset="1" stop-color="#1E585B"/>
</linearGradient>
<linearGradient id="paint7_linear_50_1083" x1="5.28516" y1="32.3989" x2="34.5621" y2="32.3989" gradientUnits="userSpaceOnUse">
<stop stop-color="#2C8D8A"/>
<stop offset="1" stop-color="#1E585B"/>
</linearGradient>
<linearGradient id="paint8_linear_50_1083" x1="0.5" y1="30.6758" x2="5.2849" y2="30.6758" gradientUnits="userSpaceOnUse">
<stop stop-color="#2C8D8A"/>
<stop offset="1" stop-color="#1E585B"/>
</linearGradient>
<linearGradient id="paint9_linear_50_1083" x1="5.20654" y1="10.9543" x2="16.318" y2="10.9543" gradientUnits="userSpaceOnUse">
<stop stop-color="#2C8D8A"/>
<stop offset="1" stop-color="#1E585B"/>
</linearGradient>
<linearGradient id="paint10_linear_50_1083" x1="5.34229" y1="18.7965" x2="8.28684" y2="18.7965" gradientUnits="userSpaceOnUse">
<stop stop-color="#2C8D8A"/>
<stop offset="1" stop-color="#1E585B"/>
</linearGradient>
<linearGradient id="paint11_linear_50_1083" x1="2.58789" y1="18.6907" x2="5.34238" y2="18.6907" gradientUnits="userSpaceOnUse">
<stop stop-color="#2C8D8A"/>
<stop offset="1" stop-color="#1E585B"/>
</linearGradient>
<linearGradient id="paint12_linear_50_1083" x1="28.2349" y1="14.2958" x2="38.9814" y2="14.2958" gradientUnits="userSpaceOnUse">
<stop stop-color="#2C8D8A"/>
<stop offset="1" stop-color="#1E585B"/>
</linearGradient>
<linearGradient id="paint13_linear_50_1083" x1="28.2349" y1="3.91496" x2="28.9288" y2="3.91496" gradientUnits="userSpaceOnUse">
<stop stop-color="#2C8D8A"/>
<stop offset="1" stop-color="#1E585B"/>
</linearGradient>
<linearGradient id="paint14_linear_50_1083" x1="28.2349" y1="1.46737" x2="31.8643" y2="1.46737" gradientUnits="userSpaceOnUse">
<stop stop-color="#2C8D8A"/>
<stop offset="1" stop-color="#1E585B"/>
</linearGradient>
<linearGradient id="paint15_linear_50_1083" x1="28.2349" y1="14.2937" x2="38.9814" y2="14.2937" gradientUnits="userSpaceOnUse">
<stop stop-color="#2C8D8A"/>
<stop offset="1" stop-color="#1E585B"/>
</linearGradient>
</defs>
</svg>
