<svg width="38" height="41" viewBox="0 0 38 41" fill="none" xmlns="http://www.w3.org/2000/svg">
<path d="M0.736328 21.6814V7.08553L6.54808 1.26538H25.1459V20.8391" stroke="url(#paint0_linear_50_1265)" stroke-width="0.983514" stroke-linecap="round" stroke-linejoin="round"/>
<path d="M11.9283 31.4136H0.736328V22.8794" stroke="url(#paint1_linear_50_1265)" stroke-width="0.983514" stroke-linecap="round" stroke-linejoin="round"/>
<path d="M23.5365 31.4142H18.4766" stroke="url(#paint2_linear_50_1265)" stroke-width="0.983514" stroke-linecap="round" stroke-linejoin="round"/>
<path d="M25.146 22.6259V28.3223" stroke="url(#paint3_linear_50_1265)" stroke-width="0.983514" stroke-linecap="round" stroke-linejoin="round"/>
<path d="M8.87598 8.32021C8.87598 7.51657 9.1142 6.73106 9.56073 6.06285C10.0073 5.39465 10.6419 4.87381 11.3845 4.56627C12.127 4.25873 12.9442 4.17825 13.7325 4.33503C14.5207 4.49181 15.2448 4.87882 15.8131 5.44708C16.3814 6.01534 16.7685 6.73936 16.9253 7.52756C17.0821 8.31576 17.0016 9.13274 16.6941 9.87521C16.3865 10.6177 15.8655 11.2523 15.1972 11.6987C14.529 12.1452 13.7433 12.3835 12.9395 12.3835C11.8618 12.3835 10.8283 11.9555 10.0662 11.1934C9.30409 10.4314 8.87598 9.39786 8.87598 8.32021Z" stroke="url(#paint4_linear_50_1265)" stroke-width="0.983514" stroke-linecap="round" stroke-linejoin="round"/>
<path d="M11.2036 7.96985L12.3478 9.55175L14.6906 6.77747" stroke="url(#paint5_linear_50_1265)" stroke-width="0.983514" stroke-linecap="round" stroke-linejoin="round"/>
<path d="M4.23242 15.314H14.6845" stroke="url(#paint6_linear_50_1265)" stroke-width="0.983514" stroke-linecap="round" stroke-linejoin="round"/>
<path d="M4.23242 18.27H14.6845" stroke="url(#paint7_linear_50_1265)" stroke-width="0.983514" stroke-linecap="round" stroke-linejoin="round"/>
<path d="M4.23242 21.1316H14.6845" stroke="url(#paint8_linear_50_1265)" stroke-width="0.983514" stroke-linecap="round" stroke-linejoin="round"/>
<path d="M4.23242 24.0059H10.0351" stroke="url(#paint9_linear_50_1265)" stroke-width="0.983514" stroke-linecap="round" stroke-linejoin="round"/>
<path d="M0.736328 7.08553H6.54808V1.26538" stroke="url(#paint10_linear_50_1265)" stroke-width="0.983514" stroke-linecap="round" stroke-linejoin="round"/>
<path d="M23.5823 37.0195H21.6471V34.3328H8.87024V37.0044H6.92285V39.7454H8.87024H21.6471H23.5823V37.0195Z" stroke="url(#paint11_linear_50_1265)" stroke-width="0.983514" stroke-linecap="round" stroke-linejoin="round"/>
<path d="M17.4048 37.0197H21.6587" stroke="url(#paint12_linear_50_1265)" stroke-width="0.983514" stroke-linecap="round" stroke-linejoin="round"/>
<path d="M8.88184 37.0197H16.2334" stroke="url(#paint13_linear_50_1265)" stroke-width="0.983514" stroke-linecap="round" stroke-linejoin="round"/>
<path d="M23.8837 30.801L19.6992 28.3376L21.1001 25.9589L25.1306 28.3225" stroke="url(#paint14_linear_50_1265)" stroke-width="0.983514" stroke-linecap="round" stroke-linejoin="round"/>
<path d="M33.6326 32.4705L36.3769 34.0826C36.861 34.3672 37.2122 34.8324 37.3532 35.3759C37.4942 35.9194 37.4134 36.4967 37.1288 36.9807C36.8441 37.4646 36.3789 37.8157 35.8354 37.9566C35.2918 38.0976 34.7144 38.0169 34.2303 37.7323L25.937 32.854L28.0836 29.2042L32.6333 31.882" stroke="url(#paint15_linear_50_1265)" stroke-width="0.983514" stroke-linecap="round" stroke-linejoin="round"/>
<path d="M22.7849 23.118L18.0417 31.1782L13.2534 28.3586L17.9966 20.3015L22.7849 23.118Z" stroke="url(#paint16_linear_50_1265)" stroke-width="0.983514" stroke-linecap="round" stroke-linejoin="round"/>
<path d="M18.7877 33.5328C18.565 33.9097 18.2019 34.1829 17.778 34.2927C17.3542 34.4025 16.9042 34.3399 16.5265 34.1184L11.421 31.1147C11.2243 31.0098 11.0508 30.8661 10.911 30.6923C10.7711 30.5186 10.668 30.3184 10.6075 30.1037C10.547 29.8891 10.5304 29.6644 10.559 29.4432C10.5876 29.222 10.6607 29.009 10.7737 28.8167C10.8867 28.6245 11.0375 28.457 11.2169 28.3245C11.3963 28.192 11.6006 28.0972 11.8176 28.0457C12.0346 27.9941 12.2597 27.987 12.4795 28.0246C12.6993 28.0623 12.9092 28.1441 13.0966 28.265L18.2021 31.2838C18.5764 31.5058 18.8479 31.8666 18.9576 32.2878C19.0673 32.7089 19.0061 33.1564 18.7877 33.5328Z" stroke="url(#paint17_linear_50_1265)" stroke-width="0.983514" stroke-linecap="round" stroke-linejoin="round"/>
<path d="M25.2062 22.6262C25.0964 22.8135 24.9507 22.9772 24.7775 23.1081C24.6044 23.2389 24.4072 23.3343 24.1971 23.3887C23.987 23.4431 23.7681 23.4555 23.5532 23.4252C23.3383 23.3948 23.1316 23.3223 22.9448 23.2119L17.8364 20.2082C17.4594 19.9855 17.1861 19.6225 17.0763 19.1987C16.9665 18.7749 17.0293 18.3247 17.2508 17.9471C17.4735 17.5701 17.8365 17.2969 18.2604 17.1871C18.6843 17.0773 19.1343 17.1401 19.512 17.3615L24.6204 20.3652C24.9973 20.5879 25.2707 20.9509 25.3805 21.3747C25.4903 21.7985 25.4276 22.2486 25.2062 22.6262Z" stroke="url(#paint18_linear_50_1265)" stroke-width="0.983514" stroke-linecap="round" stroke-linejoin="round"/>
<path d="M28.2615 28.8991L25.7587 33.1526C25.6656 33.3108 25.5421 33.4491 25.3955 33.5596C25.2489 33.6701 25.082 33.7506 24.9043 33.7965C24.7265 33.8425 24.5414 33.853 24.3596 33.8275C24.1777 33.8019 24.0027 33.7408 23.8445 33.6476C23.5251 33.4595 23.2933 33.1524 23.1999 32.7936C23.1066 32.4349 23.1593 32.0537 23.3464 31.7337L25.8492 27.4803C26.0374 27.16 26.3451 26.9276 26.7046 26.8342C27.0641 26.7408 27.4461 26.794 27.7664 26.9822C28.0867 27.1703 28.3192 27.478 28.4126 27.8375C28.506 28.1969 28.4528 28.5789 28.2646 28.8991H28.2615Z" stroke="url(#paint19_linear_50_1265)" stroke-width="0.983514" stroke-linecap="round" stroke-linejoin="round"/>
<defs>
<linearGradient id="paint0_linear_50_1265" x1="0.736328" y1="11.4734" x2="25.1459" y2="11.4734" gradientUnits="userSpaceOnUse">
<stop stop-color="#2C8D8A"/>
<stop offset="1" stop-color="#1E585B"/>
</linearGradient>
<linearGradient id="paint1_linear_50_1265" x1="0.736328" y1="27.1465" x2="11.9283" y2="27.1465" gradientUnits="userSpaceOnUse">
<stop stop-color="#2C8D8A"/>
<stop offset="1" stop-color="#1E585B"/>
</linearGradient>
<linearGradient id="paint2_linear_50_1265" x1="18.4766" y1="31.9142" x2="23.5365" y2="31.9142" gradientUnits="userSpaceOnUse">
<stop stop-color="#2C8D8A"/>
<stop offset="1" stop-color="#1E585B"/>
</linearGradient>
<linearGradient id="paint3_linear_50_1265" x1="25.146" y1="25.4741" x2="26.146" y2="25.4741" gradientUnits="userSpaceOnUse">
<stop stop-color="#2C8D8A"/>
<stop offset="1" stop-color="#1E585B"/>
</linearGradient>
<linearGradient id="paint4_linear_50_1265" x1="8.87598" y1="8.32024" x2="17.0034" y2="8.32024" gradientUnits="userSpaceOnUse">
<stop stop-color="#2C8D8A"/>
<stop offset="1" stop-color="#1E585B"/>
</linearGradient>
<linearGradient id="paint5_linear_50_1265" x1="11.2036" y1="8.16461" x2="14.6906" y2="8.16461" gradientUnits="userSpaceOnUse">
<stop stop-color="#2C8D8A"/>
<stop offset="1" stop-color="#1E585B"/>
</linearGradient>
<linearGradient id="paint6_linear_50_1265" x1="4.23242" y1="15.814" x2="14.6845" y2="15.814" gradientUnits="userSpaceOnUse">
<stop stop-color="#2C8D8A"/>
<stop offset="1" stop-color="#1E585B"/>
</linearGradient>
<linearGradient id="paint7_linear_50_1265" x1="4.23242" y1="18.77" x2="14.6845" y2="18.77" gradientUnits="userSpaceOnUse">
<stop stop-color="#2C8D8A"/>
<stop offset="1" stop-color="#1E585B"/>
</linearGradient>
<linearGradient id="paint8_linear_50_1265" x1="4.23242" y1="21.6316" x2="14.6845" y2="21.6316" gradientUnits="userSpaceOnUse">
<stop stop-color="#2C8D8A"/>
<stop offset="1" stop-color="#1E585B"/>
</linearGradient>
<linearGradient id="paint9_linear_50_1265" x1="4.23242" y1="24.5059" x2="10.0351" y2="24.5059" gradientUnits="userSpaceOnUse">
<stop stop-color="#2C8D8A"/>
<stop offset="1" stop-color="#1E585B"/>
</linearGradient>
<linearGradient id="paint10_linear_50_1265" x1="0.736328" y1="4.17545" x2="6.54808" y2="4.17545" gradientUnits="userSpaceOnUse">
<stop stop-color="#2C8D8A"/>
<stop offset="1" stop-color="#1E585B"/>
</linearGradient>
<linearGradient id="paint11_linear_50_1265" x1="6.92285" y1="37.0391" x2="23.5823" y2="37.0391" gradientUnits="userSpaceOnUse">
<stop stop-color="#2C8D8A"/>
<stop offset="1" stop-color="#1E585B"/>
</linearGradient>
<linearGradient id="paint12_linear_50_1265" x1="17.4048" y1="37.5197" x2="21.6587" y2="37.5197" gradientUnits="userSpaceOnUse">
<stop stop-color="#2C8D8A"/>
<stop offset="1" stop-color="#1E585B"/>
</linearGradient>
<linearGradient id="paint13_linear_50_1265" x1="8.88184" y1="37.5197" x2="16.2334" y2="37.5197" gradientUnits="userSpaceOnUse">
<stop stop-color="#2C8D8A"/>
<stop offset="1" stop-color="#1E585B"/>
</linearGradient>
<linearGradient id="paint14_linear_50_1265" x1="19.6992" y1="28.3799" x2="25.1306" y2="28.3799" gradientUnits="userSpaceOnUse">
<stop stop-color="#2C8D8A"/>
<stop offset="1" stop-color="#1E585B"/>
</linearGradient>
<linearGradient id="paint15_linear_50_1265" x1="25.937" y1="33.6143" x2="37.421" y2="33.6143" gradientUnits="userSpaceOnUse">
<stop stop-color="#2C8D8A"/>
<stop offset="1" stop-color="#1E585B"/>
</linearGradient>
<linearGradient id="paint16_linear_50_1265" x1="13.2534" y1="25.7398" x2="22.7849" y2="25.7398" gradientUnits="userSpaceOnUse">
<stop stop-color="#2C8D8A"/>
<stop offset="1" stop-color="#1E585B"/>
</linearGradient>
<linearGradient id="paint17_linear_50_1265" x1="10.5454" y1="31.1732" x2="19.0108" y2="31.1732" gradientUnits="userSpaceOnUse">
<stop stop-color="#2C8D8A"/>
<stop offset="1" stop-color="#1E585B"/>
</linearGradient>
<linearGradient id="paint18_linear_50_1265" x1="17.0234" y1="20.2878" x2="25.4334" y2="20.2878" gradientUnits="userSpaceOnUse">
<stop stop-color="#2C8D8A"/>
<stop offset="1" stop-color="#1E585B"/>
</linearGradient>
<linearGradient id="paint19_linear_50_1265" x1="23.1548" y1="30.3151" x2="28.4576" y2="30.3151" gradientUnits="userSpaceOnUse">
<stop stop-color="#2C8D8A"/>
<stop offset="1" stop-color="#1E585B"/>
</linearGradient>
</defs>
</svg>
