<svg width="35" height="35" viewBox="0 0 35 35" fill="none" xmlns="http://www.w3.org/2000/svg">
<path d="M17.4914 34.5425C20.8779 34.5413 24.188 33.5369 27.0032 31.6561C29.8185 29.7754 32.0123 27.1027 33.3076 23.9762C34.6028 20.8496 34.9413 17.4095 34.2801 14.0908C33.6189 10.772 31.9878 7.72379 29.593 5.33125C27.1981 2.93872 24.1472 1.30935 20.8258 0.649267C17.5043 -0.0108163 14.0614 0.327987 10.9326 1.62279C7.80383 2.9176 5.12958 5.11031 3.24784 7.92367C1.36609 10.737 0.361438 14.0447 0.36084 17.4286C0.36084 19.6763 0.804008 21.9019 1.66493 23.9785C2.52585 26.0551 3.78767 27.9419 5.37842 29.5311C6.96916 31.1203 8.85758 32.3808 10.9359 33.2407C13.0143 34.1005 15.242 34.5429 17.4914 34.5425Z" fill="#1E585B"/>
<path d="M27.2653 10.4216C27.4261 10.5815 27.5537 10.7715 27.6408 10.9808C27.7278 11.1901 27.7724 11.4145 27.7724 11.6412C27.7724 11.8678 27.7278 12.0923 27.6408 12.3016C27.5537 12.5109 27.4261 12.701 27.2653 12.8609L15.6819 24.4382C15.3579 24.7612 14.9188 24.9426 14.4612 24.9426C14.0035 24.9426 13.5648 24.7612 13.2408 24.4382L7.72682 18.9258C7.4031 18.6023 7.22119 18.1636 7.22119 17.7061C7.22119 17.2487 7.4031 16.81 7.72682 16.4865C8.05054 16.1631 8.48976 15.9813 8.94756 15.9813C9.40537 15.9813 9.84422 16.1631 10.1679 16.4865L14.4612 20.7763L24.8272 10.4216C24.9871 10.2614 25.1771 10.1343 25.3863 10.0475C25.5954 9.96083 25.8196 9.91626 26.046 9.91626C26.2725 9.91626 26.497 9.96083 26.7062 10.0475C26.9154 10.1343 27.1054 10.2614 27.2653 10.4216Z" fill="white"/>
</svg>
