<svg width="90" height="81" viewBox="0 0 90 81" fill="none" xmlns="http://www.w3.org/2000/svg">
<path d="M0.276558 36.5239C-0.113956 37.7254 0.203243 39.0181 1.10696 39.9024L5.37568 44.0679C5.46844 44.1547 5.45947 44.2833 5.45498 44.3103L4.43755 50.174C4.22508 51.4233 4.7338 52.6622 5.7632 53.4058C6.34224 53.8232 7.01553 54.0357 7.69183 54.0357C8.2155 54.0357 8.73918 53.91 9.22096 53.6527L14.4877 50.8817C14.4877 50.8817 14.5041 50.8817 14.5236 50.8817C14.6014 50.8817 14.76 50.8906 14.769 50.8817L16.7814 51.9425C16.5794 53.2756 17.118 54.5893 18.2147 55.3868C18.8447 55.8446 19.5793 56.075 20.3184 56.075C20.8885 56.075 21.4615 55.9374 21.9867 55.6576L28.1018 52.4362C28.2753 52.345 28.4893 52.342 28.6629 52.4317L31.5221 53.9429L31.4877 54.1449C31.2334 55.6591 31.8453 57.1553 33.0842 58.0486C34.3156 58.9403 35.9225 59.0495 37.2751 58.3358L44.5392 54.504C44.8026 54.3649 45.1677 54.3499 45.4534 54.507L52.7325 58.3343C53.3236 58.6485 53.9639 58.8027 54.6013 58.8027C55.4183 58.8027 56.2307 58.5483 56.925 58.0441C58.1653 57.1448 58.7713 55.6471 58.511 54.1389L58.4765 53.9414L61.3448 52.4258C61.5004 52.345 61.7308 52.3509 61.8894 52.4317L68.009 55.6561C68.5386 55.9359 69.1102 56.075 69.6802 56.075C70.4194 56.075 71.154 55.8431 71.7839 55.3868C72.8822 54.5893 73.4208 53.2726 73.2173 51.9425L75.2656 50.8622L75.5125 50.8817L80.7747 53.6497C81.2595 53.907 81.7862 54.0342 82.3098 54.0342C82.9861 54.0342 83.6594 53.8217 84.237 53.4058C85.2664 52.6622 85.7736 51.4233 85.5611 50.1695L84.5497 44.3357C84.5407 44.2848 84.5317 44.1561 84.6245 44.0694C84.6305 44.0649 84.6365 44.0589 84.6409 44.0544L88.8947 39.9024C89.7969 39.0211 90.1126 37.7269 89.7236 36.5254C89.3346 35.3284 88.3202 34.4696 87.0723 34.2856L81.1966 33.4342C81.0919 33.4178 81.0021 33.3534 80.9602 33.2696L78.3284 27.9371C77.7688 26.7985 76.6377 26.0923 75.3749 26.0923H75.3629C74.1001 26.0968 72.9734 26.8075 72.4288 27.9341L70.0154 32.8238L68.3187 32.5754C68.1376 32.55 67.9835 32.4392 67.8967 32.2537L64.8295 26.0504C64.216 24.8145 62.9832 24.0484 61.6111 24.0484C61.6066 24.0484 61.6036 24.0484 61.5992 24.0484C60.2271 24.0514 59.0002 24.822 58.3972 26.0534L55.541 31.8288L52.9256 31.4443C52.6248 31.4069 52.357 31.2079 52.2104 30.9101L48.5716 23.5427C47.8893 22.1707 46.5202 21.3193 44.9941 21.3193H44.9732C43.45 21.3268 42.0914 22.1842 41.4331 23.5442L37.7943 30.9101C37.6462 31.2108 37.3843 31.4054 37.0387 31.4473L34.4562 31.8273L31.6029 26.0579C30.9985 24.822 29.7701 24.0514 28.398 24.0484C27.008 24.0006 25.7841 24.8115 25.1662 26.0519L22.0885 32.2762C22.0122 32.4378 21.8595 32.5485 21.662 32.5754L19.9818 32.8208L17.5744 27.9431C17.0238 26.803 15.8971 26.0938 14.6343 26.0893H14.6223C13.3595 26.0893 12.2284 26.7955 11.6703 27.9326L9.04142 33.2592C8.99503 33.3519 8.90526 33.4148 8.81848 33.4297L2.92337 34.2856C1.67852 34.4696 0.662583 35.327 0.273566 36.5239H0.276558ZM75.1175 29.2463C75.137 29.2059 75.1968 29.0832 75.3734 29.0832C75.496 29.0832 75.5858 29.1416 75.6442 29.2583L78.282 34.6013C78.7593 35.5544 79.6765 36.2232 80.7493 36.3923L86.6399 37.2466C86.7596 37.2646 86.8404 37.3334 86.8778 37.4501C86.9167 37.5713 86.8928 37.676 86.8045 37.7613L82.5597 41.9043C81.7862 42.642 81.4271 43.7208 81.5976 44.822L82.6121 50.6767C82.6345 50.8024 82.5911 50.9056 82.4849 50.9819C82.3832 51.0537 82.2799 51.0627 82.1737 51.0073L76.9459 48.2573C76.4776 47.9925 75.9494 47.8593 75.3778 47.8593C74.8063 47.8593 74.2617 47.997 73.8382 48.2363L72.6996 48.8363L72.0547 45.0584C72.0218 44.8639 72.0847 44.6634 72.2163 44.5332C72.348 44.403 77.1763 39.6959 77.1763 39.6959C78.1548 38.7353 78.499 37.3274 78.074 36.0197C77.6476 34.7135 76.5419 33.7784 75.1833 33.5794L73.1245 33.2786L75.116 29.2478L75.1175 29.2463ZM58.6531 32.2851L61.083 27.373C61.2251 27.0813 61.4525 27.0229 61.6111 27.0409C61.7503 27.0409 62.0031 27.0858 62.1483 27.379L65.202 33.5554C65.7138 34.6357 66.7282 35.3778 67.8997 35.5364L70.5196 35.9195C70.5196 35.9195 70.5286 35.9224 70.5346 35.9239L74.7509 36.5389C75.0666 36.5853 75.1863 36.8142 75.2282 36.9444C75.2716 37.0775 75.3105 37.3334 75.0846 37.5548L70.1276 42.3876C69.9181 42.5926 69.7371 42.82 69.586 43.0639C69.2837 43.5532 69.1042 44.1083 69.0623 44.6843C69.0414 44.9731 69.0548 45.2649 69.1042 45.5566L70.2668 52.3779C70.3221 52.6951 70.1396 52.8806 70.0274 52.9644C69.9151 53.0452 69.6907 53.1604 69.4064 53.0108L63.2764 49.7804C62.7542 49.5096 62.1917 49.3735 61.6066 49.3735C61.0216 49.3735 60.4396 49.5186 59.9398 49.7864L57.9454 50.8398L57.1195 46.0369C57.0671 45.7212 57.1703 45.3995 57.4097 45.1706L63.2989 39.4176C63.4036 39.3129 63.4964 39.2081 63.5861 39.1034C63.5861 39.1034 63.5906 39.0959 63.5936 39.0914C63.6071 39.078 63.619 39.0645 63.6295 39.0496C64.3253 38.1788 64.614 37.082 64.439 35.9539C64.1622 34.2108 62.8066 32.8791 61.0815 32.6457L58.6501 32.2866L58.6531 32.2851ZM37.4457 34.4113C38.7549 34.2482 39.8905 33.4327 40.4815 32.2313L44.1248 24.8594C44.3627 24.3656 44.8101 24.3103 44.9911 24.3103H44.9971C45.1871 24.3103 45.6435 24.3671 45.8933 24.8699L49.5291 32.2298C50.1187 33.4312 51.2483 34.2467 52.5231 34.4083L60.6655 35.6067C61.1877 35.6786 61.4331 36.0751 61.4869 36.4162C61.5184 36.6122 61.5109 36.8995 61.3089 37.1628C61.273 37.2047 61.2371 37.2481 61.2012 37.2825L55.33 43.019C54.3844 43.9272 53.952 45.2424 54.1734 46.5396L55.5649 54.6462C55.6607 55.1998 55.3225 55.5125 55.1729 55.6202C55.0218 55.7279 54.6238 55.9479 54.1345 55.686L46.8733 51.8692C45.7632 51.2587 44.2714 51.2557 43.1403 51.8572L35.8791 55.6875C35.3869 55.9464 34.9859 55.7264 34.8378 55.6202C34.6866 55.511 34.347 55.1968 34.4383 54.6417L35.3973 49.0563L35.8298 46.5381C36.0482 45.2574 35.6188 43.9452 34.6821 43.0265L28.808 37.2885C28.7601 37.2421 28.7197 37.1942 28.6958 37.1643C28.4728 36.8905 28.4818 36.5957 28.5132 36.4192C28.5686 36.0706 28.811 35.6741 29.3406 35.6023L33.9116 34.9305L37.4472 34.4098L37.4457 34.4113ZM22.084 35.5379C23.272 35.3763 24.2864 34.6342 24.7861 33.5779L27.8504 27.379C27.9985 27.0828 28.2514 27.0379 28.389 27.0379C28.4998 27.0304 28.7751 27.0783 28.9187 27.376L31.3456 32.2821L28.9187 32.6397C27.1846 32.8761 25.8335 34.2063 25.5597 35.9269C25.3637 37.0446 25.6614 38.1847 26.411 39.1004C26.5023 39.2052 26.5936 39.3099 26.7058 39.4221L32.5859 45.1661C32.8208 45.3965 32.9301 45.7197 32.8777 46.0324L32.0518 50.8383L30.0663 49.7894C29.0489 49.2433 27.7711 49.2328 26.7133 49.7834L20.5878 53.0108C20.3065 53.1574 20.0805 53.0437 19.9698 52.9629C19.8576 52.8806 19.6751 52.6951 19.7304 52.3719L20.8945 45.5536C21.092 44.3881 20.7089 43.2046 19.8696 42.3861L14.9141 37.5548C14.6867 37.3304 14.7241 37.0745 14.7675 36.9414C14.8093 36.8097 14.929 36.5823 15.2433 36.5359L19.4611 35.9195C19.4611 35.9195 19.4701 35.9165 19.4746 35.915L22.0795 35.5334L22.084 35.5379ZM3.12237 37.4486C3.15977 37.3319 3.24057 37.2631 3.35728 37.2466L9.26735 36.3893C10.3237 36.2232 11.2394 35.5544 11.7226 34.5923L14.3575 29.2553C14.4143 29.1401 14.5041 29.0832 14.6268 29.0832C14.8034 29.0832 14.8632 29.2074 14.8886 29.2598L16.8741 33.2786L14.8138 33.5809C13.4583 33.7799 12.3511 34.7135 11.9246 36.0197C11.4997 37.3274 11.8423 38.7353 12.8254 39.6989L17.7823 44.5332C17.9155 44.6619 17.9783 44.8639 17.9454 45.0554L17.2991 48.8363L16.1993 48.2558C15.2747 47.7321 13.952 47.7471 13.0917 48.2348L7.822 51.0073C7.72175 51.0642 7.61552 51.0537 7.51527 50.9804C7.40904 50.9041 7.36565 50.8009 7.3866 50.6812L8.40702 44.7965C8.5746 43.7178 8.21101 42.633 7.44794 41.9103L3.19718 37.7628C3.10741 37.6745 3.08347 37.5698 3.12237 37.4486Z" fill="url(#paint0_linear_10_582)"/>
<path d="M16.0756 4.76964C15.4502 5.30978 15.3799 6.25389 15.92 6.87931L21.1643 12.96C21.459 13.3026 21.878 13.4791 22.2969 13.4791C22.6425 13.4791 22.9912 13.3594 23.2739 13.1156C23.8994 12.5754 23.9697 11.6313 23.4295 11.0059L18.1853 4.92525C17.6452 4.29833 16.7025 4.22951 16.0756 4.76964Z" fill="url(#paint1_linear_10_582)"/>
<path d="M34.5201 0.10723C33.7196 0.309219 33.2333 1.12167 33.4338 1.92364L35.1829 8.87508C35.3535 9.55437 35.9624 10.0062 36.6327 10.0062C36.7539 10.0062 36.8766 9.99126 36.9993 9.96134C37.7998 9.75935 38.286 8.9469 38.0856 8.14493L36.3365 1.19349C36.1345 0.391511 35.319 -0.0917677 34.5201 0.10723Z" fill="url(#paint2_linear_10_582)"/>
<path d="M51.2664 1.19359L49.5189 8.14503C49.3169 8.947 49.8031 9.75945 50.6051 9.95994C50.7278 9.99137 50.8505 10.0048 50.9717 10.0048C51.6405 10.0048 52.2495 9.55297 52.4215 8.87369L54.1691 1.92225C54.3711 1.12027 53.8848 0.307825 53.0829 0.107332C52.2794 -0.0961545 51.4684 0.390117 51.2664 1.19359Z" fill="url(#paint3_linear_10_582)"/>
<path d="M69.4158 4.92475L64.17 11.0054C63.6299 11.6308 63.7002 12.5764 64.3256 13.1166C64.6084 13.3604 64.957 13.4801 65.3027 13.4801C65.7216 13.4801 66.1405 13.3036 66.4353 12.9609L71.681 6.88031C72.2212 6.25489 72.1509 5.30928 71.5254 4.76914C70.8985 4.22901 69.9529 4.29933 69.4158 4.92475Z" fill="url(#paint4_linear_10_582)"/>
<path d="M70.5484 75.7174C70.894 75.7174 71.2427 75.5977 71.5254 75.3539C72.1509 74.8137 72.2212 73.8696 71.681 73.2427L66.4353 67.1621C65.8952 66.5366 64.9525 66.4663 64.3256 67.0064C63.7002 67.5466 63.6299 68.4907 64.17 69.1176L69.4158 75.1982C69.7105 75.5409 70.1295 75.7174 70.5484 75.7174Z" fill="url(#paint5_linear_10_582)"/>
<path d="M52.7157 80.0609C52.8369 80.0609 52.9596 80.0459 53.0823 80.016C53.8828 79.814 54.369 79.0016 54.1685 78.2011L52.4209 71.2496C52.219 70.4477 51.405 69.9629 50.6045 70.1634C49.8041 70.3654 49.3178 71.1778 49.5183 71.9783L51.2659 78.9297C51.4364 79.609 52.0454 80.0609 52.7157 80.0609Z" fill="url(#paint6_linear_10_582)"/>
<path d="M34.8872 80.061C35.556 80.061 36.165 79.6091 36.3371 78.9299L38.0861 71.9784C38.2881 71.1764 37.8019 70.364 36.9999 70.162C36.1979 69.9615 35.3855 70.4448 35.1835 71.2483L33.4344 78.1997C33.2324 79.0017 33.7187 79.8141 34.5206 80.0161C34.6433 80.0475 34.766 80.061 34.8872 80.061Z" fill="url(#paint7_linear_10_582)"/>
<path d="M18.1853 75.1968L23.4295 69.1161C23.9697 68.4907 23.8994 67.5466 23.2739 67.0064C22.6455 66.4663 21.7014 66.5366 21.1643 67.1621L15.92 73.2427C15.3799 73.8681 15.4502 74.8122 16.0756 75.3524C16.3584 75.5962 16.707 75.7159 17.0527 75.7159C17.4716 75.7159 17.8905 75.5394 18.1853 75.1968Z" fill="url(#paint8_linear_10_582)"/>
<defs>
<linearGradient id="paint0_linear_10_582" x1="0.112305" y1="40.0614" x2="89.8872" y2="40.0614" gradientUnits="userSpaceOnUse">
<stop stop-color="#2C8D8A"/>
<stop offset="1" stop-color="#1E585B"/>
</linearGradient>
<linearGradient id="paint1_linear_10_582" x1="15.5566" y1="8.94245" x2="23.7929" y2="8.94245" gradientUnits="userSpaceOnUse">
<stop stop-color="#2C8D8A"/>
<stop offset="1" stop-color="#1E585B"/>
</linearGradient>
<linearGradient id="paint2_linear_10_582" x1="33.3887" y1="5.03436" x2="38.1307" y2="5.03436" gradientUnits="userSpaceOnUse">
<stop stop-color="#2C8D8A"/>
<stop offset="1" stop-color="#1E585B"/>
</linearGradient>
<linearGradient id="paint3_linear_10_582" x1="49.4731" y1="5.03293" x2="54.2148" y2="5.03293" gradientUnits="userSpaceOnUse">
<stop stop-color="#2C8D8A"/>
<stop offset="1" stop-color="#1E585B"/>
</linearGradient>
<linearGradient id="paint4_linear_10_582" x1="63.8066" y1="8.94295" x2="72.0444" y2="8.94295" gradientUnits="userSpaceOnUse">
<stop stop-color="#2C8D8A"/>
<stop offset="1" stop-color="#1E585B"/>
</linearGradient>
<linearGradient id="paint5_linear_10_582" x1="63.8066" y1="71.1803" x2="72.0444" y2="71.1803" gradientUnits="userSpaceOnUse">
<stop stop-color="#2C8D8A"/>
<stop offset="1" stop-color="#1E585B"/>
</linearGradient>
<linearGradient id="paint6_linear_10_582" x1="49.4731" y1="75.0895" x2="54.2137" y2="75.0895" gradientUnits="userSpaceOnUse">
<stop stop-color="#2C8D8A"/>
<stop offset="1" stop-color="#1E585B"/>
</linearGradient>
<linearGradient id="paint7_linear_10_582" x1="33.3887" y1="75.0888" x2="38.1318" y2="75.0888" gradientUnits="userSpaceOnUse">
<stop stop-color="#2C8D8A"/>
<stop offset="1" stop-color="#1E585B"/>
</linearGradient>
<linearGradient id="paint8_linear_10_582" x1="15.5566" y1="71.1795" x2="23.7929" y2="71.1795" gradientUnits="userSpaceOnUse">
<stop stop-color="#2C8D8A"/>
<stop offset="1" stop-color="#1E585B"/>
</linearGradient>
</defs>
</svg>
