<svg width="62" height="62" viewBox="0 0 62 62" fill="none" xmlns="http://www.w3.org/2000/svg">
<path d="M31.1217 61.2552C37.129 61.2552 43.0013 59.4741 47.9962 56.137C52.9911 52.7998 56.8841 48.0566 59.183 42.5072C61.4819 36.9578 62.0835 30.8514 60.9115 24.9601C59.7395 19.0689 56.8467 13.6575 52.5988 9.41012C48.351 5.16277 42.9393 2.27029 37.0474 1.09845C31.1555 -0.0733857 25.0484 0.52807 19.4983 2.82672C13.9483 5.12536 9.20474 9.01793 5.86726 14.0123C2.52978 19.0066 0.748291 24.8784 0.748291 30.8851C0.748291 34.8733 1.534 38.8225 3.06041 42.5072C4.58682 46.1919 6.82384 49.5399 9.64428 52.36C12.4647 55.1801 15.8133 57.4172 19.4983 58.9434C23.1834 60.4697 27.133 61.2552 31.1217 61.2552Z" fill="#ECF8F2"/>
<path d="M20.6802 39.7409C19.9942 39.7138 19.346 39.4201 18.8732 38.9224C18.4005 38.4247 18.1404 37.7623 18.1486 37.0759C18.1455 36.6547 18.2409 36.2384 18.4269 35.8604C18.6129 35.4824 18.8845 35.153 19.2202 34.8984C19.3847 34.7663 19.5166 34.598 19.6054 34.4066C19.6941 34.2151 19.7375 34.0058 19.7319 33.7949V26.7829C19.7319 26.5314 19.8317 26.2903 20.0095 26.1125C20.1873 25.9346 20.4287 25.8347 20.6802 25.8347C20.9316 25.8347 21.1726 25.9346 21.3505 26.1125C21.5283 26.2903 21.6284 26.5314 21.6284 26.7829V33.8056C21.633 34.3119 21.52 34.8123 21.2988 35.2677C21.0776 35.7231 20.754 36.1211 20.3532 36.4305C20.2545 36.5083 20.1754 36.6082 20.1223 36.7222C20.0693 36.8361 20.0438 36.961 20.0478 37.0866C20.0385 37.2705 20.0983 37.4511 20.2152 37.5933C20.3321 37.7354 20.498 37.8289 20.6802 37.8553C20.865 37.835 21.0345 37.7433 21.1526 37.5996C21.2708 37.456 21.328 37.2719 21.3122 37.0866C21.3122 36.8348 21.4121 36.5933 21.5902 36.4153C21.7682 36.2372 22.0099 36.1371 22.2618 36.1371C22.5136 36.1371 22.755 36.2372 22.9331 36.4153C23.1112 36.5933 23.2114 36.8348 23.2114 37.0866C23.2279 37.7754 22.9707 38.4425 22.4962 38.942C22.0218 39.4415 21.3689 39.7327 20.6802 39.7516" fill="#1E585B"/>
<path d="M37.7644 46.0684C37.6398 46.0688 37.5164 46.0445 37.4011 45.997C37.2859 45.9495 37.1812 45.8796 37.0931 45.7915C37.005 45.7034 36.9353 45.5987 36.8878 45.4835C36.8402 45.3683 36.8158 45.2449 36.8162 45.1203V26.1413C36.8162 25.8898 36.9163 25.6487 37.0941 25.4709C37.2719 25.293 37.5129 25.1931 37.7644 25.1931C38.0159 25.1931 38.2572 25.293 38.4351 25.4709C38.6129 25.6487 38.7127 25.8898 38.7127 26.1413V45.1203C38.7127 45.3717 38.6129 45.6129 38.4351 45.7907C38.2572 45.9685 38.0159 46.0684 37.7644 46.0684Z" fill="#1E585B"/>
<path d="M33.3342 46.0684C33.0828 46.0684 32.8414 45.9685 32.6636 45.7907C32.4858 45.6129 32.386 45.3717 32.386 45.1203V26.1413C32.386 25.8898 32.4858 25.6487 32.6636 25.4709C32.8414 25.293 33.0828 25.1931 33.3342 25.1931C33.5857 25.1931 33.8267 25.293 34.0046 25.4709C34.1824 25.6487 34.2825 25.8898 34.2825 26.1413V45.1203C34.2829 45.2449 34.2584 45.3683 34.2109 45.4835C34.1634 45.5987 34.0937 45.7034 34.0055 45.7915C33.9174 45.8796 33.8127 45.9495 33.6975 45.997C33.5823 46.0445 33.4589 46.0688 33.3342 46.0684Z" fill="#1E585B"/>
<path d="M37.7646 43.8549C37.6289 43.8551 37.4947 43.8261 37.3712 43.7697C37.2478 43.7133 37.1381 43.6309 37.0495 43.5282L32.6217 38.4687C32.5396 38.375 32.4767 38.266 32.4367 38.148C32.3967 38.03 32.3801 37.9052 32.3883 37.7808C32.3965 37.6565 32.4292 37.535 32.4844 37.4232C32.5396 37.3115 32.6163 37.2117 32.71 37.1295C32.8038 37.0474 32.9128 36.9846 33.0308 36.9446C33.1488 36.9046 33.2736 36.8881 33.398 36.8963C33.5224 36.9046 33.644 36.9372 33.7557 36.9924C33.8675 37.0476 33.9672 37.1242 34.0494 37.2179L38.4771 42.2801C38.5977 42.417 38.6763 42.5858 38.7034 42.7663C38.7304 42.9468 38.7047 43.1313 38.6295 43.2976C38.5542 43.4639 38.4327 43.6049 38.2793 43.7038C38.1258 43.8027 37.9471 43.8551 37.7646 43.8549Z" fill="#1E585B"/>
<path d="M37.7646 38.1606C37.6292 38.1606 37.4952 38.1316 37.3719 38.0757C37.2485 38.0199 37.1387 37.9383 37.0495 37.8365L32.6217 32.7743C32.5396 32.6806 32.4767 32.5716 32.4367 32.4536C32.3967 32.3356 32.3801 32.2108 32.3883 32.0864C32.3965 31.9621 32.4292 31.8406 32.4844 31.7288C32.5396 31.6171 32.6163 31.5173 32.71 31.4351C32.8038 31.353 32.9128 31.2902 33.0308 31.2502C33.1488 31.2102 33.2736 31.1938 33.398 31.202C33.5224 31.2102 33.644 31.2428 33.7557 31.298C33.8675 31.3531 33.9672 31.4298 34.0494 31.5236L38.4771 36.5857C38.5977 36.7226 38.6763 36.8915 38.7034 37.072C38.7304 37.2525 38.7047 37.4369 38.6295 37.6032C38.5542 37.7695 38.4327 37.9105 38.2793 38.0094C38.1258 38.1082 37.9471 38.1608 37.7646 38.1606Z" fill="#1E585B"/>
<path d="M37.7645 32.4673C37.6291 32.4673 37.4951 32.4384 37.3718 32.3825C37.2484 32.3266 37.1386 32.245 37.0494 32.1432L32.6216 27.081C32.5388 26.9874 32.4752 26.8783 32.4346 26.7601C32.3941 26.6418 32.3773 26.5168 32.3852 26.392C32.3932 26.2673 32.4257 26.1453 32.481 26.0332C32.5363 25.9211 32.6132 25.821 32.7073 25.7388C32.8014 25.6565 32.9109 25.5936 33.0294 25.5538C33.1479 25.514 33.2732 25.498 33.3979 25.5067C33.5226 25.5155 33.6442 25.5488 33.756 25.6048C33.8677 25.6608 33.9676 25.7383 34.0493 25.8329L38.477 30.8923C38.5976 31.0293 38.6762 31.1982 38.7033 31.3787C38.7303 31.5592 38.7046 31.7436 38.6294 31.9099C38.5541 32.0762 38.4326 32.2173 38.2792 32.3161C38.1257 32.415 37.947 32.4674 37.7645 32.4673Z" fill="#1E585B"/>
<path d="M45.6237 23.0155L38.0298 20.8004C37.9941 20.7977 37.9582 20.7977 37.9225 20.8004C37.8712 20.7841 37.8183 20.7733 37.7646 20.7683H33.3342C33.3125 20.7712 33.2909 20.7757 33.2698 20.7817C33.2502 20.7805 33.2306 20.7805 33.211 20.7817L16.7583 22.9967C16.5304 23.0267 16.3214 23.1386 16.1701 23.3117C16.0187 23.4847 15.9356 23.707 15.9363 23.9369V26.1492C15.9359 26.2739 15.9601 26.3975 16.0076 26.5128C16.0551 26.6282 16.1248 26.7331 16.2129 26.8214C16.301 26.9097 16.4057 26.9798 16.5209 27.0276C16.6362 27.0754 16.7598 27.1 16.8845 27.1H45.3559C45.6081 27.1 45.8502 26.9999 46.0285 26.8216C46.2068 26.6432 46.3068 26.4014 46.3068 26.1492V23.9369C46.3068 23.7316 46.2403 23.5319 46.1171 23.3677C45.9939 23.2034 45.8208 23.0836 45.6237 23.0262" fill="#1E585B"/>
<path d="M35.5491 22.3429C35.2976 22.3429 35.0566 22.2429 34.8788 22.0651C34.7009 21.8873 34.6008 21.6462 34.6008 21.3947V16.6486C34.6008 16.3971 34.7009 16.156 34.8788 15.9782C35.0566 15.8004 35.2976 15.7004 35.5491 15.7004C35.8006 15.7004 36.0419 15.8004 36.2197 15.9782C36.3976 16.156 36.4974 16.3971 36.4974 16.6486V21.3947C36.4974 21.6462 36.3976 21.8873 36.2197 22.0651C36.0419 22.2429 35.8006 22.3429 35.5491 22.3429Z" fill="#1E585B"/>
<path d="M45.3559 30.8837H41.8738C41.6223 30.8837 41.381 30.7838 41.2031 30.606C41.0253 30.4282 40.9255 30.187 40.9255 29.9356V26.1376C40.9262 25.8864 41.0261 25.6456 41.2038 25.4679C41.3815 25.2903 41.6225 25.1902 41.8738 25.1895H45.3559C45.6074 25.1895 45.8487 25.2894 46.0265 25.4672C46.2044 25.645 46.3041 25.8861 46.3041 26.1376V29.9356C46.3045 30.0602 46.2804 30.1836 46.2329 30.2988C46.1853 30.414 46.1153 30.5187 46.0272 30.6068C45.9391 30.6949 45.8344 30.7647 45.7192 30.8123C45.604 30.8598 45.4805 30.8841 45.3559 30.8837Z" fill="#1E585B"/>
<path d="M18.4589 24.5814C18.2388 24.582 18.0255 24.5059 17.8553 24.3662C17.6851 24.2266 17.5688 24.032 17.5264 23.816C17.4839 23.6 17.5178 23.3761 17.6225 23.1824C17.7272 22.9888 17.8962 22.8376 18.1002 22.7548L35.1846 15.7722C35.3419 15.7079 35.5138 15.6868 35.682 15.7113C35.8501 15.7358 36.0086 15.805 36.141 15.9115L44.367 22.5539C44.5544 22.7151 44.6717 22.9428 44.694 23.1889C44.7163 23.435 44.642 23.6801 44.4867 23.8723C44.3314 24.0645 44.1075 24.1886 43.8622 24.2185C43.6169 24.2484 43.3695 24.1816 43.1726 24.0323L35.3857 17.7382L18.818 24.5091C18.7042 24.5564 18.5821 24.5809 18.4589 24.5814Z" fill="#1E585B"/>
</svg>
