<svg width="40" height="40" viewBox="0 0 40 40" fill="none" xmlns="http://www.w3.org/2000/svg">
<path d="M20.4255 39.8059C24.2757 39.8059 28.0392 38.6651 31.2405 36.5277C34.4419 34.3903 36.9373 31.3522 38.4107 27.7978C39.8842 24.2434 40.2698 20.3323 39.5186 16.559C38.7675 12.7857 36.9133 9.31977 34.1908 6.59936C31.4682 3.87894 27.9996 2.02621 24.2233 1.27565C20.4471 0.525094 16.5329 0.910213 12.9757 2.38249C9.41852 3.85477 6.37808 6.348 4.23899 9.54687C2.0999 12.7457 0.958008 16.5066 0.958008 20.3539C0.958008 25.5129 3.00898 30.4606 6.65979 34.1086C10.3106 37.7565 15.2625 39.8059 20.4255 39.8059Z" fill="#3D3D3D"/>
<path d="M27.7261 25.291L22.7843 20.3533L27.7261 15.4158C28.0237 15.1001 28.1862 14.6809 28.1797 14.2474C28.1732 13.8138 27.9982 13.3998 27.6913 13.0932C27.3845 12.7866 26.97 12.6115 26.5361 12.605C26.1021 12.5985 25.6829 12.7611 25.3669 13.0584L20.4256 17.9959L15.4838 13.0584C15.1709 12.7463 14.7467 12.571 14.3046 12.5713C13.8625 12.5716 13.4386 12.7475 13.1263 13.0601C12.8139 13.3727 12.6388 13.7966 12.6392 14.2384C12.6395 14.6801 12.8155 15.1036 13.1284 15.4158L18.0697 20.3533L13.1284 25.291C12.9737 25.4456 12.8507 25.629 12.767 25.8309C12.6833 26.0329 12.6404 26.2494 12.6404 26.468C12.6404 26.6866 12.6833 26.9029 12.767 27.1049C12.8507 27.3068 12.9737 27.4902 13.1284 27.6448C13.283 27.7993 13.4666 27.922 13.6687 28.0056C13.8708 28.0893 14.0871 28.1323 14.3058 28.1323C14.5246 28.1323 14.7413 28.0893 14.9434 28.0056C15.1455 27.922 15.3291 27.7993 15.4838 27.6448L20.4256 22.7073L25.3669 27.6448C25.6793 27.9574 26.1032 28.1333 26.5453 28.1336C26.9874 28.1339 27.4116 27.9586 27.7245 27.6465C28.0373 27.3343 28.2129 26.9108 28.2132 26.469C28.2136 26.0273 28.0385 25.6036 27.7261 25.291Z" fill="#111111"/>
<path d="M27.7261 25.291L22.7843 20.3533L27.7261 15.4158C28.0237 15.1001 28.1862 14.6809 28.1797 14.2474C28.1732 13.8138 27.9982 13.3998 27.6913 13.0932C27.3845 12.7866 26.97 12.6115 26.5361 12.605C26.1021 12.5985 25.6829 12.7611 25.3669 13.0584L20.4256 17.9959L15.4838 13.0584C15.1709 12.7463 14.7467 12.571 14.3046 12.5713C13.8625 12.5716 13.4386 12.7475 13.1263 13.0601C12.8139 13.3727 12.6388 13.7966 12.6392 14.2384C12.6395 14.6801 12.8155 15.1036 13.1284 15.4158L18.0697 20.3533L13.1284 25.291C12.9737 25.4456 12.8507 25.629 12.767 25.8309C12.6833 26.0329 12.6404 26.2494 12.6404 26.468C12.6404 26.6866 12.6833 26.9029 12.767 27.1049C12.8507 27.3068 12.9737 27.4902 13.1284 27.6448C13.283 27.7993 13.4666 27.922 13.6687 28.0056C13.8708 28.0893 14.0871 28.1323 14.3058 28.1323C14.5246 28.1323 14.7413 28.0893 14.9434 28.0056C15.1455 27.922 15.3291 27.7993 15.4838 27.6448L20.4256 22.7073L25.3669 27.6448C25.6793 27.9574 26.1032 28.1333 26.5453 28.1336C26.9874 28.1339 27.4116 27.9586 27.7245 27.6465C28.0373 27.3343 28.2129 26.9108 28.2132 26.469C28.2136 26.0273 28.0385 25.6036 27.7261 25.291Z" fill="#111111"/>
<path d="M27.7261 25.291L22.7843 20.3533L27.7261 15.4158C28.0237 15.1001 28.1862 14.6809 28.1797 14.2474C28.1732 13.8138 27.9982 13.3998 27.6913 13.0932C27.3845 12.7866 26.97 12.6115 26.5361 12.605C26.1021 12.5985 25.6829 12.7611 25.3669 13.0584L20.4256 17.9959L15.4838 13.0584C15.1709 12.7463 14.7467 12.571 14.3046 12.5713C13.8625 12.5716 13.4386 12.7475 13.1263 13.0601C12.8139 13.3727 12.6388 13.7966 12.6392 14.2384C12.6395 14.6801 12.8155 15.1036 13.1284 15.4158L18.0697 20.3533L13.1284 25.291C12.9737 25.4456 12.8507 25.629 12.767 25.8309C12.6833 26.0329 12.6404 26.2494 12.6404 26.468C12.6404 26.6866 12.6833 26.9029 12.767 27.1049C12.8507 27.3068 12.9737 27.4902 13.1284 27.6448C13.283 27.7993 13.4666 27.922 13.6687 28.0056C13.8708 28.0893 14.0871 28.1323 14.3058 28.1323C14.5246 28.1323 14.7413 28.0893 14.9434 28.0056C15.1455 27.922 15.3291 27.7993 15.4838 27.6448L20.4256 22.7073L25.3669 27.6448C25.6793 27.9574 26.1032 28.1333 26.5453 28.1336C26.9874 28.1339 27.4116 27.9586 27.7245 27.6465C28.0373 27.3343 28.2129 26.9108 28.2132 26.469C28.2136 26.0273 28.0385 25.6036 27.7261 25.291Z" fill="white"/>
</svg>
