<svg width="62" height="62" viewBox="0 0 62 62" fill="none" xmlns="http://www.w3.org/2000/svg">
<path d="M31.026 61.2552C37.0333 61.2552 42.9056 59.4741 47.9005 56.137C52.8954 52.7998 56.7884 48.0566 59.0873 42.5072C61.3862 36.9578 61.9878 30.8514 60.8158 24.9601C59.6438 19.0689 56.7509 13.6575 52.5031 9.41012C48.2553 5.16277 42.8432 2.27029 36.9513 1.09845C31.0595 -0.0733857 24.9527 0.52807 19.4026 2.82672C13.8526 5.12536 9.10871 9.01793 5.77123 14.0123C2.43375 19.0066 0.652588 24.8784 0.652588 30.8851C0.652588 34.8733 1.43797 38.8225 2.96438 42.5072C4.49079 46.1919 6.72814 49.5399 9.54858 52.36C12.369 55.1801 15.7176 57.4172 19.4026 58.9434C23.0877 60.4697 27.0373 61.2552 31.026 61.2552Z" fill="#ECF8F2"/>
<path d="M37.0287 23.8215C37.0518 23.974 37.0416 24.1297 36.999 24.2779C36.9563 24.4262 36.8821 24.5634 36.7815 24.6803C36.6809 24.7973 36.5565 24.8911 36.4163 24.9555C36.2761 25.0198 36.1236 25.0531 35.9693 25.0531C35.815 25.0531 35.6625 25.0198 35.5223 24.9555C35.3821 24.8911 35.2577 24.7973 35.1571 24.6803C35.0565 24.5634 34.9823 24.4262 34.9396 24.2779C34.897 24.1297 34.8868 23.974 34.9099 23.8215V21.6949C34.9099 20.6649 34.5007 19.6771 33.7723 18.9487C33.0439 18.2204 32.056 17.8112 31.0259 17.8112C29.9958 17.8112 29.0076 18.2204 28.2792 18.9487C27.5508 19.6771 27.1417 20.6649 27.1417 21.6949V23.8134C27.1647 23.9659 27.1545 24.1216 27.1119 24.2699C27.0693 24.4181 26.9954 24.5554 26.8948 24.6723C26.7942 24.7893 26.6694 24.8831 26.5292 24.9475C26.389 25.0118 26.2365 25.0451 26.0822 25.0451C25.928 25.0451 25.7758 25.0118 25.6356 24.9475C25.4954 24.8831 25.3706 24.7893 25.27 24.6723C25.1694 24.5554 25.0952 24.4181 25.0525 24.2699C25.0099 24.1216 24.9997 23.9659 25.0228 23.8134V21.6949C25.0228 20.103 25.6552 18.5763 26.781 17.4506C27.9067 16.325 29.4339 15.6926 31.0259 15.6926C32.618 15.6926 34.1448 16.325 35.2705 17.4506C36.3963 18.5763 37.0287 20.103 37.0287 21.6949V23.8215Z" fill="#1E585B"/>
<path d="M34.5373 29.0175C34.2221 29.682 33.7248 30.2434 33.1032 30.6365C32.4815 31.0296 31.7613 31.2383 31.0258 31.2383C30.2903 31.2383 29.5698 31.0296 28.9481 30.6365C28.3265 30.2434 27.8292 29.682 27.514 29.0175C27.4694 28.8697 27.3935 28.7333 27.2913 28.6176C27.1891 28.5019 27.063 28.4096 26.9218 28.3471C26.7806 28.2846 26.6276 28.2533 26.4732 28.2555C26.3188 28.2576 26.1669 28.2931 26.0275 28.3594C25.8881 28.4258 25.7645 28.5215 25.6655 28.64C25.5666 28.7585 25.4944 28.897 25.454 29.046C25.4135 29.1949 25.406 29.3508 25.4314 29.5031C25.4568 29.6554 25.5148 29.8004 25.6014 29.9281C26.0894 30.9537 26.8581 31.82 27.8184 32.4265C28.7787 33.0331 29.8913 33.355 31.0271 33.355C32.163 33.355 33.2755 33.0331 34.2358 32.4265C35.1961 31.82 35.9649 30.9537 36.4528 29.9281C36.5289 29.6821 36.5138 29.417 36.4103 29.1811C36.3068 28.9453 36.1217 28.7547 35.8891 28.6441C35.6565 28.5335 35.3921 28.5104 35.1439 28.579C34.8956 28.6476 34.6801 28.8032 34.5373 29.0175ZM41.3975 25.7285L42.5279 42.6799C42.5565 43.1139 42.4958 43.5493 42.3493 43.9589C42.2029 44.3685 41.974 44.7437 41.6767 45.0613C41.3794 45.3789 41.02 45.6321 40.6209 45.8053C40.2218 45.9785 39.7915 46.0679 39.3564 46.0681H22.6952C22.26 46.0683 21.8293 45.9791 21.4301 45.8061C21.0308 45.6331 20.6713 45.3799 20.3739 45.0622C20.0765 44.7445 19.8476 44.3691 19.7013 43.9593C19.555 43.5495 19.4944 43.114 19.5234 42.6799L20.6538 25.7285C20.7075 24.9241 21.0651 24.1703 21.6541 23.6197C22.243 23.0692 23.0193 22.763 23.8256 22.7634H38.226C39.0321 22.7636 39.8078 23.0699 40.3966 23.6204C40.9854 24.1708 41.3432 24.9243 41.3975 25.7285Z" fill="#1E585B"/>
</svg>
