<svg width="181" height="34" viewBox="0 0 181 34" fill="none" xmlns="http://www.w3.org/2000/svg">
<path d="M7.70083 19.4978H21.3964V13.9819H0.854004V32.6011H22.6264V27.0833H7.70083V19.4978Z" fill="white"/>
<path d="M52.1234 11.3952C52.1234 5.02408 47.9103 1.05273 40.5383 1.05273H27.8931V32.5995H34.7418V21.4018H39.6578L45.8037 32.5995H53.3534L46.5046 20.3611C48.2476 19.6231 49.7216 18.3671 50.7267 16.7633C51.7318 15.1595 52.2194 13.2855 52.1234 11.3952ZM39.3064 16.0519H34.7418V6.5686H39.3064C43.1681 6.5686 45.0989 8.29267 45.0989 11.3952C45.0989 14.4978 43.1681 16.0519 39.3064 16.0519Z" fill="white"/>
<path d="M69.5071 1.05273H56.6997V32.5995H63.5465V22.4231H69.3391C76.8888 22.4231 81.1038 18.1139 81.1038 11.735C81.0961 5.53377 76.881 1.05273 69.5071 1.05273ZM68.2771 17.0771H63.7126V6.5686H68.2849C72.1466 6.5686 74.0774 8.63825 74.0774 11.7408C74.0774 15.0171 72.1466 17.0848 68.2849 17.0848L68.2771 17.0771Z" fill="white"/>
<path d="M22.4507 1.05273H0.854004V6.5686H22.4507V1.05273Z" fill="white"/>
<path d="M106.386 21.1083H106.102L92.1324 0.755371H86.1274V33.1169H92.9704V12.7486H93.2079L107.288 33.1169H113.198V0.755371H106.386V21.1083Z" fill="white"/>
<path d="M136.649 11.5959C135.62 10.572 134.379 9.78645 133.013 9.29461C131.581 8.76954 130.066 8.5079 128.541 8.52235C126.36 8.47107 124.207 9.0172 122.314 10.1016C120.558 11.1521 119.138 12.6819 118.221 14.5112C117.217 16.5511 116.718 18.8025 116.767 21.0754C116.709 23.3771 117.208 25.6587 118.221 27.7265C119.142 29.5527 120.583 31.066 122.362 32.0763C124.344 33.1317 126.565 33.6546 128.809 33.5937C130.617 33.6278 132.414 33.3165 134.104 32.6767C135.545 32.1228 136.834 31.2349 137.865 30.0858C138.843 28.9708 139.514 27.6199 139.81 26.1665L133.583 25.7553C133.367 26.3401 133.021 26.8683 132.571 27.2998C132.115 27.7292 131.569 28.0529 130.974 28.2478C130.309 28.4663 129.613 28.574 128.914 28.5663C127.894 28.5926 126.885 28.3474 125.99 27.8559C125.17 27.3821 124.505 26.6788 124.079 25.8325C123.615 24.862 123.387 23.7956 123.415 22.7203V22.703H139.945V20.8553C139.983 19.0158 139.688 17.1845 139.076 15.4495C138.561 14.0016 137.732 12.6855 136.649 11.5959ZM123.449 18.5328C123.473 17.6969 123.696 16.8787 124.1 16.1465C124.532 15.3675 125.165 14.7182 125.932 14.266C126.756 13.7825 127.697 13.536 128.651 13.5536C129.553 13.5334 130.443 13.7576 131.227 14.2023C131.964 14.6122 132.572 15.2201 132.982 15.9573C133.413 16.7461 133.631 17.6339 133.613 18.5328H123.449Z" fill="white"/>
<path d="M164.486 8.84473H157.579L153.012 17.3396L148.556 8.84473H141.605L148.556 20.9808L141.35 33.1168H148.301L153.011 24.7262L157.799 33.1168H164.673L157.452 20.9808L164.486 8.84473Z" fill="white"/>
<path d="M179.8 27.8077C179.632 27.8386 179.389 27.8869 179.072 27.9506C178.759 28.0029 178.442 28.0294 178.124 28.0298C177.714 28.037 177.307 27.9669 176.923 27.8232C176.585 27.6856 176.306 27.4343 176.133 27.1127C175.921 26.6585 175.824 26.1594 175.849 25.6589V13.9032H180.416V8.8449H175.849V3.02979H169.116V8.8449H165.792V13.9032H169.111V26.5432C169.047 27.9292 169.393 29.3034 170.107 30.4933C170.784 31.5404 171.774 32.3477 172.936 32.8004C174.296 33.3185 175.75 33.5397 177.203 33.4491C177.953 33.4329 178.699 33.343 179.431 33.1807C180.041 33.0436 180.516 32.922 180.852 32.8178L179.8 27.8077Z" fill="white"/>
</svg>
