<svg width="137" height="137" viewBox="0 0 137 137" fill="none" xmlns="http://www.w3.org/2000/svg">
<path d="M0.667671 0.691895H5.35648V5.38046H0.667671V0.691895ZM5.35648 0.691895H10.0426V5.38046H5.35648V0.691895ZM10.0426 0.691895H14.7312V5.38046H10.0426V0.691895ZM14.7312 0.691895H19.42V5.38046H14.7312V0.691895ZM19.42 0.691895H24.1085V5.38046H19.42V0.691895ZM24.1085 0.691895H28.797V5.38046H24.1181L24.1085 0.691895ZM28.797 0.691895H33.4858V5.38046H28.797V0.691895ZM47.5516 0.691895H52.2401V5.38046H47.5516V0.691895ZM56.9289 0.691895H61.6175V5.38046H56.9289V0.691895ZM61.6175 0.691895H66.306V5.38046H61.6175V0.691895ZM70.9948 0.691895H75.6809V5.38046H70.9948V0.691895ZM85.0583 0.691895H89.7468V5.38046H85.0583V0.691895ZM89.7468 0.691895H94.4353V5.38046H89.7468V0.691895ZM94.4353 0.691895H99.1241V5.38046H94.4353V0.691895ZM103.813 0.691895H108.501V5.38046H103.813V0.691895ZM108.501 0.691895H113.19V5.38046H108.501V0.691895ZM113.19 0.691895H117.878V5.38046H113.19V0.691895ZM117.878 0.691895H122.567V5.38046H117.878V0.691895ZM122.567 0.691895H127.256V5.38046H122.567V0.691895ZM127.256 0.691895H131.944V5.38046H127.256V0.691895ZM131.944 0.691895H136.63V5.38046H131.944V0.691895ZM0.667671 5.38046H5.35648V10.069H0.667671V5.38046ZM28.797 5.38046H33.4858V10.069H28.797V5.38046ZM38.1743 5.38046H42.8628V10.069H38.1743V5.38046ZM47.5516 5.38046H52.2401V10.069H47.5516V5.38046ZM61.6175 5.38046H66.306V10.069H61.6175V5.38046ZM66.306 5.38046H70.9948V10.069H66.306V5.38046ZM70.9948 5.38046H75.6809V10.069H70.9948V5.38046ZM75.6809 5.38046H80.3695V10.069H75.6809V5.38046ZM85.0583 5.38046H89.7468V10.069H85.0583V5.38046ZM94.4353 5.38046H99.1241V10.069H94.4353V5.38046ZM103.813 5.38046H108.501V10.069H103.813V5.38046ZM131.944 5.38046H136.63V10.069H131.944V5.38046ZM0.667671 10.069H5.35648V14.7574H0.667671V10.069ZM10.0426 10.069H14.7312V14.7574H10.0426V10.069ZM14.7312 10.069H19.42V14.7574H14.7312V10.069ZM19.42 10.069H24.1085V14.7574H19.42V10.069ZM28.797 10.069H33.4858V14.7574H28.797V10.069ZM56.9289 10.069H61.6175V14.7574H56.9289V10.069ZM61.6175 10.069H66.306V14.7574H61.6175V10.069ZM75.6809 10.069H80.3695V14.7574H75.6809V10.069ZM89.7468 10.069H94.4353V14.7574H89.7468V10.069ZM103.813 10.069H108.501V14.7574H103.813V10.069ZM113.19 10.069H117.878V14.7574H113.19V10.069ZM117.878 10.069H122.567V14.7574H117.878V10.069ZM122.567 10.069H127.256V14.7574H122.567V10.069ZM131.944 10.069H136.63V14.7574H131.944V10.069ZM0.667671 14.7574H5.35648V19.4485H0.667671V14.7574ZM10.0426 14.7574H14.7312V19.4485H10.0426V14.7574ZM14.7312 14.7574H19.42V19.4485H14.7312V14.7574ZM19.42 14.7574H24.1085V19.4485H19.42V14.7574ZM28.797 14.7574H33.4858V19.4485H28.797V14.7574ZM38.1743 14.7574H42.8628V19.4485H38.1743V14.7574ZM42.8628 14.7574H47.5516V19.4485H42.8628V14.7574ZM47.5516 14.7574H52.2401V19.4485H47.5516V14.7574ZM56.9289 14.7574H61.6175V19.4485H56.9289V14.7574ZM66.306 14.7574H70.9948V19.4485H66.306V14.7574ZM80.3695 14.7574H85.0583V19.4485H80.3695V14.7574ZM94.4353 14.7574H99.1241V19.4485H94.4353V14.7574ZM103.813 14.7574H108.501V19.4485H103.813V14.7574ZM113.19 14.7574H117.878V19.4485H113.19V14.7574ZM117.878 14.7574H122.567V19.4485H117.878V14.7574ZM122.567 14.7574H127.256V19.4485H122.567V14.7574ZM131.944 14.7574H136.63V19.4485H131.944V14.7574ZM0.667671 19.446H5.35648V24.1346H0.667671V19.446ZM10.0426 19.446H14.7312V24.1346H10.0426V19.446ZM14.7312 19.446H19.42V24.1346H14.7312V19.446ZM19.42 19.446H24.1085V24.1346H19.42V19.446ZM28.797 19.446H33.4858V24.1346H28.797V19.446ZM42.8628 19.446H47.5516V24.1346H42.8628V19.446ZM75.6809 19.446H80.3695V24.1346H75.6809V19.446ZM80.3695 19.446H85.0583V24.1346H80.3695V19.446ZM85.0583 19.446H89.7468V24.1346H85.0583V19.446ZM89.7468 19.446H94.4353V24.1346H89.7468V19.446ZM94.4353 19.446H99.1241V24.1346H94.4353V19.446ZM103.813 19.446H108.501V24.1346H103.813V19.446ZM113.19 19.446H117.878V24.1346H113.19V19.446ZM117.878 19.446H122.567V24.1346H117.878V19.446ZM122.567 19.446H127.256V24.1346H122.567V19.446ZM131.944 19.446H136.63V24.1346H131.944V19.446ZM0.667671 24.1346H5.35648V28.8207H0.667671V24.1346ZM28.797 24.1346H33.4858V28.8207H28.797V24.1346ZM38.1743 24.1346H42.8628V28.8207H38.1743V24.1346ZM42.8628 24.1346H47.5516V28.8207H42.8628V24.1346ZM52.2401 24.1346H56.9289V28.8207H52.2401V24.1346ZM56.9289 24.1346H61.6175V28.8207H56.9289V24.1346ZM70.9948 24.1346H75.6809V28.8207H70.9948V24.1346ZM75.6809 24.1346H80.3695V28.8207H75.6809V24.1346ZM94.4353 24.1346H99.1241V28.8207H94.4353V24.1346ZM103.813 24.1346H108.501V28.8207H103.813V24.1346ZM131.944 24.1346H136.63V28.8207H131.944V24.1346ZM0.667671 28.8207H5.35648V33.5092H0.667671V28.8207ZM5.35648 28.8207H10.0426V33.5092H5.35648V28.8207ZM10.0426 28.8207H14.7312V33.5092H10.0426V28.8207ZM14.7312 28.8207H19.42V33.5092H14.7312V28.8207ZM19.42 28.8207H24.1085V33.5092H19.42V28.8207ZM24.1085 28.8207H28.797V33.5092H24.1181L24.1085 28.8207ZM28.797 28.8207H33.4858V33.5092H28.797V28.8207ZM38.1743 28.8207H42.8628V33.5092H38.1743V28.8207ZM47.5516 28.8207H52.2401V33.5092H47.5516V28.8207ZM56.9289 28.8207H61.6175V33.5092H56.9289V28.8207ZM66.306 28.8207H70.9948V33.5092H66.306V28.8207ZM75.6809 28.8207H80.3695V33.5092H75.6809V28.8207ZM85.0583 28.8207H89.7468V33.5092H85.0583V28.8207ZM94.4353 28.8207H99.1241V33.5092H94.4353V28.8207ZM103.813 28.8207H108.501V33.5092H103.813V28.8207ZM108.501 28.8207H113.19V33.5092H108.501V28.8207ZM113.19 28.8207H117.878V33.5092H113.19V28.8207ZM117.878 28.8207H122.567V33.5092H117.878V28.8207ZM122.567 28.8207H127.256V33.5092H122.567V28.8207ZM127.256 28.8207H131.944V33.5092H127.256V28.8207ZM131.944 28.8207H136.63V33.5092H131.944V28.8207ZM42.8628 33.5092H47.5516V38.1978H42.8628V33.5092ZM47.5516 33.5092H52.2401V38.1978H47.5516V33.5092ZM52.2401 33.5092H56.9289V38.1978H52.2401V33.5092ZM66.306 33.5092H70.9948V38.1978H66.306V33.5092ZM70.9948 33.5092H75.6809V38.1978H70.9948V33.5092ZM75.6809 33.5092H80.3695V38.1978H75.6809V33.5092ZM85.0583 33.5092H89.7468V38.1978H85.0583V33.5092ZM89.7468 33.5092H94.4353V38.1978H89.7468V33.5092ZM94.4353 33.5092H99.1241V38.1978H94.4353V33.5092ZM0.662987 38.1978H5.3515V42.8862H0.662987V38.1978ZM5.3515 38.1978H10.038V42.8862H5.3515V38.1978ZM10.038 38.1978H14.7265V42.8862H10.038V38.1978ZM14.7265 38.1978H19.415V42.8862H14.7265V38.1978ZM19.415 38.1978H24.1038V42.8862H19.415V38.1978ZM28.7923 38.1978H33.4808V42.8862H28.7923V38.1978ZM33.4808 38.1978H38.1696V42.8862H33.4808V38.1978ZM38.1696 38.1978H42.8581V42.8862H38.1696V38.1978ZM42.8581 38.1978H47.5466V42.8862H42.8581V38.1978ZM52.2355 38.1978H56.924V42.8862H52.2355V38.1978ZM80.3648 38.1978H85.0533V42.8862H80.3648V38.1978ZM89.7418 38.1978H94.4306V42.8862H89.7418V38.1978ZM99.1191 38.1978H103.808V42.8862H99.1191V38.1978ZM108.496 38.1978H113.185V42.8862H108.496V38.1978ZM117.874 38.1978H122.562V42.8862H117.874V38.1978ZM127.251 38.1978H131.94V42.8862H127.251V38.1978ZM0.662987 42.8862H5.3515V47.5748H0.662987V42.8862ZM14.7265 42.8862H19.415V47.5748H14.7265V42.8862ZM19.415 42.8862H24.1038V47.5748H19.415V42.8862ZM47.5466 42.8862H52.2355V47.5748H47.5466V42.8862ZM56.924 42.8862H61.6128V47.5748H56.924V42.8862ZM61.6128 42.8862H66.3013V47.5748H61.6128V42.8862ZM66.3013 42.8862H70.9898V47.5748H66.3013V42.8862ZM75.676 42.8862H80.3648V47.5748H75.6809L75.676 42.8862ZM85.0533 42.8862H89.7418V47.5748H85.0533V42.8862ZM89.7418 42.8862H94.4306V47.5748H89.7418V42.8862ZM99.1191 42.8862H103.808V47.5748H99.1191V42.8862ZM103.808 42.8862H108.496V47.5748H103.808V42.8862ZM108.496 42.8862H113.185V47.5748H108.496V42.8862ZM113.185 42.8862H117.874V47.5748H113.185V42.8862ZM131.94 42.8862H136.626V47.5748H131.94V42.8862ZM5.3515 47.5748H10.038V52.2633H5.3515V47.5748ZM10.038 47.5748H14.7265V52.2633H10.038V47.5748ZM19.415 47.5748H24.1038V52.2633H19.415V47.5748ZM24.1038 47.5748H28.7923V52.2633H24.1181L24.1038 47.5748ZM28.7923 47.5748H33.4808V52.2633H28.7923V47.5748ZM33.4808 47.5748H38.1696V52.2633H33.4808V47.5748ZM38.1696 47.5748H42.8581V52.2633H38.1696V47.5748ZM47.5466 47.5748H52.2355V52.2633H47.5466V47.5748ZM61.6128 47.5748H66.3013V52.2633H61.6128V47.5748ZM66.3013 47.5748H70.9898V52.2633H66.3013V47.5748ZM70.9898 47.5748H75.676V52.2633H70.9898V47.5748ZM75.676 47.5748H80.3648V52.2633H75.6809L75.676 47.5748ZM94.4306 47.5748H99.1191V52.2633H94.4306V47.5748ZM103.808 47.5748H108.496V52.2633H103.808V47.5748ZM108.496 47.5748H113.185V52.2633H108.496V47.5748ZM113.185 47.5748H117.874V52.2633H113.185V47.5748ZM0.662987 52.2633H5.3515V56.9519H0.662987V52.2633ZM5.3515 52.2633H10.038V56.9519H5.3515V52.2633ZM10.038 52.2633H14.7265V56.9519H10.038V52.2633ZM14.7265 52.2633H19.415V56.9519H14.7265V52.2633ZM33.4808 52.2633H38.1696V56.9519H33.4808V52.2633ZM38.1696 52.2633H42.8581V56.9519H38.1696V52.2633ZM56.924 52.2633H61.6128V56.9519H56.924V52.2633ZM61.6128 52.2633H66.3013V56.9519H61.6128V52.2633ZM70.9898 52.2633H75.676V56.9519H70.9898V52.2633ZM75.676 52.2633H80.3648V56.9519H75.6809L75.676 52.2633ZM94.4306 52.2633H99.1191V56.9519H94.4306V52.2633ZM99.1191 52.2633H103.808V56.9519H99.1191V52.2633ZM103.808 52.2633H108.496V56.9519H103.808V52.2633ZM108.496 52.2633H113.185V56.9519H108.496V52.2633ZM113.185 52.2633H117.874V56.9519H113.185V52.2633ZM117.874 52.2633H122.562V56.9519H117.874V52.2633ZM127.251 52.2633H131.94V56.9519H127.251V52.2633ZM5.3515 56.9519H10.038V61.6403H5.3515V56.9519ZM10.038 56.9519H14.7265V61.6403H10.038V56.9519ZM14.7265 56.9519H19.415V61.6403H14.7265V56.9519ZM19.415 56.9519H24.1038V61.6403H19.415V56.9519ZM28.7923 56.9519H33.4808V61.6403H28.7923V56.9519ZM33.4808 56.9519H38.1696V61.6403H33.4808V56.9519ZM42.8581 56.9519H47.5466V61.6403H42.8581V56.9519ZM47.5466 56.9519H52.2355V61.6403H47.5466V56.9519ZM56.924 56.9519H61.6128V61.6403H56.924V56.9519ZM66.3013 56.9519H70.9898V61.6403H66.3013V56.9519ZM70.9898 56.9519H75.676V61.6403H70.9898V56.9519ZM80.3648 56.9519H85.0533V61.6403H80.3648V56.9519ZM89.7418 56.9519H94.4306V61.6403H89.7418V56.9519ZM117.874 56.9519H122.562V61.6403H117.874V56.9519ZM122.562 56.9519H127.251V61.6403H122.562V56.9519ZM0.662987 61.6403H5.3515V66.3289H0.662987V61.6403ZM10.038 61.6403H14.7265V66.3289H10.038V61.6403ZM33.4808 61.6403H38.1696V66.3289H33.4808V61.6403ZM42.8581 61.6403H47.5466V66.3289H42.8581V61.6403ZM75.676 61.6403H80.3648V66.3289H75.6809L75.676 61.6403ZM89.7418 61.6403H94.4306V66.3289H89.7418V61.6403ZM94.4306 61.6403H99.1191V66.3289H94.4306V61.6403ZM99.1191 61.6403H103.808V66.3289H99.1191V61.6403ZM103.808 61.6403H108.496V66.3289H103.808V61.6403ZM108.496 61.6403H113.185V66.3289H108.496V61.6403ZM113.185 61.6403H117.874V66.3289H113.185V61.6403ZM131.94 61.6403H136.626V66.3289H131.94V61.6403ZM10.038 66.3289H14.7265V71.0103H10.038V66.3289ZM24.1038 66.3289H28.7923V71.0103H24.1181L24.1038 66.3289ZM28.7923 66.3289H33.4808V71.0103H28.7923V66.3289ZM38.1696 66.3289H42.8581V71.0103H38.1696V66.3289ZM42.8581 66.3289H47.5466V71.0103H42.8581V66.3289ZM52.2355 66.3289H56.924V71.0103H52.2355V66.3289ZM56.924 66.3289H61.6128V71.0103H56.924V66.3289ZM70.9898 66.3289H75.676V71.0103H70.9898V66.3289ZM80.3648 66.3289H85.0533V71.0103H80.3648V66.3289ZM85.0533 66.3289H89.7418V71.0103H85.0533V66.3289ZM94.4306 66.3289H99.1191V71.0103H94.4306V66.3289ZM113.185 66.3289H117.874V71.0103H113.185V66.3289ZM117.874 66.3289H122.562V71.0103H117.874V66.3289ZM122.562 66.3289H127.251V71.0103H122.562V66.3289ZM0.662987 71.0175H5.3515V75.7059H0.662987V71.0175ZM5.3515 71.0175H10.038V75.7059H5.3515V71.0175ZM24.1038 71.0175H28.7923V75.7059H24.1181L24.1038 71.0175ZM33.4808 71.0175H38.1696V75.7059H33.4808V71.0175ZM42.8581 71.0175H47.5466V75.7059H42.8581V71.0175ZM52.2355 71.0175H56.924V75.7059H52.2355V71.0175ZM66.3013 71.0175H70.9898V75.7059H66.3013V71.0175ZM70.9898 71.0175H75.676V75.7059H70.9898V71.0175ZM75.676 71.0175H80.3648V75.7059H75.6809L75.676 71.0175ZM89.7418 71.0175H94.4306V75.7059H89.7418V71.0175ZM94.4306 71.0175H99.1191V75.7059H94.4306V71.0175ZM99.1191 71.0175H103.808V75.7059H99.1191V71.0175ZM108.496 71.0175H113.185V75.7059H108.496V71.0175ZM127.251 71.0175H131.94V75.7059H127.251V71.0175ZM5.3515 75.7059H10.038V80.3944H5.3515V75.7059ZM10.038 75.7059H14.7265V80.3944H10.038V75.7059ZM14.7265 75.7059H19.415V80.3944H14.7265V75.7059ZM19.415 75.7059H24.1038V80.3944H19.415V75.7059ZM24.1038 75.7059H28.7923V80.3944H24.1181L24.1038 75.7059ZM28.7923 75.7059H33.4808V80.3944H28.7923V75.7059ZM33.4808 75.7059H38.1696V80.3944H33.4808V75.7059ZM38.1696 75.7059H42.8581V80.3944H38.1696V75.7059ZM42.8581 75.7059H47.5466V80.3944H42.8581V75.7059ZM47.5466 75.7059H52.2355V80.3944H47.5466V75.7059ZM52.2355 75.7059H56.924V80.3944H52.2355V75.7059ZM70.9898 75.7059H75.676V80.3944H70.9898V75.7059ZM80.3648 75.7059H85.0533V80.3944H80.3648V75.7059ZM85.0533 75.7059H89.7418V80.3944H85.0533V75.7059ZM89.7418 75.7059H94.4306V80.3944H89.7418V75.7059ZM117.874 75.7059H122.562V80.3944H117.874V75.7059ZM122.562 75.7059H127.251V80.3944H122.562V75.7059ZM0.662987 80.3944H5.3515V85.083H0.662987V80.3944ZM5.3515 80.3944H10.038V85.083H5.3515V80.3944ZM24.1038 80.3944H28.7923V85.083H24.1181L24.1038 80.3944ZM33.4808 80.3944H38.1696V85.083H33.4808V80.3944ZM38.1696 80.3944H42.8581V85.083H38.1696V80.3944ZM56.924 80.3944H61.6128V85.083H56.924V80.3944ZM61.6128 80.3944H66.3013V85.083H61.6128V80.3944ZM66.3013 80.3944H70.9898V85.083H66.3013V80.3944ZM75.676 80.3944H80.3648V85.083H75.6809L75.676 80.3944ZM80.3648 80.3944H85.0533V85.083H80.3648V80.3944ZM85.0533 80.3944H89.7418V85.083H85.0533V80.3944ZM89.7418 80.3944H94.4306V85.083H89.7418V80.3944ZM94.4306 80.3944H99.1191V85.083H94.4306V80.3944ZM99.1191 80.3944H103.808V85.083H99.1191V80.3944ZM103.808 80.3944H108.496V85.083H103.808V80.3944ZM108.496 80.3944H113.185V85.083H108.496V80.3944ZM113.185 80.3944H117.874V85.083H113.185V80.3944ZM122.562 80.3944H127.251V85.083H122.562V80.3944ZM131.94 80.3944H136.626V85.083H131.94V80.3944ZM0.662987 85.083H5.3515V89.7716H0.662987V85.083ZM10.038 85.083H14.7265V89.7716H10.038V85.083ZM28.7923 85.083H33.4808V89.7716H28.7923V85.083ZM33.4808 85.083H38.1696V89.7716H33.4808V85.083ZM38.1696 85.083H42.8581V89.7716H38.1696V85.083ZM61.6128 85.083H66.3013V89.7716H61.6128V85.083ZM66.3013 85.083H70.9898V89.7716H66.3013V85.083ZM70.9898 85.083H75.676V89.7716H70.9898V85.083ZM75.676 85.083H80.3648V89.7716H75.6809L75.676 85.083ZM94.4306 85.083H99.1191V89.7716H94.4306V85.083ZM103.808 85.083H108.496V89.7716H103.808V85.083ZM108.496 85.083H113.185V89.7716H108.496V85.083ZM113.185 85.083H117.874V89.7716H113.185V85.083ZM122.562 85.083H127.251V89.7716H122.562V85.083ZM0.662987 89.7716H5.3515V94.4576H0.662987V89.7716ZM19.415 89.7716H24.1038V94.4576H19.415V89.7716ZM38.1696 89.7716H42.8581V94.4576H38.1696V89.7716ZM47.5466 89.7716H52.2355V94.4576H47.5466V89.7716ZM56.924 89.7716H61.6128V94.4576H56.924V89.7716ZM61.6128 89.7716H66.3013V94.4576H61.6128V89.7716ZM75.676 89.7716H80.3648V94.4576H75.6809L75.676 89.7716ZM89.7418 89.7716H94.4306V94.4576H89.7418V89.7716ZM99.1191 89.7716H103.808V94.4576H99.1191V89.7716ZM113.185 89.7716H117.874V94.4576H113.185V89.7716ZM127.251 89.7716H131.94V94.4576H127.251V89.7716ZM0.662987 94.4576H5.3515V99.1462H0.662987V94.4576ZM10.038 94.4576H14.7265V99.1462H10.038V94.4576ZM14.7265 94.4576H19.415V99.1462H14.7265V94.4576ZM19.415 94.4576H24.1038V99.1462H19.415V94.4576ZM28.7923 94.4576H33.4808V99.1462H28.7923V94.4576ZM38.1696 94.4576H42.8581V99.1462H38.1696V94.4576ZM56.924 94.4576H61.6128V99.1462H56.924V94.4576ZM66.3013 94.4576H70.9898V99.1462H66.3013V94.4576ZM80.3648 94.4576H85.0533V99.1462H80.3648V94.4576ZM94.4306 94.4576H99.1191V99.1462H94.4306V94.4576ZM99.1191 94.4576H103.808V99.1462H99.1191V94.4576ZM103.808 94.4576H108.496V99.1462H103.808V94.4576ZM108.496 94.4576H113.185V99.1462H108.496V94.4576ZM113.185 94.4576H117.874V99.1462H113.185V94.4576ZM122.562 94.4576H127.251V99.1462H122.562V94.4576ZM127.251 94.4576H131.94V99.1462H127.251V94.4576ZM131.94 94.4576H136.626V99.1462H131.94V94.4576ZM38.1696 99.1462H42.8581L42.8558 103.835H38.1673L38.1696 99.1462ZM85.0533 99.1462H89.7394V103.835H85.0509L85.0533 99.1462ZM94.4306 99.1462H99.1191L99.1168 103.835H94.4283L94.4306 99.1462ZM113.185 99.1462H117.871V103.835H113.183L113.185 99.1462ZM117.871 99.1462H122.562L122.56 103.835H117.871V99.1462ZM122.562 99.1462H127.251L127.248 103.835H122.56L122.562 99.1462ZM127.251 99.1462H131.94L131.937 103.835H127.248L127.251 99.1462ZM131.94 99.1462H136.626L136.623 103.835H131.937L131.94 99.1462ZM0.660645 103.835H5.34916V108.523H0.660645V103.835ZM5.34916 103.835H10.0353V108.523H5.34916V103.835ZM10.0353 103.835H14.7241V108.523H10.0353V103.835ZM14.7241 103.835H19.4126V108.523H14.7241V103.835ZM19.4126 103.835H24.1012V108.523H19.4126V103.835ZM24.1012 103.835H28.79V108.523H24.1181L24.1012 103.835ZM28.79 103.835H33.4785V108.523H28.79V103.835ZM38.1673 103.835H42.8558V108.523H38.1673V103.835ZM52.2331 103.835H56.9216V108.523H52.2331V103.835ZM56.9216 103.835H61.6101V108.523H56.9216V103.835ZM70.9874 103.835H75.6736V108.523H70.9874V103.835ZM89.7394 103.835H94.4283V108.523H89.7394V103.835ZM94.4283 103.835H99.1168V108.523H94.4283V103.835ZM103.805 103.835H108.494V108.523H103.805V103.835ZM113.183 103.835H117.871V108.523H113.183V103.835ZM117.871 103.835H122.56V108.523H117.871V103.835ZM122.56 103.835H127.248V108.523H122.56V103.835ZM0.660645 108.523H5.34916V113.219H0.660645V108.523ZM28.79 108.523H33.4785V113.219H28.79V108.523ZM52.2331 108.523H56.9216V113.219H52.2331V108.523ZM66.2989 108.523H70.9874V113.219H66.2989V108.523ZM75.6736 108.523H80.3624V113.219H75.6809L75.6736 108.523ZM85.0509 108.523H89.7394V113.219H85.0509V108.523ZM89.7394 108.523H94.4283V113.219H89.7394V108.523ZM94.4283 108.523H99.1168V113.219H94.4283V108.523ZM113.183 108.523H117.871V113.219H113.183V108.523ZM127.248 108.523H131.937V113.219H127.248V108.523ZM0.667671 113.219H5.35648V117.908H0.667671V113.219ZM10.0426 113.219H14.7312V117.908H10.0426V113.219ZM14.7312 113.219H19.42V117.908H14.7312V113.219ZM19.42 113.219H24.1085V117.908H19.42V113.219ZM28.797 113.219H33.4858V117.908H28.797V113.219ZM38.1743 113.219H42.8628V117.908H38.1743V113.219ZM42.8628 113.219H47.5516V117.908H42.8628V113.219ZM52.2401 113.219H56.9289V117.908H52.2401V113.219ZM80.3695 113.219H85.0583V117.908H80.3695V113.219ZM94.4353 113.219H99.1241V117.908H94.4353V113.219ZM99.1241 113.219H103.813V117.908H99.1241V113.219ZM103.813 113.219H108.501V117.908H103.813V113.219ZM108.501 113.219H113.19V117.908H108.501V113.219ZM113.19 113.219H117.878V117.908H113.19V113.219ZM122.567 113.219H127.256V117.908H122.567V113.219ZM0.667671 117.908H5.35648V122.596H0.667671V117.908ZM10.0426 117.908H14.7312V122.596H10.0426V117.908ZM14.7312 117.908H19.42V122.596H14.7312V117.908ZM19.42 117.908H24.1085V122.596H19.42V117.908ZM28.797 117.908H33.4858V122.596H28.797V117.908ZM38.1743 117.908H42.8628V122.596H38.1743V117.908ZM42.8628 117.908H47.5516V122.596H42.8628V117.908ZM56.9289 117.908H61.6175V122.596H56.9289V117.908ZM61.6175 117.908H66.306V122.596H61.6175V117.908ZM66.306 117.908H70.9948V122.596H66.306V117.908ZM75.6809 117.908H80.3695V122.596H75.6809V117.908ZM85.0583 117.908H89.7468V122.596H85.0583V117.908ZM94.4353 117.908H99.1241V122.596H94.4353V117.908ZM117.878 117.908H122.567V122.596H117.878V117.908ZM122.567 117.908H127.256V122.596H122.567V117.908ZM127.256 117.908H131.944V122.596H127.256V117.908ZM131.944 117.908H136.63V122.596H131.944V117.908ZM0.667671 122.596H5.35648V127.284H0.667671V122.596ZM10.0426 122.596H14.7312V127.284H10.0426V122.596ZM14.7312 122.596H19.42V127.284H14.7312V122.596ZM19.42 122.596H24.1085V127.284H19.42V122.596ZM28.797 122.596H33.4858V127.284H28.797V122.596ZM38.1743 122.596H42.8628V127.284H38.1743V122.596ZM47.5516 122.596H52.2401V127.284H47.5516V122.596ZM61.6175 122.596H66.306V127.284H61.6175V122.596ZM66.306 122.596H70.9948V127.284H66.306V122.596ZM70.9948 122.596H75.6809V127.284H70.9948V122.596ZM75.6809 122.596H80.3695V127.284H75.6809V122.596ZM80.3695 122.596H85.0583V127.284H80.3695V122.596ZM89.7468 122.596H94.4353V127.284H89.7468V122.596ZM94.4353 122.596H99.1241V127.284H94.4353V122.596ZM103.813 122.596H108.501V127.284H103.813V122.596ZM108.501 122.596H113.19V127.284H108.501V122.596ZM113.19 122.596H117.878V127.284H113.19V122.596ZM117.878 122.596H122.567V127.284H117.878V122.596ZM122.567 122.596H127.256V127.284H122.567V122.596ZM127.256 122.596H131.944V127.284H127.256V122.596ZM0.667671 127.284H5.35648V131.973H0.667671V127.284ZM28.797 127.284H33.4858V131.973H28.797V127.284ZM38.1743 127.284H42.8628V131.973H38.1743V127.284ZM56.9289 127.284H61.6175V131.973H56.9289V127.284ZM61.6175 127.284H66.306V131.973H61.6175V127.284ZM70.9948 127.284H75.6809V131.973H70.9948V127.284ZM75.6809 127.284H80.3695V131.973H75.6809V127.284ZM94.4353 127.284H99.1241V131.973H94.4353V127.284ZM99.1241 127.284H103.813V131.973H99.1241V127.284ZM103.813 127.284H108.501V131.973H103.813V127.284ZM108.501 127.284H113.19V131.973H108.501V127.284ZM117.878 127.284H122.567V131.973H117.878V127.284ZM127.256 127.284H131.944V131.973H127.256V127.284ZM0.667671 131.973H5.35648V136.662H0.667671V131.973ZM5.35648 131.973H10.0426V136.662H5.35648V131.973ZM10.0426 131.973H14.7312V136.662H10.0426V131.973ZM14.7312 131.973H19.42V136.662H14.7312V131.973ZM19.42 131.973H24.1085V136.662H19.42V131.973ZM24.1085 131.973H28.797V136.662H24.1181L24.1085 131.973ZM28.797 131.973H33.4858V136.662H28.797V131.973ZM38.1743 131.973H42.8628V136.662H38.1743V131.973ZM42.8628 131.973H47.5516V136.662H42.8628V131.973ZM56.9289 131.973H61.6175V136.662H56.9289V131.973ZM66.306 131.973H70.9948V136.662H66.306V131.973ZM80.3695 131.973H85.0583V136.662H80.3695V131.973ZM85.0583 131.973H89.7468V136.662H85.0583V131.973ZM113.19 131.973H117.878V136.662H113.19V131.973ZM122.567 131.973H127.256V136.662H122.567V131.973Z" fill="#070606"/>
</svg>
