<svg width="64" height="81" viewBox="0 0 64 81" fill="none" xmlns="http://www.w3.org/2000/svg">
<path d="M63.6406 31.7017C63.6406 14.2549 49.4467 0.0610352 32 0.0610352C14.5533 0.0610352 0.359375 14.2549 0.359375 31.7017C0.359375 39.8656 3.46766 47.317 8.5625 52.9354V70.686H10.9062C13.3434 70.686 15.7211 70.2195 17.9375 69.3228V80.061H20.2812C24.6025 80.061 28.6883 78.617 32 75.9551C35.3117 78.617 39.3975 80.061 43.7188 80.061H46.0625V69.3228C48.2789 70.2193 50.6566 70.686 53.0938 70.686H55.4375V52.9354C60.5323 47.317 63.6406 39.8656 63.6406 31.7017ZM32 4.74854C46.862 4.74854 58.9531 16.8396 58.9531 31.7017C58.9531 46.5637 46.862 58.6548 32 58.6548C17.138 58.6548 5.04688 46.5637 5.04688 31.7017C5.04688 16.8396 17.138 4.74854 32 4.74854ZM13.25 65.8048V57.1715C14.7208 58.2571 16.2884 59.2179 17.9375 60.0396V64.1196C16.4844 64.9601 14.9012 65.5288 13.25 65.8048ZM33.6738 71.1563L32 69.4487L30.3262 71.1563C28.2156 73.3095 25.5398 74.6968 22.625 75.1812V61.9245C25.5886 62.8457 28.7373 63.3423 32 63.3423C35.2627 63.3423 38.4114 62.8456 41.375 61.9245V75.1812C38.4602 74.6967 35.7844 73.3095 33.6738 71.1563ZM46.0625 64.1196V60.0396C47.7116 59.2179 49.2792 58.2571 50.75 57.1715V65.8048C49.0988 65.5288 47.5156 64.9601 46.0625 64.1196Z" fill="url(#paint0_linear_10_595)"/>
<path d="M18.9138 49.7149L32.0011 43.5215L45.0886 49.7148L43.2427 35.354L53.1772 24.821L38.9488 22.1392L32.0011 9.43604L25.0535 22.1392L10.8252 24.8212L20.7597 35.3542L18.9138 49.7149ZM20.116 27.8399L28.1018 26.3346L32.0011 19.2049L35.9005 26.3348L43.8863 27.8401L38.3105 33.7517L39.3466 41.8117L32.0011 38.3357L24.6557 41.8118L25.6918 33.7518L20.116 27.8399Z" fill="url(#paint1_linear_10_595)"/>
<defs>
<linearGradient id="paint0_linear_10_595" x1="0.359375" y1="40.061" x2="63.6406" y2="40.061" gradientUnits="userSpaceOnUse">
<stop stop-color="#2C8D8A"/>
<stop offset="1" stop-color="#1E585B"/>
</linearGradient>
<linearGradient id="paint1_linear_10_595" x1="10.8252" y1="29.5755" x2="53.1772" y2="29.5755" gradientUnits="userSpaceOnUse">
<stop stop-color="#2C8D8A"/>
<stop offset="1" stop-color="#1E585B"/>
</linearGradient>
</defs>
</svg>
