<svg width="36" height="40" viewBox="0 0 36 40" fill="none" xmlns="http://www.w3.org/2000/svg">
<path d="M13.3625 17.7904H22.6523C22.9601 17.7896 23.2551 17.667 23.4728 17.4494C23.6904 17.2317 23.8131 16.9368 23.8139 16.629V9.66016H12.21V16.629C12.2107 16.9352 12.3322 17.2288 12.5479 17.4462C12.7636 17.6636 13.0562 17.7873 13.3625 17.7904Z" stroke="url(#paint0_linear_4_734)" stroke-width="1.0428" stroke-linecap="round" stroke-linejoin="round"/>
<path d="M15.9753 9.65987V8.49839C15.9761 8.1906 16.0988 7.89564 16.3165 7.67799C16.5342 7.46035 16.8291 7.33771 17.137 7.33691H18.8778C19.1857 7.33771 19.4807 7.46035 19.6983 7.67799C19.916 7.89564 20.0387 8.1906 20.0395 8.49839V9.65987" stroke="url(#paint1_linear_4_734)" stroke-width="1.0428" stroke-linecap="round" stroke-linejoin="round"/>
<path d="M9.37958 4.78446C7.3379 7.03973 6.25791 10.0032 6.36999 13.0432C6.48206 16.0831 7.77734 18.959 9.97954 21.0579C12.1817 23.1567 15.1168 24.3124 18.1589 24.2787C21.2011 24.2449 24.1096 23.0244 26.2647 20.8772C28.4198 18.73 29.6509 15.826 29.6955 12.7843C29.74 9.74263 28.5945 6.80384 26.5033 4.59444C24.412 2.38503 21.5405 1.07978 18.5006 0.956916C15.4607 0.834055 12.4931 1.90331 10.2304 3.93674" stroke="url(#paint2_linear_4_734)" stroke-width="1.0428" stroke-linecap="round" stroke-linejoin="round"/>
<path d="M20.3323 4.41978V3.2583M22.6525 5.58124V4.41978" stroke="url(#paint3_linear_4_734)" stroke-width="1.0428" stroke-linecap="round" stroke-linejoin="round"/>
<path d="M4.64812 30.1394C5.1076 30.1394 5.55679 30.2757 5.93883 30.5309C6.32088 30.7862 6.61866 31.149 6.79449 31.5734C6.97033 31.9979 7.01636 32.4649 6.92671 32.9156C6.83707 33.3662 6.61584 33.78 6.29093 34.1049C5.96603 34.4298 5.55206 34.651 5.1014 34.7407C4.65075 34.8303 4.18363 34.7843 3.75912 34.6085C3.33461 34.4326 2.97173 34.1349 2.71646 33.7529C2.46118 33.3709 2.32495 32.9218 2.32495 32.4624C2.32495 31.8463 2.56971 31.2554 3.00539 30.8198C3.44108 30.3841 4.03197 30.1394 4.64812 30.1394ZM18.008 30.1394C18.4675 30.1394 18.9167 30.2757 19.2988 30.5309C19.6808 30.7862 19.9786 31.149 20.1544 31.5734C20.3303 31.9979 20.3763 32.4649 20.2866 32.9156C20.197 33.3662 19.9757 33.78 19.6508 34.1049C19.3259 34.4298 18.9119 34.651 18.4612 34.7407C18.0106 34.8303 17.5435 34.7843 17.119 34.6085C16.6944 34.4326 16.3317 34.1349 16.0764 33.7529C15.8211 33.3709 15.6849 32.9218 15.6849 32.4624C15.6849 31.8463 15.9296 31.2554 16.3653 30.8198C16.801 30.3841 17.3919 30.1394 18.008 30.1394ZM31.3649 30.1394C31.8244 30.1394 32.2736 30.2757 32.6556 30.5309C33.0377 30.7862 33.3355 31.149 33.5113 31.5734C33.6871 31.9979 33.7332 32.4649 33.6435 32.9156C33.5539 33.3662 33.3325 33.78 33.0076 34.1049C32.6827 34.4298 32.2688 34.651 31.8181 34.7407C31.3675 34.8303 30.9003 34.7843 30.4758 34.6085C30.0513 34.4326 29.6885 34.1349 29.4333 33.7529C29.178 33.3709 29.0418 32.9218 29.0418 32.4624C29.0418 31.8463 29.2865 31.2554 29.7222 30.8198C30.1579 30.3841 30.7488 30.1394 31.3649 30.1394Z" stroke="url(#paint4_linear_4_734)" stroke-width="1.0428" stroke-linecap="round" stroke-linejoin="round"/>
<path d="M31.9442 39.4164H30.7827M29.621 39.4164H27.8802V35.9471C27.881 35.6393 28.0036 35.3443 28.2213 35.1267C28.439 34.909 28.734 34.7864 29.0418 34.7856H33.6881C33.9959 34.7864 34.2909 34.909 34.5086 35.1267C34.7263 35.3443 34.849 35.6393 34.8497 35.9471V39.4164H33.1058M2.33106 34.7705H6.97739C7.28522 34.7713 7.58021 34.8939 7.79788 35.1116C8.01555 35.3292 8.13822 35.6242 8.13902 35.932V39.4164H1.16943V35.9471C1.17102 35.6395 1.2939 35.345 1.5114 35.1275C1.7289 34.9101 2.02348 34.7872 2.33106 34.7856V34.7705ZM15.6909 34.7705H20.3373C20.6446 34.7721 20.9388 34.8951 21.1559 35.1126C21.3729 35.3302 21.4951 35.6247 21.4959 35.932V39.4164H14.5294V35.9471C14.5301 35.6403 14.6519 35.3463 14.8683 35.1288C15.0847 34.9113 15.3781 34.788 15.6849 34.7856L15.6909 34.7705Z" stroke="url(#paint5_linear_4_734)" stroke-width="1.0428" stroke-linecap="round" stroke-linejoin="round"/>
<path d="M18.0084 28.3981V24.3707M31.3652 28.3981V25.3391L26.3417 20.8863M4.64844 28.3981V25.3391L9.72329 20.838" stroke="url(#paint6_linear_4_734)" stroke-width="1.0428" stroke-linecap="round" stroke-linejoin="round"/>
<path d="M12.21 13.1447H23.8229M21.4998 14.8854V11.401M14.5331 14.8854V11.401" stroke="url(#paint7_linear_4_734)" stroke-width="1.0428" stroke-linecap="round" stroke-linejoin="round"/>
<defs>
<linearGradient id="paint0_linear_4_734" x1="12.21" y1="13.7253" x2="23.8139" y2="13.7253" gradientUnits="userSpaceOnUse">
<stop stop-color="#2C8D8A"/>
<stop offset="1" stop-color="#1E585B"/>
</linearGradient>
<linearGradient id="paint1_linear_4_734" x1="15.9753" y1="8.49839" x2="20.0395" y2="8.49839" gradientUnits="userSpaceOnUse">
<stop stop-color="#2C8D8A"/>
<stop offset="1" stop-color="#1E585B"/>
</linearGradient>
<linearGradient id="paint2_linear_4_734" x1="6.36206" y1="12.6134" x2="29.6967" y2="12.6134" gradientUnits="userSpaceOnUse">
<stop stop-color="#2C8D8A"/>
<stop offset="1" stop-color="#1E585B"/>
</linearGradient>
<linearGradient id="paint3_linear_4_734" x1="20.3323" y1="4.41977" x2="22.6525" y2="4.41977" gradientUnits="userSpaceOnUse">
<stop stop-color="#2C8D8A"/>
<stop offset="1" stop-color="#1E585B"/>
</linearGradient>
<linearGradient id="paint4_linear_4_734" x1="2.32495" y1="32.4624" x2="33.6882" y2="32.4624" gradientUnits="userSpaceOnUse">
<stop stop-color="#2C8D8A"/>
<stop offset="1" stop-color="#1E585B"/>
</linearGradient>
<linearGradient id="paint5_linear_4_734" x1="1.16943" y1="37.0934" x2="34.8497" y2="37.0934" gradientUnits="userSpaceOnUse">
<stop stop-color="#2C8D8A"/>
<stop offset="1" stop-color="#1E585B"/>
</linearGradient>
<linearGradient id="paint6_linear_4_734" x1="4.64844" y1="24.6181" x2="31.3652" y2="24.6181" gradientUnits="userSpaceOnUse">
<stop stop-color="#2C8D8A"/>
<stop offset="1" stop-color="#1E585B"/>
</linearGradient>
<linearGradient id="paint7_linear_4_734" x1="12.21" y1="13.1432" x2="23.8229" y2="13.1432" gradientUnits="userSpaceOnUse">
<stop stop-color="#2C8D8A"/>
<stop offset="1" stop-color="#1E585B"/>
</linearGradient>
</defs>
</svg>
