<svg width="62" height="61" viewBox="0 0 62 61" fill="none" xmlns="http://www.w3.org/2000/svg">
<path d="M31.1217 60.7403C37.129 60.7403 43.0013 58.9592 47.9962 55.6221C52.9911 52.2849 56.8841 47.5417 59.183 41.9923C61.4819 36.4429 62.0835 30.3365 60.9115 24.4453C59.7395 18.554 56.8467 13.1426 52.5988 8.89522C48.351 4.64788 42.9393 1.7554 37.0474 0.583561C31.1555 -0.588278 25.0484 0.0131777 19.4983 2.31182C13.9483 4.61047 9.20474 8.50304 5.86726 13.4974C2.52978 18.4917 0.748291 24.3635 0.748291 30.3702C0.748291 38.4248 3.94815 46.1496 9.64428 51.8451C15.3404 57.5406 23.0662 60.7403 31.1217 60.7403Z" fill="#ECF8F2"/>
<path d="M36.0665 23.4006H42.3427C42.6431 23.3906 42.9397 23.4703 43.1945 23.6297C43.4493 23.789 43.6509 24.0207 43.7732 24.2952L46.2028 30.0136C46.2731 30.173 46.3086 30.3455 46.3071 30.5198V37.596C46.3064 37.8395 46.2095 38.0727 46.0373 38.2449C45.8651 38.417 45.632 38.514 45.3886 38.5147H44.6787C44.5993 37.5784 44.1713 36.706 43.4793 36.0702C42.7873 35.4345 41.8817 35.0816 40.9419 35.0816C40.0021 35.0816 39.0965 35.4345 38.4045 36.0702C37.7124 36.706 37.2844 37.5784 37.2051 38.5147H36.0665V23.4006ZM23.3242 35.7587C22.7789 35.7581 22.2459 35.9193 21.7922 36.2219C21.3386 36.5244 20.9847 36.9546 20.7756 37.4581C20.5666 37.9617 20.5117 38.5159 20.6177 39.0507C20.7238 39.5855 20.986 40.0769 21.3714 40.4626C21.7568 40.8483 22.2479 41.111 22.7827 41.2176C23.3174 41.3242 23.8719 41.2697 24.3758 41.0612C24.8796 40.8527 25.3101 40.4995 25.6131 40.0462C25.9161 39.5929 26.0777 39.0599 26.0777 38.5147C26.0777 37.7842 25.7877 37.0837 25.2714 36.5669C24.755 36.0501 24.0547 35.7594 23.3242 35.7587ZM23.3242 37.1354C23.052 37.1354 22.786 37.216 22.5597 37.3672C22.3333 37.5183 22.1568 37.7332 22.0525 37.9846C21.9482 38.236 21.9208 38.5127 21.9737 38.7797C22.0266 39.0467 22.1575 39.2919 22.3498 39.4846C22.542 39.6772 22.7872 39.8085 23.0541 39.862C23.321 39.9154 23.5977 39.8885 23.8493 39.7847C24.1009 39.6809 24.316 39.5049 24.4676 39.2789C24.6193 39.0528 24.7006 38.7869 24.7011 38.5147C24.7015 38.3337 24.6662 38.1544 24.5971 37.9871C24.5281 37.8197 24.4265 37.6677 24.2986 37.5396C24.1707 37.4114 24.0188 37.3097 23.8516 37.2404C23.6844 37.171 23.5052 37.1354 23.3242 37.1354ZM40.9419 35.7587C41.487 35.7587 42.0199 35.9203 42.4732 36.2232C42.9264 36.526 43.2798 36.9564 43.4884 37.46C43.6971 37.9636 43.7514 38.5178 43.6451 39.0524C43.5387 39.5871 43.2762 40.0781 42.8907 40.4636C42.5052 40.849 42.0141 41.1115 41.4794 41.2178C40.9448 41.3242 40.3907 41.2696 39.887 41.061C39.3834 40.8524 38.9529 40.4991 38.65 40.0459C38.3472 39.5926 38.1854 39.0598 38.1854 38.5147C38.1854 37.7837 38.4758 37.0828 38.9927 36.5659C39.5096 36.049 40.2108 35.7587 40.9419 35.7587ZM40.9419 37.1354C40.6697 37.1354 40.4034 37.216 40.1771 37.3672C39.9507 37.5183 39.7742 37.7332 39.6699 37.9846C39.5656 38.236 39.5382 38.5127 39.5911 38.7797C39.644 39.0467 39.7752 39.2919 39.9675 39.4846C40.1597 39.6772 40.4046 39.8085 40.6715 39.862C40.9384 39.9154 41.2154 39.8885 41.467 39.7847C41.7186 39.6809 41.9337 39.5049 42.0853 39.2789C42.237 39.0528 42.3183 38.7869 42.3188 38.5147C42.3188 38.1493 42.1738 37.7989 41.9156 37.5403C41.6575 37.2817 41.3073 37.1361 40.9419 37.1354ZM15.9336 33.5999V20.6955C15.9343 20.371 16.0636 20.0601 16.293 19.8308C16.5224 19.6014 16.8334 19.4721 17.1579 19.4714H23.1074V25.2782C23.1081 25.4406 23.1727 25.5963 23.2876 25.7111C23.4024 25.826 23.558 25.8908 23.7205 25.8915H27.7921C27.9543 25.8908 28.1099 25.8259 28.2244 25.711C28.3389 25.596 28.4029 25.4404 28.4029 25.2782V19.4714H33.862C34.1866 19.4714 34.4983 19.6004 34.7278 19.8299C34.9574 20.0595 35.0862 20.3708 35.0862 20.6955V33.5999H15.9336ZM15.9336 37.2907V34.5802H35.0862V38.5147H27.0502C27.0635 38.0158 26.9768 37.5193 26.7951 37.0544C26.6134 36.5896 26.3406 36.166 25.9924 35.8084C25.6442 35.4508 25.2277 35.1665 24.7678 34.9724C24.308 34.7783 23.8138 34.6783 23.3147 34.6783C22.8156 34.6783 22.3217 34.7783 21.8619 34.9724C21.402 35.1665 20.9855 35.4508 20.6373 35.8084C20.2891 36.166 20.0163 36.5896 19.8346 37.0544C19.6529 37.5193 19.5662 38.0158 19.5795 38.5147H17.15C16.8256 38.514 16.5146 38.3848 16.2851 38.1555C16.0557 37.9261 15.9265 37.6152 15.9258 37.2907M27.4144 19.4714H24.0851V24.9112H27.4226L27.4144 19.4714ZM43.99 29.6493L42.2972 25.6692C42.2519 25.5577 42.174 25.4625 42.0736 25.396C41.9732 25.3296 41.8552 25.295 41.7348 25.2969H38.065C37.9026 25.2976 37.747 25.3625 37.6321 25.4774C37.5172 25.5922 37.4523 25.7478 37.4516 25.9102V29.4644C37.4523 29.6266 37.5172 29.782 37.6321 29.8964C37.7471 30.0109 37.9028 30.0752 38.065 30.0752H43.7062C43.7571 30.0757 43.8071 30.0635 43.8521 30.0398C43.897 30.0161 43.9354 29.9815 43.9636 29.9392C43.9918 29.8969 44.009 29.8482 44.0136 29.7976C44.0182 29.747 44.0101 29.696 43.99 29.6493Z" fill="#1E585B"/>
</svg>
