<svg width="25" height="18" viewBox="0 0 25 18" fill="none" xmlns="http://www.w3.org/2000/svg">
<path d="M22.7446 0.161133H2.96338C1.79793 0.161133 0.854004 1.11091 0.854004 2.27051V14.9268C0.854004 16.0932 1.80486 17.0361 2.96338 17.0361H22.7446C23.9003 17.0361 24.854 16.0972 24.854 14.9268V2.27051C24.854 1.11298 23.9138 0.161133 22.7446 0.161133ZM22.4492 1.56738C22.0183 1.99605 14.6016 9.37362 14.3456 9.62834C13.9471 10.0268 13.4174 10.2461 12.854 10.2461C12.2906 10.2461 11.7609 10.0267 11.3611 9.62702C11.1889 9.4557 3.85414 2.1596 3.25879 1.56738H22.4492ZM2.26025 14.6405V2.55762L8.33704 8.60238L2.26025 14.6405ZM3.25968 15.6299L9.33407 9.59412L10.3681 10.6227C11.0321 11.2867 11.915 11.6524 12.854 11.6524C13.7931 11.6524 14.6759 11.2867 15.3386 10.624L16.3739 9.59412L22.4483 15.6299H3.25968ZM23.4478 14.6405L17.371 8.60238L23.4478 2.55762V14.6405Z" fill="#FFFCFC"/>
</svg>
