<svg width="62" height="61" viewBox="0 0 62 61" fill="none" xmlns="http://www.w3.org/2000/svg">
<path d="M31.026 60.7403C37.033 60.7393 42.9049 58.9572 47.8991 55.6195C52.8933 52.2817 56.7853 47.5381 59.0834 41.9886C61.3814 36.4391 61.9824 30.3329 60.8098 24.442C59.6373 18.5511 56.7439 13.1402 52.4959 8.89336C48.2479 4.64655 42.8358 1.75458 36.9441 0.583171C31.0524 -0.588234 24.9454 0.0135289 19.3957 2.31233C13.846 4.61114 9.10286 8.50374 5.76562 13.498C2.42837 18.4922 0.646973 24.3638 0.646973 30.3702C0.646973 38.4249 3.84716 46.1496 9.54329 51.8451C15.2394 57.5406 22.9649 60.7403 31.0204 60.7403" fill="#ECF8F2"/>
<path d="M41.5103 42.7662C41.4043 42.7662 41.3008 42.7348 41.2127 42.676C41.1246 42.6171 41.0558 42.5335 41.0152 42.4356C40.9747 42.3377 40.9641 42.2299 40.9848 42.126C41.0055 42.0221 41.0567 41.9267 41.1316 41.8518C41.2065 41.7769 41.302 41.7258 41.406 41.7052C41.5099 41.6845 41.6174 41.6951 41.7153 41.7356C41.8132 41.7762 41.8968 41.8449 41.9556 41.933C42.0145 42.0211 42.0462 42.1246 42.0462 42.2306C42.0462 42.3726 41.9897 42.5089 41.8892 42.6093C41.7888 42.7098 41.6524 42.7662 41.5103 42.7662ZM37.3183 42.7662C37.2123 42.7662 37.1085 42.7348 37.0204 42.676C36.9323 42.6171 36.8638 42.5335 36.8232 42.4356C36.7827 42.3377 36.7722 42.2299 36.7928 42.126C36.8135 42.0221 36.8644 41.9267 36.9393 41.8518C37.0143 41.7769 37.1097 41.7258 37.2137 41.7052C37.3176 41.6845 37.4254 41.6951 37.5233 41.7356C37.6212 41.7762 37.7048 41.8449 37.7637 41.933C37.8225 42.0211 37.8539 42.1246 37.8539 42.2306C37.8539 42.3726 37.7974 42.5089 37.697 42.6093C37.5965 42.7098 37.4604 42.7662 37.3183 42.7662ZM33.1316 42.7662C33.0256 42.7662 32.9218 42.7348 32.8337 42.676C32.7456 42.6171 32.6771 42.5335 32.6365 42.4356C32.596 42.3377 32.5854 42.2299 32.6061 42.126C32.6268 42.0221 32.6777 41.9267 32.7526 41.8518C32.8275 41.7769 32.923 41.7258 33.0269 41.7052C33.1309 41.6845 33.2387 41.6951 33.3366 41.7356C33.4345 41.7762 33.5181 41.8449 33.5769 41.933C33.6358 42.0211 33.6672 42.1246 33.6672 42.2306C33.6672 42.3726 33.6107 42.5089 33.5102 42.6093C33.4098 42.7098 33.2737 42.7662 33.1316 42.7662ZM28.9367 42.7662C28.8307 42.7662 28.7272 42.7348 28.6391 42.676C28.551 42.6171 28.4822 42.5335 28.4416 42.4356C28.4011 42.3377 28.3905 42.2299 28.4112 42.126C28.4319 42.0221 28.4828 41.9267 28.5577 41.8518C28.6326 41.7769 28.7281 41.7258 28.832 41.7052C28.936 41.6845 29.0438 41.6951 29.1417 41.7356C29.2396 41.7762 29.3232 41.8449 29.382 41.933C29.4409 42.0211 29.4723 42.1246 29.4723 42.2306C29.4723 42.3726 29.4158 42.5089 29.3153 42.6093C29.2148 42.7098 29.0788 42.7662 28.9367 42.7662ZM24.7499 42.7662C24.644 42.7662 24.5405 42.7348 24.4524 42.676C24.3643 42.6171 24.2954 42.5335 24.2549 42.4356C24.2143 42.3377 24.2038 42.2299 24.2245 42.126C24.2451 42.0221 24.296 41.9267 24.371 41.8518C24.4459 41.7769 24.5414 41.7258 24.6453 41.7052C24.7492 41.6845 24.8571 41.6951 24.955 41.7356C25.0528 41.7762 25.1364 41.8449 25.1953 41.933C25.2542 42.0211 25.2855 42.1246 25.2855 42.2306C25.2855 42.3726 25.2291 42.5089 25.1286 42.6093C25.0281 42.7098 24.892 42.7662 24.7499 42.7662ZM20.555 42.7662C20.4491 42.7662 20.3456 42.7348 20.2575 42.676C20.1694 42.6171 20.1005 42.5335 20.06 42.4356C20.0194 42.3377 20.0089 42.2299 20.0296 42.126C20.0502 42.0221 20.1014 41.9267 20.1764 41.8518C20.2513 41.7769 20.3468 41.7258 20.4507 41.7052C20.5546 41.6845 20.6622 41.6951 20.76 41.7356C20.8579 41.7762 20.9415 41.8449 21.0004 41.933C21.0592 42.0211 21.091 42.1246 21.091 42.2306C21.091 42.3726 21.0345 42.5089 20.934 42.6093C20.8335 42.7098 20.6971 42.7662 20.555 42.7662ZM44.6016 39.7316C44.2588 39.5847 43.8896 39.5091 43.5167 39.5093H18.53C17.8096 39.5093 17.1187 39.7954 16.6093 40.3047C16.0999 40.8141 15.8137 41.5049 15.8137 42.2252C15.8137 42.9455 16.0999 43.6363 16.6093 44.1456C17.1187 44.6549 17.8096 44.9411 18.53 44.9411H43.5167C44.1377 44.9344 44.7379 44.7157 45.2176 44.3213C45.6974 43.927 46.0279 43.3805 46.1545 42.7726C46.2811 42.1646 46.1959 41.5317 45.9135 40.9786C45.631 40.4255 45.1683 39.9856 44.6016 39.7316Z" fill="#1E585B"/>
<path d="M36.9968 33.533V38.4237H43.5166C43.8837 38.4243 44.249 38.4766 44.6015 38.5791V33.533C44.6015 33.391 44.5451 33.2547 44.4446 33.1543C44.3441 33.0538 44.2077 32.9973 44.0656 32.9973H37.5432C37.4011 32.9973 37.2647 33.0538 37.1642 33.1543C37.0638 33.2547 37.0073 33.391 37.0073 33.533H36.9968Z" fill="#1E585B"/>
<path d="M25.0473 38.4211V33.533C25.0473 33.391 24.9908 33.2547 24.8903 33.1543C24.7899 33.0538 24.6538 32.9973 24.5117 32.9973H17.989C17.8469 32.9973 17.7108 33.0538 17.6103 33.1543C17.5099 33.2547 17.4534 33.391 17.4534 33.533V38.5791C17.8064 38.4746 18.1727 38.4214 18.5409 38.4211H25.0473Z" fill="#1E585B"/>
<path d="M34.2835 32.9922H27.7637C27.6216 32.9922 27.4852 33.0486 27.3847 33.149C27.2843 33.2495 27.2278 33.3857 27.2278 33.5278V38.4159H34.8299V33.5278C34.8299 33.3857 34.7734 33.2495 34.6729 33.149C34.5725 33.0486 34.4364 32.9922 34.2943 32.9922H34.2835Z" fill="#1E585B"/>
<path d="M31.0234 20.4174C31.888 20.4174 32.7173 20.7608 33.3287 21.3721C33.94 21.9834 34.2835 22.8125 34.2835 23.677C34.2835 24.5415 33.94 25.3706 33.3287 25.9819C32.7173 26.5932 31.888 26.9366 31.0234 26.9366C30.1588 26.9366 29.3298 26.5932 28.7185 25.9819C28.1071 25.3706 27.7637 24.5415 27.7637 23.677C27.7637 22.8125 28.1071 21.9834 28.7185 21.3721C29.3298 20.7608 30.1588 20.4174 31.0234 20.4174ZM23.6894 25.367C23.9874 25.2729 24.3097 25.2939 24.5929 25.4259C24.8761 25.5579 25.0996 25.7913 25.2191 26.08C25.3385 26.3686 25.3452 26.6916 25.238 26.9851C25.1309 27.2786 24.9177 27.5212 24.6403 27.6651C24.5885 27.7151 24.5472 27.775 24.519 27.8412C24.4908 27.9075 24.4765 27.9788 24.4765 28.0508C24.4765 28.1228 24.4908 28.194 24.519 28.2603C24.5472 28.3266 24.5885 28.3866 24.6403 28.4365L26.2661 30.0435C26.3161 30.0953 26.3761 30.1366 26.4423 30.1648C26.5086 30.193 26.5799 30.2075 26.6519 30.2075C26.7239 30.2075 26.7953 30.193 26.8615 30.1648C26.9278 30.1366 26.9878 30.0953 27.0378 30.0435L27.3618 29.7141C27.4714 29.6076 27.6008 29.5237 27.7428 29.4673C27.8847 29.4109 28.0364 29.3831 28.1891 29.3853C28.3418 29.3876 28.4926 29.4199 28.6328 29.4804C28.7731 29.541 28.9002 29.6286 29.0066 29.7382C29.2136 29.9494 29.3306 30.2326 29.3332 30.5283V30.9944C29.3332 31.1364 29.3897 31.2727 29.4902 31.3731C29.5906 31.4736 29.7271 31.5301 29.8692 31.5301H32.1646C32.235 31.5301 32.3046 31.5162 32.3696 31.4893C32.4346 31.4624 32.4938 31.4229 32.5436 31.3731C32.5933 31.3234 32.6327 31.2643 32.6597 31.1994C32.6866 31.1344 32.7005 31.0647 32.7005 30.9944V30.5283C32.7072 30.3026 32.7794 30.0838 32.9082 29.8983C33.0369 29.7129 33.2167 29.5689 33.4258 29.4838C33.6349 29.3986 33.8643 29.3761 34.086 29.4189C34.3077 29.4617 34.5121 29.568 34.6745 29.7248L34.9986 30.0542C35.0486 30.1061 35.1086 30.1473 35.1748 30.1755C35.2411 30.2037 35.3124 30.2182 35.3844 30.2182C35.4564 30.2182 35.5278 30.2037 35.594 30.1755C35.6603 30.1473 35.7203 30.1061 35.7703 30.0542L37.3961 28.4472C37.4479 28.3973 37.4892 28.3374 37.5174 28.2711C37.5455 28.2048 37.5602 28.1335 37.5602 28.0615C37.5602 27.9895 37.5455 27.9182 37.5174 27.8519C37.4892 27.7857 37.4479 27.7258 37.3961 27.6758L37.0638 27.3491C36.9066 27.187 36.8001 26.9827 36.7571 26.7611C36.7141 26.5394 36.7366 26.3101 36.8219 26.101C36.9071 25.892 37.0515 25.7122 37.2371 25.5838C37.4228 25.4554 37.6419 25.3838 37.8676 25.3777H38.3365C38.4068 25.3777 38.4765 25.364 38.5415 25.337C38.6065 25.3101 38.6654 25.2706 38.7151 25.2209C38.7649 25.1712 38.8043 25.1121 38.8312 25.0471C38.8581 24.9821 38.8721 24.9125 38.8721 24.8421V22.5494C38.8721 22.479 38.8581 22.4094 38.8312 22.3444C38.8043 22.2794 38.7649 22.2203 38.7151 22.1706C38.6654 22.1209 38.6065 22.0815 38.5415 22.0545C38.4765 22.0276 38.4068 22.0138 38.3365 22.0138C38.0385 22.1079 37.7159 22.0869 37.4327 21.9549C37.1495 21.8229 36.9263 21.5895 36.8068 21.3008C36.6874 21.0121 36.6804 20.6892 36.7875 20.3957C36.8947 20.1022 37.1079 19.8595 37.3853 19.7157C37.4848 19.612 37.5406 19.4737 37.5406 19.33C37.5406 19.1862 37.4848 19.0481 37.3853 18.9443L35.7595 17.3212C35.7095 17.2693 35.6495 17.2281 35.5832 17.2C35.517 17.1718 35.4457 17.1573 35.3736 17.1573C35.3016 17.1573 35.2303 17.1718 35.164 17.2C35.0978 17.2281 35.0381 17.2693 34.9881 17.3212C34.8464 17.601 34.6041 17.8171 34.31 17.9262C34.0158 18.0353 33.6912 18.0293 33.4013 17.9095C33.1113 17.7898 32.8771 17.565 32.7457 17.2802C32.6142 16.9953 32.5953 16.6713 32.6924 16.373C32.6924 16.231 32.6359 16.0947 32.5354 15.9943C32.4349 15.8938 32.2988 15.8374 32.1568 15.8374H29.861C29.7189 15.8374 29.5828 15.8938 29.4823 15.9943C29.3819 16.0947 29.3254 16.231 29.3254 16.373C29.4176 16.6705 29.3951 16.9917 29.2626 17.2735C29.1301 17.5554 28.8969 17.7775 28.6089 17.8963C28.321 18.0151 27.9992 18.0219 27.7065 17.9155C27.4137 17.8091 27.1714 17.5971 27.027 17.3212C26.977 17.2693 26.917 17.2281 26.8507 17.2C26.7845 17.1718 26.7132 17.1573 26.6411 17.1573C26.5691 17.1573 26.4978 17.1718 26.4315 17.2C26.3653 17.2281 26.3056 17.2693 26.2556 17.3212L24.6295 18.9443C24.2438 19.3675 24.6296 19.7479 24.9617 20.0425C25.0682 20.152 25.1522 20.2814 25.2086 20.4234C25.265 20.5653 25.2929 20.7169 25.2907 20.8697C25.2885 21.0224 25.2561 21.1732 25.1955 21.3134C25.135 21.4537 25.0472 21.5806 24.9375 21.687C24.721 21.8941 24.4338 22.0109 24.1341 22.0138H23.6652C23.5232 22.0138 23.3871 22.0701 23.2866 22.1706C23.1861 22.2711 23.1296 22.4073 23.1296 22.5494V24.8421C23.1296 24.9842 23.1861 25.1204 23.2866 25.2209C23.3871 25.3214 23.5232 25.3777 23.6652 25.3777" fill="#1E585B"/>
</svg>
