<svg width="36" height="40" viewBox="0 0 36 40" fill="none" xmlns="http://www.w3.org/2000/svg">
<path d="M14.648 25.269C14.5781 25.269 14.5086 25.2551 14.444 25.2283C14.3794 25.2014 14.3208 25.162 14.2715 25.1124C14.2221 25.0627 14.1831 25.0039 14.1565 24.9391C14.13 24.8743 14.1166 24.805 14.117 24.735V21.8811C14.117 21.6065 14.171 21.3347 14.2761 21.081C14.3811 20.8274 14.5353 20.5969 14.7294 20.4028C14.9236 20.2086 15.154 20.0547 15.4077 19.9496C15.6613 19.8445 15.9332 19.7904 16.2078 19.7904H19.2793C19.5539 19.7904 19.8257 19.8445 20.0794 19.9496C20.3331 20.0547 20.5637 20.2086 20.7578 20.4028C20.952 20.5969 21.1059 20.8274 21.211 21.081C21.3161 21.3347 21.3701 21.6065 21.3701 21.8811V24.735C21.3701 24.8766 21.3139 25.0124 21.2138 25.1125C21.1136 25.2127 20.9777 25.269 20.8361 25.269H14.648Z" stroke="url(#paint0_linear_4_772)" stroke-width="1.0428" stroke-linecap="round" stroke-linejoin="round"/>
<path d="M17.7439 19.7905C19.1069 19.7905 20.2119 18.6856 20.2119 17.3227C20.2119 15.9598 19.1069 14.855 17.7439 14.855C16.3808 14.855 15.2759 15.9598 15.2759 17.3227C15.2759 18.6856 16.3808 19.7905 17.7439 19.7905Z" stroke="url(#paint1_linear_4_772)" stroke-width="1.0428" stroke-linecap="round" stroke-linejoin="round"/>
<path d="M20.5164 7.51112V5.27868H21.4668C21.545 5.2783 21.6214 5.25493 21.6864 5.21152C21.7513 5.16812 21.802 5.10657 21.8322 5.03455C21.8624 4.96252 21.8708 4.8832 21.8563 4.80646C21.8418 4.72971 21.8051 4.65893 21.7506 4.60292L18.314 1.08228C18.2398 1.0062 18.1512 0.945759 18.0532 0.904478C17.9553 0.863196 17.8501 0.841919 17.7439 0.841919C17.6376 0.841919 17.5322 0.863196 17.4343 0.904478C17.3364 0.945759 17.2477 1.0062 17.1735 1.08228L13.7371 4.60292C13.6826 4.65893 13.6457 4.72971 13.6312 4.80646C13.6167 4.8832 13.6251 4.96252 13.6553 5.03455C13.6855 5.10657 13.7364 5.16812 13.8014 5.21152C13.8663 5.25493 13.9426 5.2783 14.0207 5.27868H14.9711V10.2564C14.9711 10.4677 15.055 10.6702 15.2044 10.8196C15.3538 10.969 15.5563 11.0528 15.7675 11.0528H16.9745" stroke="url(#paint2_linear_4_772)" stroke-width="1.0428" stroke-linecap="round" stroke-linejoin="round"/>
<path d="M6.33805 8.87185L1.57092 10.0786C1.46783 10.1044 1.37108 10.1508 1.28622 10.2147C1.20137 10.2787 1.13021 10.3591 1.07703 10.4511C1.02384 10.5431 0.989583 10.6449 0.976481 10.7504C0.96338 10.8559 0.971732 10.9628 1.00079 11.0651L2.33128 15.8015C2.35279 15.8765 2.3959 15.9436 2.45522 15.9944C2.51454 16.0451 2.58749 16.0773 2.66497 16.0869C2.74245 16.0966 2.82096 16.0833 2.89092 16.0486C2.96088 16.0139 3.01925 15.9595 3.0585 15.892L3.53214 15.0684L7.84368 17.5573C7.93492 17.6093 8.03555 17.6428 8.13979 17.6558C8.24403 17.6688 8.34977 17.6611 8.45101 17.633C8.55225 17.605 8.64694 17.5572 8.72963 17.4925C8.81232 17.4277 8.8813 17.3471 8.93275 17.2556L10.9091 13.8315C10.9607 13.7404 10.9937 13.64 11.0065 13.5361C11.0192 13.4322 11.0113 13.3268 10.9833 13.2259C10.9553 13.1251 10.9077 13.0307 10.8431 12.9483C10.7786 12.8658 10.6984 12.7969 10.6072 12.7455L6.29588 10.2566L6.77247 9.433C6.8038 9.36657 6.81619 9.29278 6.80819 9.21977C6.8002 9.14677 6.77213 9.07739 6.72717 9.01932C6.6822 8.96125 6.6222 8.91673 6.55351 8.8907C6.48483 8.86468 6.41022 8.85816 6.33805 8.87185Z" stroke="url(#paint3_linear_4_772)" stroke-width="1.0428" stroke-linecap="round" stroke-linejoin="round"/>
<path d="M2.33165 24.3549L1.00116 29.0914C0.972531 29.1936 0.964662 29.3005 0.977954 29.4058C0.991247 29.5111 1.02537 29.6127 1.0785 29.7047C1.13163 29.7966 1.20269 29.8769 1.28733 29.941C1.37196 30.0051 1.46841 30.0516 1.57129 30.0778L6.33842 31.2846C6.414 31.3035 6.49343 31.2999 6.56696 31.2741C6.64048 31.2483 6.70482 31.2016 6.75203 31.1396C6.79924 31.0776 6.82719 31.0032 6.8325 30.9254C6.83781 30.8477 6.8202 30.7701 6.78186 30.7023L6.30528 29.8788L10.6168 27.3899C10.8012 27.2854 10.9365 27.112 10.993 26.9078C11.0496 26.7036 11.0228 26.4852 10.9185 26.3008L8.94214 22.8797C8.83765 22.6954 8.66427 22.5601 8.46003 22.5035C8.2558 22.4469 8.03754 22.4738 7.85307 22.5781L3.54448 25.0669L3.06789 24.2434C3.0282 24.173 2.96796 24.1164 2.89534 24.081C2.82272 24.0456 2.74115 24.0332 2.66128 24.0453C2.58142 24.0574 2.50709 24.0935 2.44822 24.1488C2.38936 24.2041 2.3487 24.276 2.33165 24.3549Z" stroke="url(#paint4_linear_4_772)" stroke-width="1.0428" stroke-linecap="round" stroke-linejoin="round"/>
<path d="M13.7371 35.5658L17.1735 39.0864C17.2477 39.1625 17.3364 39.223 17.4343 39.2643C17.5322 39.3055 17.6376 39.3268 17.7439 39.3268C17.8501 39.3268 17.9553 39.3055 18.0532 39.2643C18.1512 39.223 18.2398 39.1625 18.314 39.0864L21.7506 35.5658C21.8051 35.5098 21.8418 35.439 21.8563 35.3622C21.8708 35.2855 21.8624 35.2062 21.8322 35.1341C21.802 35.0621 21.7513 35.0006 21.6864 34.9572C21.6214 34.9138 21.545 34.8904 21.4668 34.89H20.5164V29.9123C20.5164 29.7011 20.4327 29.4985 20.2833 29.3491C20.1339 29.1998 19.9312 29.1158 19.72 29.1158H15.7675C15.6629 29.1158 15.5594 29.1364 15.4628 29.1765C15.3661 29.2165 15.2784 29.2752 15.2044 29.3491C15.1304 29.4231 15.0717 29.5109 15.0317 29.6075C14.9916 29.7042 14.9711 29.8077 14.9711 29.9123V34.89H14.0207C13.9426 34.8904 13.8663 34.9138 13.8014 34.9572C13.7364 35.0006 13.6855 35.0621 13.6553 35.1341C13.6251 35.2062 13.6167 35.2855 13.6312 35.3622C13.6457 35.439 13.6826 35.5098 13.7371 35.5658Z" stroke="url(#paint5_linear_4_772)" stroke-width="1.0428" stroke-linecap="round" stroke-linejoin="round"/>
<path d="M29.1493 31.294L33.9164 30.0873C34.0193 30.061 34.1159 30.0145 34.2006 29.9504C34.2852 29.8863 34.3561 29.806 34.4092 29.7141C34.4623 29.6222 34.4966 29.5206 34.5099 29.4152C34.5232 29.3099 34.5152 29.203 34.4865 29.1008L33.1561 24.3644C33.1349 24.2891 33.0922 24.2217 33.033 24.1707C32.9739 24.1196 32.901 24.087 32.8235 24.0771C32.746 24.0671 32.6671 24.0801 32.597 24.1146C32.5268 24.149 32.4683 24.2034 32.4288 24.2708L31.9523 25.0944L27.6407 22.6056C27.5496 22.554 27.4493 22.5209 27.3453 22.5081C27.2414 22.4954 27.1359 22.5032 27.035 22.5312C26.9342 22.5593 26.8398 22.6069 26.7573 22.6714C26.6749 22.7359 26.606 22.8161 26.5546 22.9072L24.5783 26.3283C24.5262 26.4195 24.4928 26.5202 24.4797 26.6244C24.4667 26.7286 24.4745 26.8344 24.5026 26.9356C24.5306 27.0368 24.5783 27.1315 24.6431 27.2142C24.7079 27.2969 24.7885 27.3659 24.8801 27.4174L29.1915 29.9063L28.7178 30.7298C28.6847 30.796 28.6709 30.8702 28.6779 30.9439C28.6848 31.0176 28.7124 31.0878 28.7574 31.1466C28.8024 31.2054 28.8629 31.2504 28.9322 31.2764C29.0014 31.3025 29.0767 31.3086 29.1493 31.294Z" stroke="url(#paint6_linear_4_772)" stroke-width="1.0428" stroke-linecap="round" stroke-linejoin="round"/>
<path d="M33.1558 15.8139L34.4862 11.0775C34.5153 10.9753 34.5237 10.8683 34.5106 10.7628C34.4975 10.6573 34.4632 10.5555 34.41 10.4635C34.3568 10.3715 34.2857 10.2912 34.2008 10.2272C34.116 10.1632 34.0192 10.1168 33.9161 10.091L29.149 8.88428C29.073 8.86482 28.993 8.86822 28.919 8.89407C28.8449 8.91991 28.7802 8.96703 28.7328 9.02954C28.6854 9.09205 28.6575 9.16714 28.6527 9.24541C28.6478 9.32369 28.6663 9.40167 28.7055 9.46955L29.1792 10.2931L24.8676 12.782C24.7762 12.8331 24.6958 12.9019 24.631 12.9843C24.5663 13.0668 24.5186 13.1612 24.4905 13.2622C24.4624 13.3631 24.4545 13.4686 24.4675 13.5726C24.4805 13.6766 24.514 13.777 24.566 13.868L26.5421 17.2921C26.5933 17.3836 26.6621 17.4641 26.7445 17.5288C26.8269 17.5935 26.9214 17.6413 27.0224 17.6693C27.1234 17.6974 27.2289 17.7052 27.3329 17.6922C27.4369 17.6793 27.5374 17.6458 27.6284 17.5938L31.9398 15.1049L32.4166 15.9285C32.456 16 32.5164 16.0575 32.5897 16.0935C32.6629 16.1294 32.7457 16.142 32.8263 16.1295C32.907 16.117 32.9817 16.08 33.0407 16.0236C33.0996 15.9671 33.1398 15.8939 33.1558 15.8139Z" stroke="url(#paint7_linear_4_772)" stroke-width="1.0428" stroke-linecap="round" stroke-linejoin="round"/>
<ellipse cx="20.4806" cy="11.0534" rx="0.543085" ry="0.543026" fill="url(#paint8_linear_4_772)"/>
<defs>
<linearGradient id="paint0_linear_4_772" x1="14.1169" y1="22.5297" x2="21.3701" y2="22.5297" gradientUnits="userSpaceOnUse">
<stop stop-color="#2C8D8A"/>
<stop offset="1" stop-color="#1E585B"/>
</linearGradient>
<linearGradient id="paint1_linear_4_772" x1="15.2759" y1="17.3227" x2="20.2119" y2="17.3227" gradientUnits="userSpaceOnUse">
<stop stop-color="#2C8D8A"/>
<stop offset="1" stop-color="#1E585B"/>
</linearGradient>
<linearGradient id="paint2_linear_4_772" x1="13.6243" y1="5.94738" x2="21.8633" y2="5.94738" gradientUnits="userSpaceOnUse">
<stop stop-color="#2C8D8A"/>
<stop offset="1" stop-color="#1E585B"/>
</linearGradient>
<linearGradient id="paint3_linear_4_772" x1="0.970459" y1="13.2634" x2="11.0124" y2="13.2634" gradientUnits="userSpaceOnUse">
<stop stop-color="#2C8D8A"/>
<stop offset="1" stop-color="#1E585B"/>
</linearGradient>
<linearGradient id="paint4_linear_4_772" x1="0.97168" y1="26.8855" x2="11.0221" y2="26.8855" gradientUnits="userSpaceOnUse">
<stop stop-color="#2C8D8A"/>
<stop offset="1" stop-color="#1E585B"/>
</linearGradient>
<linearGradient id="paint5_linear_4_772" x1="13.6243" y1="34.2213" x2="21.8633" y2="34.2213" gradientUnits="userSpaceOnUse">
<stop stop-color="#2C8D8A"/>
<stop offset="1" stop-color="#1E585B"/>
</linearGradient>
<linearGradient id="paint6_linear_4_772" x1="24.4736" y1="26.902" x2="34.5162" y2="26.902" gradientUnits="userSpaceOnUse">
<stop stop-color="#2C8D8A"/>
<stop offset="1" stop-color="#1E585B"/>
</linearGradient>
<linearGradient id="paint7_linear_4_772" x1="24.4614" y1="13.2851" x2="34.5166" y2="13.2851" gradientUnits="userSpaceOnUse">
<stop stop-color="#2C8D8A"/>
<stop offset="1" stop-color="#1E585B"/>
</linearGradient>
<linearGradient id="paint8_linear_4_772" x1="19.9375" y1="11.0534" x2="21.0237" y2="11.0534" gradientUnits="userSpaceOnUse">
<stop stop-color="#2C8D8A"/>
<stop offset="1" stop-color="#1E585B"/>
</linearGradient>
</defs>
</svg>
