<svg width="22" height="6" viewBox="0 0 22 6" fill="none" xmlns="http://www.w3.org/2000/svg">
<path d="M0.720217 3.03384C0.720216 2.69661 0.786806 2.36263 0.916051 2.0511C1.0453 1.73958 1.23453 1.45658 1.47331 1.21826C1.7121 0.979938 1.99563 0.791037 2.30755 0.662259C2.61947 0.533481 2.95365 0.467378 3.29115 0.467775H18.6998C19.3809 0.467775 20.0338 0.738135 20.5154 1.21936C20.997 1.70059 21.2678 2.35328 21.2678 3.03384C21.2678 3.7144 20.997 4.367 20.5154 4.84822C20.0338 5.32945 19.3809 5.59981 18.6998 5.59981H3.29115C2.9534 5.60021 2.61893 5.53402 2.30681 5.40505C1.99469 5.27608 1.7114 5.08686 1.47258 4.84822C1.23375 4.60959 1.04438 4.32624 0.915314 4.01437C0.786246 3.70249 0.719819 3.36829 0.720217 3.0308" fill="#BF160B"/>
</svg>
