<svg width="35" height="36" viewBox="0 0 35 36" fill="none" xmlns="http://www.w3.org/2000/svg">
<path d="M17.8763 35.1196C21.2639 35.119 24.5753 34.1148 27.3917 32.2338C30.208 30.3528 32.403 27.6796 33.6989 24.5522C34.9949 21.4248 35.3335 17.9836 34.6723 14.6638C34.011 11.344 32.3797 8.29477 29.9841 5.90149C27.5886 3.50821 24.5363 1.87845 21.2138 1.21831C17.8913 0.558164 14.4475 0.897234 11.3179 2.19272C8.18823 3.4882 5.51351 5.68187 3.63155 8.49636C1.74958 11.3108 0.745117 14.6197 0.745117 18.0046C0.745117 20.2524 1.18831 22.4783 2.04928 24.555C2.91026 26.6317 4.17215 28.5186 5.76299 30.1079C7.35383 31.6972 9.24235 32.9579 11.3208 33.8178C13.3993 34.6777 15.6267 35.12 17.8763 35.1196Z" fill="#1E585B"/>
<path d="M7.59766 18.0054C7.59726 17.6681 7.66351 17.3342 7.7924 17.0225C7.92128 16.7108 8.11044 16.4275 8.34896 16.1889C8.58748 15.9502 8.87072 15.761 9.1825 15.6318C9.49429 15.5027 9.82827 15.4361 10.1658 15.4361H25.5753C25.9231 15.4193 26.2703 15.4732 26.5966 15.5946C26.9229 15.7159 27.2212 15.9023 27.4733 16.1422C27.7254 16.3822 27.9259 16.6707 28.063 16.9904C28.2002 17.3102 28.2711 17.6545 28.2711 18.0024C28.2711 18.3503 28.2002 18.6945 28.063 19.0142C27.9259 19.334 27.7254 19.6227 27.4733 19.8626C27.2212 20.1026 26.9229 20.2889 26.5966 20.4103C26.2703 20.5316 25.9231 20.5854 25.5753 20.5686H10.1658C9.48466 20.5686 8.83169 20.2982 8.35006 19.8169C7.86843 19.3357 7.59766 18.686 7.59766 18.0054Z" fill="white"/>
</svg>
