<svg width="62" height="62" viewBox="0 0 62 62" fill="none" xmlns="http://www.w3.org/2000/svg">
<path d="M31.2107 61.2552C37.2181 61.2557 43.0905 59.4751 48.0858 56.1383C53.081 52.8015 56.9746 48.0585 59.2739 42.5091C61.5732 36.9597 62.175 30.8532 61.0034 24.9618C59.8317 19.0704 56.9391 13.6587 52.6914 9.41112C48.4437 5.16351 43.0319 2.2707 37.1399 1.09864C31.248 -0.073418 25.1407 0.527925 19.5905 2.82649C14.0404 5.12506 9.29641 9.01765 5.95882 14.0121C2.62122 19.0065 0.839844 24.8783 0.839844 30.8851C0.839844 38.9393 4.0393 46.6636 9.73485 52.3591C15.4304 58.0545 23.1556 61.2545 31.2107 61.2552Z" fill="#ECF8F2"/>
<path d="M31.9098 32.6037C30.6936 30.7617 28.8198 29.4535 26.6715 28.9461C24.5232 28.4387 22.2624 28.7705 20.3505 29.8737C18.4386 30.9769 17.0197 32.7683 16.3842 34.882C15.7486 36.9957 15.9441 39.2723 16.9305 41.2468L31.9098 32.6037Z" fill="#1E585B"/>
<path d="M17.4795 42.1812C18.6957 44.0232 20.5695 45.3314 22.7178 45.8388C24.8661 46.3462 27.1269 46.0144 29.0388 44.9112C30.9507 43.808 32.3695 42.0166 33.0051 39.9029C33.6407 37.7892 33.4452 35.5126 32.4587 33.5381L17.4795 42.1812Z" fill="#1E585B"/>
<path d="M32.4133 31.4272C33.6897 33.067 34.4067 35.0726 34.4593 37.1498C34.5118 39.2269 33.8971 41.2662 32.7053 42.9684L33.1392 43.5389C34.1654 44.6841 35.5149 45.4912 37.0094 45.8533C38.504 46.2154 40.0734 46.1157 41.5101 45.5672C42.9468 45.0187 44.1831 44.0473 45.0559 42.7814C45.9288 41.5154 46.3969 40.0144 46.3985 38.4767V31.4272H32.4133Z" fill="#1E585B"/>
<path d="M38.8019 15.7004C36.7505 15.7455 34.8002 16.6003 33.3769 18.0781C31.9536 19.556 31.1727 21.5369 31.2051 23.5883V29.2584C31.2086 29.5438 31.3244 29.8163 31.5275 30.0168C31.7305 30.2173 32.0046 30.3298 32.29 30.3298H45.3109C45.5966 30.3298 45.8709 30.2174 46.0744 30.017C46.2779 29.8165 46.3943 29.544 46.3985 29.2584V23.5883C46.4308 21.5369 45.6503 19.556 44.227 18.0781C42.8037 16.6003 40.8534 15.7455 38.8019 15.7004Z" fill="#1E585B"/>
</svg>
