<svg width="80" height="81" viewBox="0 0 80 81" fill="none" xmlns="http://www.w3.org/2000/svg">
<path d="M77.7127 10.9979C76.5358 9.81897 74.6263 9.81694 73.4494 10.9929L37.2786 47.0682L24.2283 32.8943C23.1006 31.6702 21.1941 31.5908 19.968 32.7183C18.7428 33.846 18.6644 35.7535 19.792 36.9787L34.968 53.4601C35.5238 54.0641 36.3016 54.4149 37.1217 54.4319C37.1437 54.4329 37.165 54.4329 37.1861 54.4329C37.9831 54.4329 38.7498 54.1163 39.3147 53.5535L77.7067 15.2621C78.8866 14.0863 78.8886 12.1768 77.7127 10.9979Z" fill="url(#paint0_linear_10_572)"/>
<path d="M76.9848 37.0459C75.3195 37.0459 73.9698 38.3956 73.9698 40.061C73.9698 58.7928 58.7317 74.0309 40 74.0309C21.2694 74.0309 6.03016 58.7928 6.03016 40.061C6.03016 21.3304 21.2694 6.09119 40 6.09119C41.6653 6.09119 43.0152 4.7415 43.0152 3.07619C43.0152 1.41072 41.6653 0.0610352 40 0.0610352C17.9437 0.0610352 0 18.0048 0 40.061C0 62.1163 17.9437 80.061 40 80.061C62.0553 80.061 80 62.1163 80 40.061C80 38.3957 78.6503 37.0459 76.9848 37.0459Z" fill="url(#paint1_linear_10_572)"/>
<defs>
<linearGradient id="paint0_linear_10_572" x1="18.9951" y1="32.2726" x2="78.5931" y2="32.2726" gradientUnits="userSpaceOnUse">
<stop stop-color="#2C8D8A"/>
<stop offset="1" stop-color="#1E585B"/>
</linearGradient>
<linearGradient id="paint1_linear_10_572" x1="0" y1="40.061" x2="80" y2="40.061" gradientUnits="userSpaceOnUse">
<stop stop-color="#2C8D8A"/>
<stop offset="1" stop-color="#1E585B"/>
</linearGradient>
</defs>
</svg>
