<svg width="62" height="61" viewBox="0 0 62 61" fill="none" xmlns="http://www.w3.org/2000/svg">
<path d="M31.2107 60.7403C37.2181 60.7409 43.0905 58.9602 48.0858 55.6234C53.081 52.2866 56.9746 47.5436 59.2739 41.9942C61.5732 36.4448 62.175 30.3383 61.0034 24.4469C59.8317 18.5555 56.9391 13.1438 52.6914 8.89623C48.4437 4.64861 43.0319 1.7558 37.1399 0.583746C31.248 -0.588311 25.1407 0.0130324 19.5905 2.3116C14.0404 4.61017 9.29641 8.50275 5.95882 13.4972C2.62122 18.4916 0.839844 24.3634 0.839844 30.3702C0.839844 38.4244 4.0393 46.1487 9.73485 51.8442C15.4304 57.5396 23.1556 60.7396 31.2107 60.7403Z" fill="#ECF8F2"/>
<path d="M31.2108 36.0637C30.1882 36.0644 29.2075 36.4711 28.4847 37.1943C27.7619 37.9175 27.356 38.8982 27.356 39.9206V45.5451H35.0653V39.9206C35.0653 38.8982 34.6594 37.9175 33.9366 37.1943C33.2138 36.4711 32.2334 36.0644 31.2108 36.0637Z" fill="#1E585B"/>
<path d="M38.3602 30.6667C37.3135 31.4027 36.0652 31.7976 34.7856 31.7976C33.506 31.7976 32.2577 31.4027 31.211 30.6667C26.944 30.3335 22.6511 30.5985 18.4575 31.4542V44.6667C18.4575 44.9025 18.5513 45.1286 18.7181 45.2954C18.8849 45.4622 19.1111 45.5559 19.3469 45.5559H25.575V39.9313C25.575 38.4367 26.1687 37.0033 27.2257 35.9465C28.2826 34.8897 29.7162 34.2959 31.211 34.2959C32.7057 34.2959 34.139 34.8897 35.196 35.9465C36.2529 37.0033 36.8469 38.4367 36.8469 39.9313V45.5559H43.0747C43.1915 45.5559 43.3072 45.5328 43.4151 45.4881C43.523 45.4434 43.6209 45.378 43.7035 45.2954C43.7861 45.2128 43.8517 45.1148 43.8964 45.0069C43.9411 44.8991 43.9641 44.7834 43.9641 44.6667V31.4542C43.0343 31.7751 42.0414 31.8711 41.0673 31.7342C40.0932 31.5973 39.1655 31.2315 38.3602 30.6667Z" fill="#1E585B"/>
<path d="M16.0251 22.8972V25.5515C25.5803 26.4999 35.1098 27.6923 44.6041 29.1272C45.1611 28.7121 45.6132 28.1726 45.9248 27.5519C46.2364 26.9311 46.3986 26.2461 46.3986 25.5515V22.8972H16.0251Z" fill="#1E585B"/>
<path d="M43.3367 15.6763C43.262 15.5276 43.1472 15.4028 43.0051 15.3161C42.8631 15.2295 42.6994 15.1844 42.533 15.1861H19.8715C19.7051 15.1844 19.5414 15.2295 19.3993 15.3161C19.2573 15.4028 19.1424 15.5276 19.0678 15.6763L16.3489 21.1187H46.0422L43.3367 15.6763Z" fill="#1E585B"/>
</svg>
