<svg width="35" height="41" viewBox="0 0 35 41" fill="none" xmlns="http://www.w3.org/2000/svg">
<path d="M22.898 7.8394H11.2428M7.80933 5.1062H26.3315" stroke="url(#paint0_linear_4_832)" stroke-width="1.0428" stroke-linecap="round" stroke-linejoin="round"/>
<path d="M7.80957 13.0769L9.26382 14.3077L12.0003 11.0405" stroke="url(#paint1_linear_4_832)" stroke-width="1.0428" stroke-linecap="round" stroke-linejoin="round"/>
<path d="M7.80981 18.6193L9.26406 19.8502L12.0006 16.583" stroke="url(#paint2_linear_4_832)" stroke-width="1.0428" stroke-linecap="round" stroke-linejoin="round"/>
<path d="M7.80981 24.1618L9.26406 25.3927L12.0006 22.1255" stroke="url(#paint3_linear_4_832)" stroke-width="1.0428" stroke-linecap="round" stroke-linejoin="round"/>
<path d="M7.80981 29.7038L9.26406 30.9376L12.0006 27.6704" stroke="url(#paint4_linear_4_832)" stroke-width="1.0428" stroke-linecap="round" stroke-linejoin="round"/>
<path d="M21.6041 14.0427H14.9875" stroke="url(#paint5_linear_4_832)" stroke-width="1.0428" stroke-linecap="round" stroke-linejoin="round"/>
<path d="M19.4112 11.3005H26.2811M14.991 11.3005H16.6656" stroke="url(#paint6_linear_4_832)" stroke-width="1.0428" stroke-linecap="round" stroke-linejoin="round"/>
<path d="M21.6041 19.5852H14.9875" stroke="url(#paint7_linear_4_832)" stroke-width="1.0428" stroke-linecap="round" stroke-linejoin="round"/>
<path d="M14.991 22.3909H26.2811" stroke="url(#paint8_linear_4_832)" stroke-width="1.0428" stroke-linecap="round" stroke-linejoin="round"/>
<path d="M20.1896 30.6692H14.991" stroke="url(#paint9_linear_4_832)" stroke-width="1.0428" stroke-linecap="round" stroke-linejoin="round"/>
<path d="M21.8611 16.8484H14.991M26.2811 16.8484H24.6066" stroke="url(#paint10_linear_4_832)" stroke-width="1.0428" stroke-linecap="round" stroke-linejoin="round"/>
<path d="M16.376 25.1272H14.991M21.6077 25.1272H18.4337" stroke="url(#paint11_linear_4_832)" stroke-width="1.0428" stroke-linecap="round" stroke-linejoin="round"/>
<path d="M22.5852 27.9329H14.991" stroke="url(#paint12_linear_4_832)" stroke-width="1.0428" stroke-linecap="round" stroke-linejoin="round"/>
<path d="M29.9338 16.3319V29.0267M23.414 34.8008H5.00929C4.79481 34.7992 4.58962 34.7131 4.43824 34.5612C4.28685 34.4093 4.20147 34.2038 4.20068 33.9893V2.05033C4.20147 1.83586 4.28685 1.63035 4.43824 1.47842C4.58962 1.32648 4.79481 1.24036 5.00929 1.23877H29.1193C29.3341 1.23957 29.5398 1.32544 29.6913 1.47754C29.8429 1.62965 29.9279 1.83562 29.9279 2.05033V13.653" stroke="url(#paint13_linear_4_832)" stroke-width="1.0428" stroke-linecap="round" stroke-linejoin="round"/>
<path d="M1.21094 21.7834V5.04613C1.21173 4.83167 1.29711 4.62615 1.44849 4.47422C1.59988 4.32229 1.80506 4.23621 2.01955 4.23462H4.2069M24.3523 37.7967H2.02544C1.81096 37.7951 1.60577 37.7089 1.45439 37.557C1.303 37.4051 1.2178 37.1996 1.21701 36.9851V24.4653" stroke="url(#paint14_linear_4_832)" stroke-width="1.0428" stroke-linecap="round" stroke-linejoin="round"/>
<path d="M27.0991 34.5881L28.2639 35.6138L30.4542 32.8987" stroke="url(#paint15_linear_4_832)" stroke-width="1.0428" stroke-linecap="round" stroke-linejoin="round"/>
<path d="M34.2013 34.3137C34.2013 32.8795 33.6317 31.504 32.6174 30.4899C31.6032 29.4757 30.2275 28.906 28.7932 28.906C27.3588 28.906 25.9833 29.4757 24.9691 30.4899C23.9548 31.504 23.385 32.8795 23.385 34.3137C23.385 34.4796 23.3849 34.6425 23.406 34.8024C23.5369 36.1847 24.1946 37.4639 25.2427 38.3748C26.2908 39.2858 27.6491 39.7588 29.0364 39.696C30.4237 39.6332 31.7337 39.0394 32.6952 38.0374C33.6566 37.0355 34.1959 35.7022 34.2013 34.3137Z" stroke="url(#paint16_linear_4_832)" stroke-width="1.0428" stroke-linecap="round" stroke-linejoin="round"/>
<defs>
<linearGradient id="paint0_linear_4_832" x1="7.80933" y1="6.4728" x2="26.3315" y2="6.4728" gradientUnits="userSpaceOnUse">
<stop stop-color="#2C8D8A"/>
<stop offset="1" stop-color="#1E585B"/>
</linearGradient>
<linearGradient id="paint1_linear_4_832" x1="7.80957" y1="12.6741" x2="12.0003" y2="12.6741" gradientUnits="userSpaceOnUse">
<stop stop-color="#2C8D8A"/>
<stop offset="1" stop-color="#1E585B"/>
</linearGradient>
<linearGradient id="paint2_linear_4_832" x1="7.80981" y1="18.2166" x2="12.0006" y2="18.2166" gradientUnits="userSpaceOnUse">
<stop stop-color="#2C8D8A"/>
<stop offset="1" stop-color="#1E585B"/>
</linearGradient>
<linearGradient id="paint3_linear_4_832" x1="7.80981" y1="23.7591" x2="12.0006" y2="23.7591" gradientUnits="userSpaceOnUse">
<stop stop-color="#2C8D8A"/>
<stop offset="1" stop-color="#1E585B"/>
</linearGradient>
<linearGradient id="paint4_linear_4_832" x1="7.80981" y1="29.304" x2="12.0006" y2="29.304" gradientUnits="userSpaceOnUse">
<stop stop-color="#2C8D8A"/>
<stop offset="1" stop-color="#1E585B"/>
</linearGradient>
<linearGradient id="paint5_linear_4_832" x1="14.9875" y1="14.5427" x2="21.6041" y2="14.5427" gradientUnits="userSpaceOnUse">
<stop stop-color="#2C8D8A"/>
<stop offset="1" stop-color="#1E585B"/>
</linearGradient>
<linearGradient id="paint6_linear_4_832" x1="14.991" y1="11.8005" x2="26.2811" y2="11.8005" gradientUnits="userSpaceOnUse">
<stop stop-color="#2C8D8A"/>
<stop offset="1" stop-color="#1E585B"/>
</linearGradient>
<linearGradient id="paint7_linear_4_832" x1="14.9875" y1="20.0852" x2="21.6041" y2="20.0852" gradientUnits="userSpaceOnUse">
<stop stop-color="#2C8D8A"/>
<stop offset="1" stop-color="#1E585B"/>
</linearGradient>
<linearGradient id="paint8_linear_4_832" x1="14.991" y1="22.8909" x2="26.2811" y2="22.8909" gradientUnits="userSpaceOnUse">
<stop stop-color="#2C8D8A"/>
<stop offset="1" stop-color="#1E585B"/>
</linearGradient>
<linearGradient id="paint9_linear_4_832" x1="14.991" y1="31.1692" x2="20.1896" y2="31.1692" gradientUnits="userSpaceOnUse">
<stop stop-color="#2C8D8A"/>
<stop offset="1" stop-color="#1E585B"/>
</linearGradient>
<linearGradient id="paint10_linear_4_832" x1="14.991" y1="17.3484" x2="26.2811" y2="17.3484" gradientUnits="userSpaceOnUse">
<stop stop-color="#2C8D8A"/>
<stop offset="1" stop-color="#1E585B"/>
</linearGradient>
<linearGradient id="paint11_linear_4_832" x1="14.991" y1="25.6272" x2="21.6077" y2="25.6272" gradientUnits="userSpaceOnUse">
<stop stop-color="#2C8D8A"/>
<stop offset="1" stop-color="#1E585B"/>
</linearGradient>
<linearGradient id="paint12_linear_4_832" x1="14.991" y1="28.4329" x2="22.5852" y2="28.4329" gradientUnits="userSpaceOnUse">
<stop stop-color="#2C8D8A"/>
<stop offset="1" stop-color="#1E585B"/>
</linearGradient>
<linearGradient id="paint13_linear_4_832" x1="4.20068" y1="18.0198" x2="29.9338" y2="18.0198" gradientUnits="userSpaceOnUse">
<stop stop-color="#2C8D8A"/>
<stop offset="1" stop-color="#1E585B"/>
</linearGradient>
<linearGradient id="paint14_linear_4_832" x1="1.21094" y1="21.0156" x2="24.3523" y2="21.0156" gradientUnits="userSpaceOnUse">
<stop stop-color="#2C8D8A"/>
<stop offset="1" stop-color="#1E585B"/>
</linearGradient>
<linearGradient id="paint15_linear_4_832" x1="27.0991" y1="34.2563" x2="30.4542" y2="34.2563" gradientUnits="userSpaceOnUse">
<stop stop-color="#2C8D8A"/>
<stop offset="1" stop-color="#1E585B"/>
</linearGradient>
<linearGradient id="paint16_linear_4_832" x1="23.385" y1="34.3038" x2="34.2013" y2="34.3038" gradientUnits="userSpaceOnUse">
<stop stop-color="#2C8D8A"/>
<stop offset="1" stop-color="#1E585B"/>
</linearGradient>
</defs>
</svg>
