<svg width="25" height="25" viewBox="0 0 25 25" fill="none" xmlns="http://www.w3.org/2000/svg">
<path d="M5.7175 16.5673C8.09365 19.4077 10.954 21.6441 14.2187 23.2265C15.4617 23.8155 17.124 24.5144 18.976 24.6342C19.0908 24.6392 19.2007 24.6442 19.3155 24.6442C20.5585 24.6442 21.5568 24.2149 22.3705 23.3313C22.3755 23.3263 22.3855 23.3163 22.3905 23.3064C22.68 22.9569 23.0095 22.6424 23.3539 22.308C23.5885 22.0833 23.8282 21.8487 24.0578 21.6091C25.1211 20.5009 25.1211 19.0932 24.0478 18.0199L21.0477 15.0198C20.5385 14.4906 19.9295 14.2111 19.2905 14.2111C18.6515 14.2111 18.0375 14.4906 17.5134 15.0148L15.7263 16.8019C15.5616 16.7071 15.3918 16.6222 15.2321 16.5423C15.0324 16.4425 14.8477 16.3476 14.683 16.2428C13.0556 15.2095 11.578 13.8617 10.1653 12.1295C9.45145 11.2259 8.97222 10.4672 8.63777 9.69342C9.10701 9.2691 9.54629 8.82482 9.97061 8.39053C10.1204 8.23578 10.2751 8.08103 10.4299 7.92628C10.969 7.38715 11.2585 6.76316 11.2585 6.12919C11.2585 5.49522 10.974 4.87123 10.4299 4.3321L8.94227 2.84451C8.76756 2.66979 8.60282 2.50007 8.4331 2.32535C8.10363 1.9859 7.75919 1.63647 7.41974 1.32198C6.90557 0.817794 6.30155 0.553223 5.66258 0.553223C5.02861 0.553223 4.4196 0.817794 3.88546 1.32697L2.01849 3.19395C1.33959 3.87285 0.95521 4.69651 0.875339 5.64997C0.780493 6.84303 1.00014 8.11098 1.56921 9.6435C2.4428 12.0147 3.76067 14.2161 5.7175 16.5673ZM2.09337 5.7548C2.15327 5.09087 2.40786 4.53677 2.88708 4.05755L4.74407 2.20055C5.0336 1.92101 5.35309 1.77624 5.66258 1.77624C5.96709 1.77624 6.27659 1.92101 6.56113 2.21054C6.89559 2.52004 7.21008 2.84451 7.54953 3.18895C7.71925 3.36367 7.89397 3.53839 8.06869 3.7181L9.55628 5.20569C9.86578 5.51518 10.0255 5.82968 10.0255 6.13917C10.0255 6.44867 9.86578 6.76316 9.55628 7.07266C9.40153 7.22741 9.24678 7.38715 9.09203 7.5419C8.62778 8.01114 8.19349 8.45542 7.71426 8.87973C7.70428 8.88972 7.69929 8.89471 7.6893 8.90469C7.27497 9.31902 7.33987 9.71338 7.43971 10.0129C7.4447 10.0279 7.44969 10.0379 7.45468 10.0528C7.83906 10.9763 8.37319 11.8549 9.20684 12.9032C10.7044 14.7502 12.2819 16.1829 14.019 17.2861C14.2337 17.4259 14.4633 17.5357 14.678 17.6455C14.8777 17.7454 15.0624 17.8402 15.2271 17.9451C15.2471 17.955 15.262 17.965 15.282 17.975C15.4467 18.0599 15.6065 18.0998 15.7662 18.0998C16.1656 18.0998 16.4252 17.8452 16.51 17.7604L18.377 15.8934C18.6665 15.6038 18.981 15.4491 19.2905 15.4491C19.6699 15.4491 19.9794 15.6837 20.1741 15.8934L23.1842 18.8985C23.7832 19.4975 23.7782 20.1465 23.1692 20.7805C22.9596 21.0051 22.7399 21.2197 22.5053 21.4444C22.1559 21.7838 21.7915 22.1333 21.462 22.5276C20.8879 23.1466 20.204 23.4362 19.3205 23.4362C19.2356 23.4362 19.1457 23.4312 19.0609 23.4262C17.4235 23.3213 15.901 22.6824 14.7579 22.1383C11.6529 20.6357 8.9273 18.5041 6.66596 15.7985C4.80398 13.5572 3.551 11.4705 2.72235 9.23416C2.20818 7.86138 2.0135 6.75817 2.09337 5.7548Z" fill="url(#paint0_linear_16_3)"/>
<defs>
<linearGradient id="paint0_linear_16_3" x1="12.854" y1="0.553223" x2="12.854" y2="24.6442" gradientUnits="userSpaceOnUse">
<stop stop-color="#2C8D8A"/>
<stop offset="1" stop-color="#1E585B"/>
</linearGradient>
</defs>
</svg>
