<svg width="40" height="40" viewBox="0 0 40 40" fill="none" xmlns="http://www.w3.org/2000/svg">
<path d="M27.9013 20.7784H29.5579C29.7404 20.7784 29.9153 20.7059 30.0443 20.5769C30.1733 20.4479 30.2458 20.2729 30.2458 20.0905V18.6544C30.246 18.5134 30.2895 18.3757 30.3705 18.2602C30.4514 18.1447 30.566 18.0569 30.6985 18.0087C30.9493 17.9219 31.1952 17.8211 31.4348 17.707C31.5631 17.6472 31.7065 17.6285 31.8459 17.6534C31.9852 17.6782 32.1135 17.7454 32.2133 17.8458L33.2271 18.8595C33.3566 18.9883 33.5318 19.0606 33.7144 19.0606C33.8971 19.0606 34.0723 18.9883 34.2018 18.8595L36.1812 16.8803C36.31 16.7508 36.3823 16.5757 36.3823 16.3931C36.3823 16.2104 36.31 16.0353 36.1812 15.9058L35.1673 14.8921C35.067 14.7923 34.9997 14.6641 34.9749 14.5248C34.9501 14.3855 34.9687 14.2419 35.0285 14.1137C35.1432 13.8743 35.2441 13.6285 35.3303 13.3774C35.3782 13.2447 35.4658 13.1299 35.5814 13.0489C35.6969 12.9679 35.8349 12.9246 35.976 12.9249H37.4122C37.5946 12.9249 37.7697 12.8524 37.8988 12.7234C38.0278 12.5944 38.1002 12.4194 38.1002 12.237V9.43711C38.1002 9.25467 38.0278 9.07969 37.8988 8.95068C37.7697 8.82167 37.5946 8.74922 37.4122 8.74922H35.976C35.8344 8.74973 35.6962 8.70619 35.5804 8.62455C35.4647 8.54291 35.3773 8.42722 35.3303 8.29364C35.2436 8.04379 35.1427 7.79908 35.0285 7.56054C34.9687 7.43227 34.9501 7.28864 34.9749 7.14934C34.9997 7.01004 35.067 6.88178 35.1673 6.78205L36.1812 5.76831C36.31 5.63885 36.3823 5.46367 36.3823 5.28106C36.3823 5.09845 36.31 4.92326 36.1812 4.7938L34.2018 2.81466C34.138 2.75017 34.0622 2.69888 33.9785 2.66393C33.8949 2.62899 33.8051 2.61099 33.7144 2.61099C33.6238 2.61099 33.534 2.62899 33.4503 2.66393C33.3667 2.69888 33.2908 2.75017 33.2271 2.81466L32.2133 3.8284C32.1137 3.92905 31.9852 3.99614 31.8457 4.02047C31.7062 4.0448 31.5626 4.02511 31.4348 3.96412C31.1964 3.85248 30.9489 3.74989 30.6985 3.66239C30.5657 3.61452 30.451 3.52678 30.3699 3.41121C30.2889 3.29564 30.2455 3.1579 30.2458 3.01676V1.58059C30.2458 1.39815 30.1733 1.22326 30.0443 1.09425C29.9153 0.965245 29.7404 0.8927 29.5579 0.8927H26.7578C26.5751 0.892698 26.3997 0.965147 26.2702 1.09407C26.1407 1.22299 26.0676 1.39787 26.0668 1.58059V3.01676C26.0676 3.158 26.0243 3.29601 25.9433 3.41167C25.8622 3.52733 25.7472 3.61489 25.6141 3.66239C25.3637 3.7529 25.1193 3.8555 24.881 3.96412C24.7532 4.02511 24.6096 4.0448 24.4701 4.02047C24.3306 3.99614 24.2021 3.92905 24.1025 3.8284L23.0855 2.81466C23.0221 2.75026 22.9464 2.69903 22.863 2.66412C22.7796 2.62921 22.6901 2.61127 22.5997 2.61127C22.5093 2.61127 22.4199 2.62921 22.3365 2.66412C22.2531 2.69903 22.1775 2.75026 22.114 2.81466L20.1314 4.7938C20.0026 4.92326 19.9303 5.09845 19.9303 5.28106C19.9303 5.46367 20.0026 5.63885 20.1314 5.76831L21.1484 6.78205C21.2491 6.88164 21.3162 7.01013 21.3405 7.14961C21.3648 7.2891 21.3452 7.43276 21.2842 7.56054C21.1725 7.79889 21.07 8.04322 20.9825 8.29364C20.9355 8.42722 20.8479 8.54291 20.7322 8.62455C20.6165 8.70619 20.4782 8.74973 20.3366 8.74922H18.9005C18.718 8.74922 18.5429 8.82167 18.4139 8.95068C18.2849 9.07969 18.2124 9.25467 18.2124 9.43711V11.0935" stroke="url(#paint0_linear_50_959)" stroke-width="0.983514" stroke-linecap="round" stroke-linejoin="round"/>
<path d="M23.2905 11.2661C23.2905 11.1243 23.2725 10.9643 23.2725 10.8346C23.2731 9.86936 23.5599 8.92598 24.0966 8.12365C24.6333 7.32133 25.3957 6.69611 26.2877 6.32701C27.1797 5.9579 28.1611 5.86141 29.1078 6.04986C30.0546 6.23832 30.9242 6.70324 31.6068 7.38577C32.2894 8.0683 32.7545 8.93782 32.943 9.88448C33.1315 10.8312 33.035 11.8125 32.6658 12.7044C32.2967 13.5962 31.6713 14.3586 30.8689 14.8953C30.0665 15.4319 29.1231 15.7186 28.1577 15.7192C28.0702 15.7192 27.9857 15.7192 27.9012 15.7192" stroke="url(#paint1_linear_50_959)" stroke-width="0.983514" stroke-linecap="round" stroke-linejoin="round"/>
<path d="M9.09683 39.3729H6.44443C4.99034 39.3729 3.59588 38.7954 2.56768 37.7673C1.53948 36.7393 0.961914 35.3449 0.961914 33.8909C0.961914 32.437 1.53948 31.0426 2.56768 30.0145C3.59588 28.9864 4.99034 28.4088 6.44443 28.4088H33.9876C35.4417 28.4088 36.8362 28.9864 37.8644 30.0145C38.8926 31.0426 39.4701 32.437 39.4701 33.8909C39.4701 35.3449 38.8926 36.7393 37.8644 37.7673C36.8362 38.7954 35.4417 39.3729 33.9876 39.3729H11.7914" stroke="url(#paint2_linear_50_959)" stroke-width="0.983514" stroke-linecap="round" stroke-linejoin="round"/>
<path d="M10.3188 33.8906C10.3188 34.3239 10.1903 34.7474 9.94958 35.1076C9.70887 35.4678 9.36677 35.7486 8.96648 35.9143C8.5662 36.0801 8.12564 36.1234 7.70069 36.0389C7.27575 35.9544 6.88547 35.7459 6.5791 35.4395C6.27274 35.1332 6.06416 34.7429 5.97964 34.318C5.89511 33.8931 5.93833 33.4526 6.10413 33.0524C6.26994 32.6522 6.55073 32.3101 6.91098 32.0694C7.27123 31.8287 7.69488 31.7002 8.12815 31.7002C8.70914 31.7002 9.26637 31.931 9.67719 32.3418C10.088 32.7526 10.3188 33.3097 10.3188 33.8906Z" stroke="url(#paint3_linear_50_959)" stroke-width="0.983514" stroke-linecap="round" stroke-linejoin="round"/>
<path d="M18.3818 33.8906C18.3818 34.3239 18.2533 34.7474 18.0126 35.1076C17.7719 35.4678 17.4298 35.7486 17.0295 35.9143C16.6292 36.0801 16.1886 36.1234 15.7637 36.0389C15.3387 35.9544 14.9485 35.7459 14.6421 35.4395C14.3357 35.1332 14.1272 34.7429 14.0426 34.318C13.9581 33.8931 14.0013 33.4526 14.1671 33.0524C14.3329 32.6522 14.6137 32.3101 14.974 32.0694C15.3342 31.8287 15.7579 31.7002 16.1911 31.7002C16.7721 31.7002 17.3294 31.931 17.7402 32.3418C18.151 32.7526 18.3818 33.3097 18.3818 33.8906Z" stroke="url(#paint4_linear_50_959)" stroke-width="0.983514" stroke-linecap="round" stroke-linejoin="round"/>
<path d="M26.4379 33.8906C26.4379 34.3239 26.3094 34.7474 26.0687 35.1076C25.828 35.4678 25.4859 35.7486 25.0856 35.9143C24.6853 36.0801 24.2449 36.1234 23.82 36.0389C23.395 35.9544 23.0046 35.7459 22.6982 35.4395C22.3918 35.1332 22.1833 34.7429 22.0987 34.318C22.0142 33.8931 22.0576 33.4526 22.2234 33.0524C22.3892 32.6522 22.67 32.3101 23.0303 32.0694C23.3905 31.8287 23.814 31.7002 24.2472 31.7002C24.8282 31.7002 25.3855 31.931 25.7963 32.3418C26.2071 32.7526 26.4379 33.3097 26.4379 33.8906Z" stroke="url(#paint5_linear_50_959)" stroke-width="0.983514" stroke-linecap="round" stroke-linejoin="round"/>
<path d="M34.4978 33.8906C34.4984 34.3247 34.3701 34.7492 34.1293 35.1104C33.8885 35.4715 33.5459 35.7531 33.1449 35.9195C32.7439 36.0859 32.3027 36.1296 31.8769 36.0451C31.4511 35.9606 31.0599 35.7516 30.7529 35.4447C30.4459 35.1377 30.2369 34.7466 30.1523 34.3208C30.0678 33.8951 30.1115 33.4538 30.2779 33.0529C30.4444 32.6519 30.726 32.3094 31.0872 32.0686C31.4484 31.8278 31.873 31.6996 32.3071 31.7002C32.8881 31.7002 33.4453 31.931 33.8562 32.3418C34.267 32.7526 34.4978 33.3097 34.4978 33.8906Z" stroke="url(#paint6_linear_50_959)" stroke-width="0.983514" stroke-linecap="round" stroke-linejoin="round"/>
<path d="M27.9014 25.5271V28.4084H10.7563V11.8718C10.7563 11.7117 10.82 11.5583 10.9331 11.4451C11.0463 11.3319 11.1998 11.2683 11.3599 11.2683H27.2919C27.452 11.2683 27.6055 11.3319 27.7187 11.4451C27.8318 11.5583 27.8953 11.7117 27.8953 11.8718V22.851" stroke="url(#paint7_linear_50_959)" stroke-width="0.983514" stroke-linecap="round" stroke-linejoin="round"/>
<path d="M19.3289 11.2655H17.2832V15.8183C17.2832 15.8797 17.299 15.94 17.3291 15.9936C17.3591 16.0472 17.4023 16.0922 17.4547 16.1243C17.507 16.1564 17.5668 16.1745 17.6282 16.1769C17.6895 16.1794 17.7504 16.1659 17.8051 16.1381L19.163 15.4441C19.2137 15.4174 19.2702 15.4035 19.3275 15.4035C19.3848 15.4035 19.4412 15.4174 19.4919 15.4441L20.8498 16.1381C20.9047 16.1667 20.9659 16.1806 21.0277 16.1785C21.0895 16.1764 21.1497 16.1585 21.2025 16.1263C21.2553 16.0941 21.299 16.0489 21.3292 15.9949C21.3594 15.9409 21.3751 15.8801 21.3749 15.8183V11.2655H19.3289Z" stroke="url(#paint8_linear_50_959)" stroke-width="0.983514" stroke-linecap="round" stroke-linejoin="round"/>
<path d="M22.2166 25.5276H16.4412C16.3954 25.5276 16.35 25.5186 16.3077 25.5009C16.2654 25.4833 16.2271 25.4575 16.1948 25.425C16.1625 25.3924 16.1369 25.3538 16.1197 25.3114C16.1024 25.2689 16.0939 25.2235 16.0943 25.1777V22.7006C16.0938 22.6549 16.1024 22.6096 16.1197 22.5674C16.137 22.5251 16.1627 22.4867 16.195 22.4544C16.2273 22.4221 16.2656 22.3965 16.3079 22.3792C16.3502 22.362 16.3955 22.3532 16.4412 22.3537H22.2166C22.3086 22.3537 22.3968 22.3902 22.4619 22.4553C22.527 22.5204 22.5635 22.6086 22.5635 22.7006V25.1777C22.5636 25.27 22.5271 25.3585 22.4621 25.4241C22.3971 25.4896 22.3089 25.5268 22.2166 25.5276Z" stroke="url(#paint9_linear_50_959)" stroke-width="0.983514" stroke-linecap="round" stroke-linejoin="round"/>
<defs>
<linearGradient id="paint0_linear_50_959" x1="18.2124" y1="10.8355" x2="38.1002" y2="10.8355" gradientUnits="userSpaceOnUse">
<stop stop-color="#2C8D8A"/>
<stop offset="1" stop-color="#1E585B"/>
</linearGradient>
<linearGradient id="paint1_linear_50_959" x1="23.2725" y1="10.8376" x2="33.0369" y2="10.8376" gradientUnits="userSpaceOnUse">
<stop stop-color="#2C8D8A"/>
<stop offset="1" stop-color="#1E585B"/>
</linearGradient>
<linearGradient id="paint2_linear_50_959" x1="0.961914" y1="33.8909" x2="39.4701" y2="33.8909" gradientUnits="userSpaceOnUse">
<stop stop-color="#2C8D8A"/>
<stop offset="1" stop-color="#1E585B"/>
</linearGradient>
<linearGradient id="paint3_linear_50_959" x1="5.9375" y1="33.8906" x2="10.3188" y2="33.8906" gradientUnits="userSpaceOnUse">
<stop stop-color="#2C8D8A"/>
<stop offset="1" stop-color="#1E585B"/>
</linearGradient>
<linearGradient id="paint4_linear_50_959" x1="14.0005" y1="33.8906" x2="18.3818" y2="33.8906" gradientUnits="userSpaceOnUse">
<stop stop-color="#2C8D8A"/>
<stop offset="1" stop-color="#1E585B"/>
</linearGradient>
<linearGradient id="paint5_linear_50_959" x1="22.0566" y1="33.8906" x2="26.4379" y2="33.8906" gradientUnits="userSpaceOnUse">
<stop stop-color="#2C8D8A"/>
<stop offset="1" stop-color="#1E585B"/>
</linearGradient>
<linearGradient id="paint6_linear_50_959" x1="30.1104" y1="33.8936" x2="34.4978" y2="33.8936" gradientUnits="userSpaceOnUse">
<stop stop-color="#2C8D8A"/>
<stop offset="1" stop-color="#1E585B"/>
</linearGradient>
<linearGradient id="paint7_linear_50_959" x1="10.7563" y1="19.8384" x2="27.9014" y2="19.8384" gradientUnits="userSpaceOnUse">
<stop stop-color="#2C8D8A"/>
<stop offset="1" stop-color="#1E585B"/>
</linearGradient>
<linearGradient id="paint8_linear_50_959" x1="17.2832" y1="13.7221" x2="21.3749" y2="13.7221" gradientUnits="userSpaceOnUse">
<stop stop-color="#2C8D8A"/>
<stop offset="1" stop-color="#1E585B"/>
</linearGradient>
<linearGradient id="paint9_linear_50_959" x1="16.0942" y1="23.9406" x2="22.5635" y2="23.9406" gradientUnits="userSpaceOnUse">
<stop stop-color="#2C8D8A"/>
<stop offset="1" stop-color="#1E585B"/>
</linearGradient>
</defs>
</svg>
