<svg width="35" height="41" viewBox="0 0 35 41" fill="none" xmlns="http://www.w3.org/2000/svg">
<path d="M9.81925 2.07678H2.13224C1.82419 2.07678 1.52863 2.19914 1.31081 2.41694C1.09298 2.63474 0.970703 2.93009 0.970703 3.2381V10.4388" stroke="url(#paint0_linear_50_974)" stroke-width="0.983514" stroke-linecap="round" stroke-linejoin="round"/>
<path d="M30.6603 23.5337V3.2381C30.6603 2.93009 30.5378 2.63474 30.32 2.41694C30.1021 2.19914 29.8068 2.07678 29.4987 2.07678H21.8115" stroke="url(#paint1_linear_50_974)" stroke-width="0.983514" stroke-linecap="round" stroke-linejoin="round"/>
<path d="M0.961914 13.1506V38.5834C0.96271 38.8912 1.08528 39.1862 1.30294 39.4038C1.52059 39.6214 1.81546 39.7441 2.12327 39.7449H29.4988C29.8069 39.7449 30.1023 39.6225 30.3201 39.4047C30.5379 39.1869 30.6604 38.8915 30.6604 38.5834V34.3602" stroke="url(#paint2_linear_50_974)" stroke-width="0.983514" stroke-linecap="round" stroke-linejoin="round"/>
<path d="M9.81973 4.34253H3.62608C3.57511 4.34253 3.52453 4.35267 3.47748 4.37226C3.43043 4.39186 3.3878 4.42051 3.3519 4.45668C3.316 4.49286 3.28753 4.53579 3.2683 4.58299C3.24907 4.63018 3.23936 4.6807 3.23976 4.73166V37.0906C3.23976 37.193 3.28058 37.2912 3.353 37.3637C3.42542 37.4361 3.52366 37.4767 3.62608 37.4767H20.6474" stroke="url(#paint3_linear_50_974)" stroke-width="0.983514" stroke-linecap="round" stroke-linejoin="round"/>
<path d="M28.3944 22.7709V4.73166C28.3944 4.62846 28.3534 4.52948 28.2805 4.4565C28.2075 4.38352 28.1086 4.34253 28.0054 4.34253H21.8115" stroke="url(#paint4_linear_50_974)" stroke-width="0.983514" stroke-linecap="round" stroke-linejoin="round"/>
<path d="M23.3472 37.4761H28.0053C28.0563 37.4765 28.1067 37.4668 28.1539 37.4476C28.2011 37.4283 28.244 37.4 28.2802 37.3641C28.3164 37.3282 28.3451 37.2856 28.3647 37.2385C28.3843 37.1915 28.3944 37.141 28.3944 37.09V35.1322" stroke="url(#paint5_linear_50_974)" stroke-width="0.983514" stroke-linecap="round" stroke-linejoin="round"/>
<path d="M12.1729 3.72351H12.4309" stroke="url(#paint6_linear_50_974)" stroke-width="0.983514" stroke-linecap="round" stroke-linejoin="round"/>
<path d="M19.1899 3.72363H19.448" stroke="url(#paint7_linear_50_974)" stroke-width="0.983514" stroke-linecap="round" stroke-linejoin="round"/>
<path d="M23.0637 8.56239L23.5646 9.57596C23.5935 9.63332 23.6361 9.68263 23.6887 9.71948C23.7414 9.75632 23.8024 9.77958 23.8662 9.78714L24.9825 9.94999C25.0542 9.96004 25.1216 9.99006 25.1771 10.0366C25.2326 10.0832 25.2739 10.1444 25.2962 10.2133C25.3186 10.2822 25.321 10.356 25.3034 10.4263C25.2858 10.4966 25.2488 10.5604 25.1966 10.6106L24.3912 11.3949C24.3464 11.4391 24.3128 11.4934 24.2934 11.5533C24.274 11.6131 24.2693 11.6768 24.2796 11.7389L24.4696 12.8489C24.4815 12.92 24.4733 12.993 24.4461 13.0597C24.4188 13.1265 24.3735 13.1844 24.3153 13.2269C24.2571 13.2695 24.1883 13.295 24.1165 13.3007C24.0446 13.3064 23.9726 13.2921 23.9084 13.2592L22.9098 12.7343C22.8546 12.7047 22.7929 12.6893 22.7303 12.6893C22.6676 12.6893 22.6059 12.7047 22.5507 12.7343L21.5522 13.2592C21.488 13.2921 21.4161 13.3064 21.3443 13.3007C21.2724 13.295 21.2034 13.2695 21.1452 13.2269C21.087 13.1844 21.0419 13.1265 21.0147 13.0597C20.9874 12.993 20.9793 12.92 20.9911 12.8489L21.1811 11.7389C21.1915 11.6768 21.1867 11.6131 21.1673 11.5533C21.1479 11.4934 21.1144 11.4391 21.0695 11.3949L20.261 10.6106C20.2088 10.5604 20.1718 10.4966 20.1542 10.4263C20.1366 10.356 20.139 10.2822 20.1614 10.2133C20.1837 10.1444 20.225 10.0832 20.2805 10.0366C20.336 9.99006 20.4034 9.96004 20.4751 9.94999L21.5914 9.78714C21.6553 9.77985 21.7164 9.75672 21.7691 9.71985C21.8218 9.68297 21.8645 9.63349 21.8932 9.57596L22.3909 8.56239C22.4245 8.50277 22.4734 8.45312 22.5325 8.41859C22.5916 8.38407 22.6589 8.36584 22.7273 8.36584C22.7958 8.36584 22.863 8.38407 22.9221 8.41859C22.9813 8.45312 23.0301 8.50277 23.0637 8.56239Z" stroke="url(#paint8_linear_50_974)" stroke-width="0.983514" stroke-linecap="round" stroke-linejoin="round"/>
<path d="M11.5332 16.8668H24.696" stroke="url(#paint9_linear_50_974)" stroke-width="0.983514" stroke-linecap="round" stroke-linejoin="round"/>
<path d="M11.5332 20.9694H13.4097" stroke="url(#paint10_linear_50_974)" stroke-width="0.983514" stroke-linecap="round" stroke-linejoin="round"/>
<path d="M15.4253 20.9692H24.6963" stroke="url(#paint11_linear_50_974)" stroke-width="0.983514" stroke-linecap="round" stroke-linejoin="round"/>
<path d="M11.5332 25.072H22.6928" stroke="url(#paint12_linear_50_974)" stroke-width="0.983514" stroke-linecap="round" stroke-linejoin="round"/>
<path d="M11.5332 29.1743H21.3412" stroke="url(#paint13_linear_50_974)" stroke-width="0.983514" stroke-linecap="round" stroke-linejoin="round"/>
<path d="M8.08778 18.0281C8.72926 18.0281 9.24929 17.5081 9.24929 16.8667C9.24929 16.2253 8.72926 15.7053 8.08778 15.7053C7.4463 15.7053 6.92627 16.2253 6.92627 16.8667C6.92627 17.5081 7.4463 18.0281 8.08778 18.0281Z" stroke="url(#paint14_linear_50_974)" stroke-width="0.983514" stroke-linecap="round" stroke-linejoin="round"/>
<path d="M8.08778 22.1311C8.72926 22.1311 9.24929 21.6111 9.24929 20.9697C9.24929 20.3283 8.72926 19.8083 8.08778 19.8083C7.4463 19.8083 6.92627 20.3283 6.92627 20.9697C6.92627 21.6111 7.4463 22.1311 8.08778 22.1311Z" stroke="url(#paint15_linear_50_974)" stroke-width="0.983514" stroke-linecap="round" stroke-linejoin="round"/>
<path d="M8.08778 26.2334C8.72926 26.2334 9.24929 25.7134 9.24929 25.072C9.24929 24.4306 8.72926 23.9106 8.08778 23.9106C7.4463 23.9106 6.92627 24.4306 6.92627 25.072C6.92627 25.7134 7.4463 26.2334 8.08778 26.2334Z" stroke="url(#paint16_linear_50_974)" stroke-width="0.983514" stroke-linecap="round" stroke-linejoin="round"/>
<path d="M8.08778 30.3363C8.72926 30.3363 9.24929 29.8163 9.24929 29.1749C9.24929 28.5335 8.72926 28.0135 8.08778 28.0135C7.4463 28.0135 6.92627 28.5335 6.92627 29.1749C6.92627 29.8163 7.4463 30.3363 8.08778 30.3363Z" stroke="url(#paint17_linear_50_974)" stroke-width="0.983514" stroke-linecap="round" stroke-linejoin="round"/>
<path d="M8.08778 34.4418C8.72926 34.4418 9.24929 33.9218 9.24929 33.2804C9.24929 32.639 8.72926 32.119 8.08778 32.119C7.4463 32.119 6.92627 32.639 6.92627 33.2804C6.92627 33.9218 7.4463 34.4418 8.08778 34.4418Z" stroke="url(#paint18_linear_50_974)" stroke-width="0.983514" stroke-linecap="round" stroke-linejoin="round"/>
<path d="M11.5332 33.2809H23.085" stroke="url(#paint19_linear_50_974)" stroke-width="0.983514" stroke-linecap="round" stroke-linejoin="round"/>
<path d="M27.5738 35.1861C31.0179 35.1861 33.8098 32.3945 33.8098 28.9509C33.8098 25.5072 31.0179 22.7156 27.5738 22.7156C24.1298 22.7156 21.3379 25.5072 21.3379 28.9509C21.3379 32.3945 24.1298 35.1861 27.5738 35.1861Z" stroke="url(#paint20_linear_50_974)" stroke-width="0.983514" stroke-linecap="round" stroke-linejoin="round"/>
<path d="M24.4902 28.6494L26.8496 31.3463L30.6568 27.0386" stroke="url(#paint21_linear_50_974)" stroke-width="0.983514" stroke-linecap="round" stroke-linejoin="round"/>
<path d="M15.2168 6.18206H21.0394C21.2446 6.18126 21.441 6.09924 21.5858 5.95394C21.7305 5.80863 21.8117 5.61192 21.8117 5.40683V2.04024C21.8117 1.83515 21.7305 1.63844 21.5858 1.49314C21.441 1.34783 21.2446 1.26581 21.0394 1.26501H10.586C10.4841 1.26501 10.3832 1.28506 10.2891 1.32402C10.1951 1.36298 10.1096 1.42013 10.0376 1.49212C9.96559 1.56411 9.90844 1.64957 9.86947 1.74363C9.83051 1.83769 9.81055 1.93843 9.81055 2.04024V5.40683C9.81055 5.61244 9.89218 5.80956 10.0376 5.95495C10.183 6.10034 10.3803 6.18206 10.586 6.18206H12.5076" stroke="url(#paint22_linear_50_974)" stroke-width="0.983514" stroke-linecap="round" stroke-linejoin="round"/>
<path d="M16.155 8.56239L16.6558 9.57596C16.6843 9.63366 16.727 9.68322 16.7798 9.72012C16.8325 9.75703 16.8937 9.78011 16.9576 9.78714L18.0739 9.94999C18.1456 9.96004 18.213 9.99006 18.2685 10.0366C18.324 10.0832 18.3653 10.1444 18.3876 10.2133C18.41 10.2822 18.4124 10.356 18.3948 10.4263C18.3772 10.4966 18.3402 10.5604 18.288 10.6106L17.4824 11.3949C17.4372 11.4388 17.4034 11.4931 17.3839 11.553C17.3645 11.613 17.36 11.6768 17.3708 11.7389L17.5609 12.8489C17.5727 12.92 17.5645 12.993 17.5373 13.0597C17.5101 13.1265 17.4649 13.1844 17.4067 13.2269C17.3486 13.2695 17.2797 13.295 17.2079 13.3007C17.136 13.3064 17.064 13.2921 16.9998 13.2592L16.0012 12.7343C15.9455 12.7047 15.8833 12.6893 15.8202 12.6893C15.7571 12.6893 15.695 12.7047 15.6392 12.7343L14.6436 13.2592C14.5793 13.2929 14.5069 13.3079 14.4346 13.3026C14.3622 13.2973 14.2927 13.2718 14.2341 13.2291C14.1754 13.1865 14.1299 13.1283 14.1026 13.0611C14.0752 12.9939 14.0672 12.9204 14.0794 12.8489L14.2725 11.7389C14.2829 11.6768 14.2782 11.6131 14.2587 11.5533C14.2393 11.4934 14.2058 11.4391 14.161 11.3949L13.3524 10.6106C13.3002 10.5604 13.263 10.4966 13.2454 10.4263C13.2278 10.356 13.2304 10.2822 13.2528 10.2133C13.2751 10.1444 13.3164 10.0832 13.3719 10.0366C13.4274 9.99006 13.4948 9.96004 13.5666 9.94999L14.6828 9.78714C14.7467 9.77985 14.8078 9.75672 14.8605 9.71985C14.9132 9.68297 14.9557 9.63349 14.9844 9.57596L15.4823 8.56239C15.5159 8.50277 15.5648 8.45312 15.6239 8.41859C15.683 8.38407 15.7503 8.36584 15.8187 8.36584C15.8872 8.36584 15.9543 8.38407 16.0134 8.41859C16.0725 8.45312 16.1214 8.50277 16.155 8.56239Z" stroke="url(#paint23_linear_50_974)" stroke-width="0.983514" stroke-linecap="round" stroke-linejoin="round"/>
<path d="M9.25271 8.56239L9.75356 9.57596C9.78161 9.63401 9.82394 9.68389 9.87675 9.72086C9.92957 9.75783 9.99104 9.78066 10.0552 9.78714L11.1714 9.94999C11.2432 9.96004 11.3106 9.99006 11.3661 10.0366C11.4215 10.0832 11.4629 10.1444 11.4852 10.2133C11.5075 10.2822 11.51 10.356 11.4924 10.4263C11.4748 10.4966 11.4378 10.5604 11.3856 10.6106L10.5802 11.3949C10.5349 11.4388 10.5011 11.4931 10.4816 11.553C10.4622 11.613 10.4577 11.6768 10.4686 11.7389L10.6586 12.8489C10.6704 12.92 10.6623 12.993 10.635 13.0597C10.6078 13.1265 10.5625 13.1844 10.5043 13.2269C10.4461 13.2695 10.3773 13.295 10.3054 13.3007C10.2336 13.3064 10.1615 13.2921 10.0973 13.2592L9.09877 12.7343C9.04302 12.7047 8.98088 12.6893 8.91776 12.6893C8.85465 12.6893 8.79251 12.7047 8.73676 12.7343L7.74112 13.2592C7.67686 13.2929 7.60448 13.3079 7.53213 13.3026C7.45978 13.2973 7.39045 13.2718 7.33179 13.2291C7.27312 13.1865 7.22747 13.1283 7.20013 13.0611C7.17279 12.9939 7.1649 12.9204 7.17711 12.8489L7.36714 11.7389C7.37866 11.677 7.37467 11.6133 7.35572 11.5533C7.33678 11.4933 7.30344 11.439 7.2585 11.3949L6.44995 10.6106C6.39775 10.5604 6.36076 10.4966 6.34315 10.4263C6.32554 10.356 6.32799 10.2822 6.35033 10.2133C6.37267 10.1444 6.41398 10.0832 6.46947 10.0366C6.52496 9.99006 6.59236 9.96004 6.6641 9.94999L7.78035 9.78714C7.84424 9.77985 7.90535 9.75672 7.95804 9.71985C8.01072 9.68297 8.05342 9.63349 8.08215 9.57596L8.57987 8.56239C8.61349 8.50277 8.66236 8.45312 8.72147 8.41859C8.78058 8.38407 8.84783 8.36584 8.91629 8.36584C8.98475 8.36584 9.052 8.38407 9.11111 8.41859C9.17022 8.45312 9.21909 8.50277 9.25271 8.56239Z" stroke="url(#paint24_linear_50_974)" stroke-width="0.983514" stroke-linecap="round" stroke-linejoin="round"/>
<defs>
<linearGradient id="paint0_linear_50_974" x1="0.970703" y1="6.25777" x2="9.81925" y2="6.25777" gradientUnits="userSpaceOnUse">
<stop stop-color="#2C8D8A"/>
<stop offset="1" stop-color="#1E585B"/>
</linearGradient>
<linearGradient id="paint1_linear_50_974" x1="21.8115" y1="12.8052" x2="30.6603" y2="12.8052" gradientUnits="userSpaceOnUse">
<stop stop-color="#2C8D8A"/>
<stop offset="1" stop-color="#1E585B"/>
</linearGradient>
<linearGradient id="paint2_linear_50_974" x1="0.961914" y1="26.4477" x2="30.6604" y2="26.4477" gradientUnits="userSpaceOnUse">
<stop stop-color="#2C8D8A"/>
<stop offset="1" stop-color="#1E585B"/>
</linearGradient>
<linearGradient id="paint3_linear_50_974" x1="3.23975" y1="20.9096" x2="20.6474" y2="20.9096" gradientUnits="userSpaceOnUse">
<stop stop-color="#2C8D8A"/>
<stop offset="1" stop-color="#1E585B"/>
</linearGradient>
<linearGradient id="paint4_linear_50_974" x1="21.8115" y1="13.5567" x2="28.3944" y2="13.5567" gradientUnits="userSpaceOnUse">
<stop stop-color="#2C8D8A"/>
<stop offset="1" stop-color="#1E585B"/>
</linearGradient>
<linearGradient id="paint5_linear_50_974" x1="23.3472" y1="36.3042" x2="28.3944" y2="36.3042" gradientUnits="userSpaceOnUse">
<stop stop-color="#2C8D8A"/>
<stop offset="1" stop-color="#1E585B"/>
</linearGradient>
<linearGradient id="paint6_linear_50_974" x1="12.1729" y1="4.22351" x2="12.4309" y2="4.22351" gradientUnits="userSpaceOnUse">
<stop stop-color="#2C8D8A"/>
<stop offset="1" stop-color="#1E585B"/>
</linearGradient>
<linearGradient id="paint7_linear_50_974" x1="19.1899" y1="4.22363" x2="19.448" y2="4.22363" gradientUnits="userSpaceOnUse">
<stop stop-color="#2C8D8A"/>
<stop offset="1" stop-color="#1E585B"/>
</linearGradient>
<linearGradient id="paint8_linear_50_974" x1="20.1426" y1="10.8339" x2="25.315" y2="10.8339" gradientUnits="userSpaceOnUse">
<stop stop-color="#2C8D8A"/>
<stop offset="1" stop-color="#1E585B"/>
</linearGradient>
<linearGradient id="paint9_linear_50_974" x1="11.5332" y1="17.3668" x2="24.696" y2="17.3668" gradientUnits="userSpaceOnUse">
<stop stop-color="#2C8D8A"/>
<stop offset="1" stop-color="#1E585B"/>
</linearGradient>
<linearGradient id="paint10_linear_50_974" x1="11.5332" y1="21.4694" x2="13.4097" y2="21.4694" gradientUnits="userSpaceOnUse">
<stop stop-color="#2C8D8A"/>
<stop offset="1" stop-color="#1E585B"/>
</linearGradient>
<linearGradient id="paint11_linear_50_974" x1="15.4253" y1="21.4692" x2="24.6963" y2="21.4692" gradientUnits="userSpaceOnUse">
<stop stop-color="#2C8D8A"/>
<stop offset="1" stop-color="#1E585B"/>
</linearGradient>
<linearGradient id="paint12_linear_50_974" x1="11.5332" y1="25.572" x2="22.6928" y2="25.572" gradientUnits="userSpaceOnUse">
<stop stop-color="#2C8D8A"/>
<stop offset="1" stop-color="#1E585B"/>
</linearGradient>
<linearGradient id="paint13_linear_50_974" x1="11.5332" y1="29.6743" x2="21.3412" y2="29.6743" gradientUnits="userSpaceOnUse">
<stop stop-color="#2C8D8A"/>
<stop offset="1" stop-color="#1E585B"/>
</linearGradient>
<linearGradient id="paint14_linear_50_974" x1="6.92627" y1="16.8667" x2="9.24929" y2="16.8667" gradientUnits="userSpaceOnUse">
<stop stop-color="#2C8D8A"/>
<stop offset="1" stop-color="#1E585B"/>
</linearGradient>
<linearGradient id="paint15_linear_50_974" x1="6.92627" y1="20.9697" x2="9.24929" y2="20.9697" gradientUnits="userSpaceOnUse">
<stop stop-color="#2C8D8A"/>
<stop offset="1" stop-color="#1E585B"/>
</linearGradient>
<linearGradient id="paint16_linear_50_974" x1="6.92627" y1="25.072" x2="9.24929" y2="25.072" gradientUnits="userSpaceOnUse">
<stop stop-color="#2C8D8A"/>
<stop offset="1" stop-color="#1E585B"/>
</linearGradient>
<linearGradient id="paint17_linear_50_974" x1="6.92627" y1="29.1749" x2="9.24929" y2="29.1749" gradientUnits="userSpaceOnUse">
<stop stop-color="#2C8D8A"/>
<stop offset="1" stop-color="#1E585B"/>
</linearGradient>
<linearGradient id="paint18_linear_50_974" x1="6.92627" y1="33.2804" x2="9.24929" y2="33.2804" gradientUnits="userSpaceOnUse">
<stop stop-color="#2C8D8A"/>
<stop offset="1" stop-color="#1E585B"/>
</linearGradient>
<linearGradient id="paint19_linear_50_974" x1="11.5332" y1="33.7809" x2="23.085" y2="33.7809" gradientUnits="userSpaceOnUse">
<stop stop-color="#2C8D8A"/>
<stop offset="1" stop-color="#1E585B"/>
</linearGradient>
<linearGradient id="paint20_linear_50_974" x1="21.3379" y1="28.9509" x2="33.8098" y2="28.9509" gradientUnits="userSpaceOnUse">
<stop stop-color="#2C8D8A"/>
<stop offset="1" stop-color="#1E585B"/>
</linearGradient>
<linearGradient id="paint21_linear_50_974" x1="24.4902" y1="29.1924" x2="30.6568" y2="29.1924" gradientUnits="userSpaceOnUse">
<stop stop-color="#2C8D8A"/>
<stop offset="1" stop-color="#1E585B"/>
</linearGradient>
<linearGradient id="paint22_linear_50_974" x1="9.81055" y1="3.72354" x2="21.8117" y2="3.72354" gradientUnits="userSpaceOnUse">
<stop stop-color="#2C8D8A"/>
<stop offset="1" stop-color="#1E585B"/>
</linearGradient>
<linearGradient id="paint23_linear_50_974" x1="13.2339" y1="10.8347" x2="18.4064" y2="10.8347" gradientUnits="userSpaceOnUse">
<stop stop-color="#2C8D8A"/>
<stop offset="1" stop-color="#1E585B"/>
</linearGradient>
<linearGradient id="paint24_linear_50_974" x1="6.33154" y1="10.8347" x2="11.504" y2="10.8347" gradientUnits="userSpaceOnUse">
<stop stop-color="#2C8D8A"/>
<stop offset="1" stop-color="#1E585B"/>
</linearGradient>
</defs>
</svg>
